<?xml version="1.0" encoding="UTF-8"?><svg id="Capa_1" xmlns="http://www.w3.org/2000/svg" viewBox="0 0 375.01 135.69"><path d="M44.14,104.77c69.77,1.84,164.63,58.75,229.5,13.46,1.84-1.22,3.67-3.06,5.51-4.28,31.82,1.84,64.26-.61,91.19-2.45,6.12,0,6.12-7.96,.61-8.57-26.32-1.23-53.24,.61-80.17-1.23,24.48-36.72-4.9-88.74-48.35-99.14-18.36-4.9-44.68-4.28-55.08,15.3-11.02,20.81-9.18,50.18,8.57,66.1,16.52,15.3,38.56,23.26,61.81,27.54-12.85,7.34-29.38,9.18-45.9,8.57-56.92-3.06-110.16-27.54-167.08-28.76-8.57-.61-8.57,12.85-.61,13.46Zm227.66-4.9c-11.63-1.22-22.64-3.67-34.27-7.34-25.09-7.96-51.41-26.32-43.45-56.92,6.73-26.32,35.5-26.32,55.69-15.91,20.2,10.4,42.23,31.82,35.5,56.92-2.45,9.79-6.73,17.14-13.46,23.26Z"/><path d="M3.75,104.77c8.57,4.9,17.75,8.57,26.93,12.24,4.28,1.84,9.18,3.67,13.46,4.9,1.84,0,3.06,0,4.28-.61h0c4.28,.61,4.28-5.51,1.84-7.34,.61,.61,1.84,1.84,0-.61-.61-1.22-1.84-2.45-3.06-3.06-3.67-1.84-7.96-3.67-11.63-5.51-4.9-2.45-9.79-4.28-14.69-6.73,4.28-3.06,9.18-6.73,14.08-9.79,6.73-4.28,14.08-8.57,20.81-13.46,5.51-4.28-.61-13.46-6.73-11.63-7.96,1.84-14.69,7.34-21.42,12.24-7.96,5.51-15.91,11.01-24.48,16.52-4.28,2.45-4.28,9.18,.61,12.85Z"/></svg>