<?xml version="1.0" encoding="UTF-8"?><svg xmlns="http://www.w3.org/2000/svg" viewBox="0 0 693 695"><defs><style>.cls-1{fill:#f2f2f3;}.cls-2{fill:#ededed;}</style></defs><g id="Layer_2"><rect class="cls-2" width="693" height="695"/></g><g id="Layer_1"><path class="cls-1" d="M144.28,122.47c-2.69,2.61-4.58,4.36-6.53,6.03-.25,.21-.36,.48-.44,.78-.63,2.45-1.25,4.91-1.88,7.36-.12,.47-.25,.95-.46,1.38-.46,.95-1.14,1.57-2.37,1.6-2.85,.06-5.71-.39-8.58-1.02-8.82-1.95-17.48-4.79-25.92-8.82-1.22-.58-2.42-1.24-3.57-1.99-1.88-1.22-2.76-2.93-2.6-4.99,.08-1.07,.39-2.06,.62-3.08,.21-.9,.21-.9-.69-1.46-2.4-1.51-4.71-3.16-6.76-5.19-.28-.27-.49-.34-.82-.24-1.21,.38-2.2,1.06-3.2,1.75-.22,.15-.44,.3-.66,.44-1.59,.98-3.28,.93-5.14-.28-2.17-1.42-3.98-3.24-5.58-5.25-6.69-8.42-12.11-17.46-16.15-27.15-.6-1.45-1.04-2.93-1.23-4.43-.25-2,.22-3.59,1.73-4.76,1.86-1.44,3.7-2.89,5.67-4.18,.29-.19,.5-.44,.67-.75,3.17-6.06,6.71-11.84,10.95-17.12,5.91-7.37,13.07-13.27,21.78-17.33,.41-.19,.74-.33,1.38-.13,4.1,1.25,7.82,3.47,11.53,5.72,9.39,5.69,18.37,12.11,27.27,18.65,6,4.41,11.92,8.94,17.75,13.59,4.55,3.63,9.06,7.3,13.33,11.28,.44,.41,.54,.72,.44,1.24-.96,4.65-2.05,9.23-3.73,13.58-2.2,5.72-5.16,10.93-8.77,15.7-2.69,3.55-5.69,6.82-8.03,9.08h0Zm-3.39-1.86c1.91-1.88,3.5-3.55,5.03-5.27,2.95-3.33,5.6-6.89,7.86-10.78,3.22-5.54,5.47-11.59,6.9-18.06,.08-.35,.05-.48-.37-.58-1.97-.45-3.88-1.2-5.78-2-6.82-2.88-13.37-6.46-19.79-10.38-7.25-4.43-14.2-9.36-20.93-14.64-5.43-4.25-10.65-8.74-15.36-13.83-1.87-2.02-3.66-4.1-5.14-6.4-.46-.71-.45-.7-1.09-.36-7.56,3.96-13.69,9.53-18.87,16.17-3.94,5.05-7.25,10.57-10.19,16.34-.12,.24-.22,.48-.46,.63-2.13,1.31-4.01,2.92-6.01,4.37-.93,.67-1.09,1.51-.86,2.64,.3,1.46,.8,2.88,1.42,4.28,3.99,9.04,9.06,17.54,15.44,25.39,1.09,1.34,2.31,2.6,3.76,3.61,.8,.56,1.45,.62,2.12,.1,1.74-1.34,3.66-2.37,5.97-2.74,.27-.04,.47-.02,.74,.16,.86,.57,1.59,1.3,2.34,2,2.6,2.41,5.54,4.24,8.58,5.88,.38,.21,.46,.34,.4,.69-.27,1.46-.6,2.9-.96,4.33-.13,.51-.26,1.03-.27,1.58-.02,.53,.15,.95,.71,1.27,1.08,.64,2.17,1.27,3.29,1.81,7.82,3.7,15.83,6.32,23.98,8.24,2.58,.61,5.16,1.06,7.73,1.14,.6,.02,.87-.16,1.01-.74,.69-2.83,1.43-5.64,2.15-8.45,.07-.29,.18-.54,.41-.73,2.26-1.89,4.42-3.89,6.27-5.67h0Z"/><path class="cls-1" d="M140.89,120.61c-1.85,1.78-4.01,3.78-6.27,5.67-.23,.19-.33,.44-.41,.73-.72,2.82-1.46,5.63-2.15,8.45-.14,.57-.41,.75-1.01,.74-2.57-.08-5.15-.54-7.73-1.14-8.15-1.92-16.16-4.54-23.98-8.24-1.13-.53-2.21-1.17-3.29-1.81-.55-.32-.72-.74-.71-1.27,.02-.55,.14-1.07,.27-1.58,.37-1.43,.7-2.87,.96-4.33,.06-.35-.02-.48-.4-.69-3.04-1.64-5.98-3.47-8.58-5.88-.75-.7-1.48-1.42-2.34-2-.27-.18-.47-.2-.74-.16-2.31,.37-4.23,1.4-5.97,2.74-.68,.52-1.33,.45-2.12-.1-1.44-1.01-2.66-2.26-3.76-3.61-6.38-7.85-11.45-16.36-15.44-25.39-.62-1.4-1.11-2.82-1.42-4.28-.24-1.13-.07-1.97,.86-2.64,2.01-1.45,3.89-3.07,6.01-4.37,.24-.15,.35-.39,.46-.63,2.95-5.77,6.25-11.29,10.19-16.34,5.17-6.64,11.3-12.21,18.87-16.17,.65-.34,.64-.34,1.09,.36,1.48,2.31,3.27,4.39,5.14,6.4,4.71,5.09,9.93,9.58,15.36,13.83,6.74,5.28,13.69,10.21,20.93,14.64,6.41,3.92,12.97,7.5,19.79,10.38,1.9,.8,3.82,1.55,5.78,2,.42,.1,.44,.23,.37,.58-1.42,6.47-3.68,12.52-6.9,18.06-2.26,3.88-4.91,7.45-7.86,10.78-1.53,1.73-3.12,3.39-5.03,5.27h0Zm-38.83-42.33c1.56-1.6,2.88-3.37,3.69-5.51,.56-1.46,.87-3.01,.49-4.73-.38-1.74-1.53-2.94-3.26-3.43-.94-.27-1.85-.26-2.74-.11-2.11,.37-3.89,1.31-5.44,2.61-2.56,2.14-4.55,4.72-5.39,8.16-.29,1.2-.33,2.46,.1,3.76,.4,1.2,1.18,2.12,2.37,2.62,1.24,.52,2.45,.53,3.63,.29,2.64-.53,4.72-1.93,6.57-3.66h0Zm22.55,20.93c2.32-2.29,4.08-5.86,4.55-9.28,.19-1.41,.2-2.86-.21-4.34-.8-2.92-3-4.34-5.71-3.68-1.5,.37-2.7,1.2-3.74,2.22-2.49,2.44-3.95,5.53-4.63,9.09-.29,1.53-.32,3.12,.12,4.75,.31,1.16,.83,2.24,1.88,3.02,1.45,1.08,2.87,.97,4.25,.51s2.5-1.31,3.5-2.29h0Z"/><path class="cls-1" d="M604.75,305.96c2.6,2.7,4.34,4.59,6,6.55,.21,.25,.48,.36,.78,.44,2.45,.63,4.9,1.26,7.35,1.91,.47,.12,.95,.26,1.38,.47,.95,.46,1.57,1.14,1.59,2.37,.05,2.85-.41,5.71-1.05,8.58-1.98,8.81-4.85,17.46-8.91,25.89-.59,1.22-1.25,2.41-2,3.56-1.23,1.88-2.94,2.75-5,2.59-1.07-.09-2.06-.4-3.08-.63-.9-.21-.89-.22-1.46,.69-1.51,2.4-3.18,4.7-5.21,6.74-.28,.28-.34,.49-.24,.82,.37,1.21,1.05,2.21,1.74,3.21,.15,.22,.3,.44,.44,.66,.98,1.59,.92,3.29-.3,5.14-1.43,2.16-3.25,3.97-5.27,5.56-8.44,6.66-17.5,12.04-27.2,16.05-1.45,.6-2.93,1.03-4.43,1.21-2,.24-3.59-.23-4.76-1.74-1.43-1.86-2.87-3.71-4.16-5.68-.19-.29-.43-.5-.75-.67-6.05-3.19-11.82-6.75-17.09-11.01-7.35-5.94-13.22-13.11-17.25-21.84-.19-.41-.32-.74-.12-1.38,1.26-4.09,3.5-7.81,5.76-11.51,5.72-9.37,12.17-18.32,18.74-27.2,4.43-5.98,8.98-11.89,13.66-17.71,3.64-4.53,7.33-9.03,11.32-13.29,.41-.44,.72-.54,1.24-.43,4.65,.97,9.23,2.09,13.57,3.78,5.71,2.22,10.91,5.19,15.67,8.83,3.54,2.71,6.8,5.71,9.06,8.06h0Zm-1.87,3.38c-1.87-1.92-3.53-3.51-5.25-5.05-3.32-2.96-6.87-5.62-10.75-7.89-5.53-3.24-11.57-5.51-18.04-6.96-.35-.08-.48-.05-.58,.37-.46,1.97-1.21,3.88-2.02,5.78-2.9,6.81-6.51,13.35-10.45,19.75-4.45,7.23-9.41,14.16-14.71,20.88-4.27,5.41-8.78,10.62-13.88,15.31-2.03,1.86-4.11,3.64-6.42,5.12-.71,.45-.71,.44-.37,1.09,3.93,7.58,9.49,13.73,16.1,18.92,5.04,3.96,10.54,7.28,16.31,10.25,.24,.12,.48,.22,.63,.47,1.3,2.13,2.91,4.02,4.35,6.03,.67,.93,1.5,1.1,2.64,.87,1.46-.3,2.89-.79,4.29-1.4,9.05-3.96,17.58-9,25.45-15.35,1.35-1.09,2.61-2.31,3.62-3.75,.56-.79,.63-1.44,.11-2.12-1.33-1.74-2.36-3.67-2.72-5.98-.04-.27-.02-.47,.16-.74,.58-.85,1.3-1.58,2-2.33,2.42-2.59,4.26-5.52,5.91-8.56,.21-.38,.34-.46,.69-.4,1.46,.27,2.9,.61,4.33,.98,.51,.13,1.03,.26,1.58,.28,.53,.02,.95-.15,1.27-.7,.64-1.08,1.28-2.16,1.82-3.29,3.73-7.8,6.37-15.81,8.32-23.95,.62-2.58,1.08-5.16,1.17-7.73,.02-.6-.16-.87-.73-1.01-2.83-.7-5.63-1.45-8.45-2.18-.29-.08-.54-.18-.73-.41-1.88-2.27-3.88-4.44-5.65-6.29h0Z"/><path class="cls-1" d="M602.88,309.34c1.77,1.86,3.77,4.03,5.65,6.29,.19,.23,.44,.33,.73,.41,2.81,.73,5.62,1.48,8.45,2.18,.57,.14,.75,.41,.73,1.01-.09,2.57-.56,5.15-1.17,7.73-1.95,8.14-4.59,16.15-8.32,23.95-.54,1.12-1.18,2.2-1.82,3.29-.33,.55-.74,.72-1.27,.7-.55-.02-1.07-.15-1.58-.28-1.43-.37-2.86-.71-4.33-.98-.35-.07-.48,.01-.69,.4-1.65,3.04-3.49,5.97-5.91,8.56-.7,.75-1.43,1.48-2,2.33-.18,.27-.21,.47-.16,.74,.37,2.31,1.39,4.23,2.72,5.98,.52,.68,.45,1.33-.11,2.12-1.01,1.44-2.27,2.66-3.62,3.75-7.87,6.35-16.4,11.4-25.45,15.35-1.4,.61-2.83,1.1-4.29,1.4-1.13,.23-1.97,.07-2.64-.87-1.45-2.01-3.06-3.9-4.35-6.03-.15-.24-.39-.35-.63-.47-5.76-2.97-11.27-6.29-16.31-10.25-6.62-5.2-12.17-11.35-16.1-18.92-.34-.65-.34-.64,.37-1.09,2.31-1.47,4.4-3.25,6.42-5.12,5.11-4.69,9.61-9.9,13.88-15.31,5.3-6.72,10.26-13.65,14.71-20.88,3.94-6.4,7.54-12.94,10.45-19.75,.81-1.9,1.57-3.81,2.02-5.78,.1-.42,.23-.44,.58-.37,6.47,1.44,12.5,3.72,18.04,6.96,3.88,2.27,7.43,4.93,10.75,7.89,1.72,1.54,3.38,3.13,5.25,5.05h0Zm-42.47,38.68c-1.59-1.57-3.36-2.89-5.5-3.71-1.46-.56-3.01-.88-4.72-.51-1.75,.38-2.95,1.52-3.44,3.25-.27,.94-.27,1.85-.12,2.74,.36,2.12,1.3,3.9,2.59,5.45,2.13,2.57,4.71,4.57,8.14,5.42,1.2,.3,2.46,.34,3.77-.09,1.2-.4,2.12-1.17,2.62-2.36,.52-1.24,.54-2.45,.3-3.63-.53-2.64-1.91-4.73-3.63-6.58h0Zm21.01-22.48c-2.28-2.33-5.85-4.1-9.26-4.58-1.41-.2-2.85-.21-4.35,.2-2.92,.79-4.35,2.98-3.7,5.7,.36,1.5,1.19,2.71,2.21,3.75,2.43,2.49,5.51,3.97,9.08,4.66,1.53,.3,3.11,.33,4.75-.11,1.16-.31,2.24-.82,3.03-1.87,1.08-1.45,.98-2.87,.52-4.25s-1.3-2.5-2.28-3.51h0Z"/><path class="cls-1" d="M464.34,206.86c-1.92,3.23-3.28,5.4-4.73,7.52-.18,.27-.22,.55-.22,.87,.04,2.53,.08,5.06,.1,7.59,0,.49,0,.99-.08,1.45-.2,1.04-.69,1.82-1.87,2.16-2.73,.8-5.62,1.12-8.55,1.25-9.02,.42-18.12-.06-27.32-1.75-1.33-.24-2.66-.56-3.96-.99-2.13-.69-3.43-2.11-3.82-4.14-.2-1.06-.16-2.09-.2-3.13-.04-.93-.03-.92-1.05-1.23-2.71-.83-5.37-1.82-7.88-3.24-.34-.19-.56-.2-.85-.01-1.06,.68-1.85,1.6-2.64,2.53-.17,.2-.34,.4-.53,.6-1.28,1.37-2.92,1.76-5.03,1.07-2.47-.81-4.69-2.09-6.76-3.61-8.66-6.38-16.24-13.69-22.67-21.99-.96-1.24-1.77-2.55-2.34-3.95-.76-1.86-.73-3.52,.42-5.05,1.42-1.87,2.82-3.75,4.38-5.51,.23-.26,.37-.55,.45-.9,1.48-6.67,3.39-13.18,6.1-19.39,3.78-8.66,9.15-16.22,16.5-22.41,.35-.29,.63-.51,1.3-.49,4.28,.13,8.46,1.31,12.63,2.51,10.55,3.04,20.89,6.89,31.19,10.88,6.94,2.69,13.84,5.52,20.69,8.49,5.33,2.32,10.65,4.69,15.82,7.4,.53,.28,.71,.55,.75,1.09,.29,4.74,.43,9.45-.06,14.08-.63,6.09-2.12,11.89-4.37,17.44-1.67,4.13-3.71,8.07-5.38,10.87h0Zm-3.75-.91c1.36-2.31,2.45-4.34,3.48-6.4,1.98-3.98,3.61-8.12,4.77-12.45,1.66-6.19,2.26-12.61,1.94-19.23-.02-.36-.08-.48-.51-.47-2.02,.08-4.06-.14-6.11-.42-7.34-1-14.59-2.75-21.81-4.85-8.15-2.38-16.15-5.33-24.03-8.66-6.35-2.69-12.56-5.66-18.44-9.34-2.33-1.46-4.6-3.01-6.63-4.84-.62-.56-.61-.56-1.15-.07-6.27,5.8-10.73,12.78-13.99,20.53-2.48,5.91-4.24,12.09-5.57,18.44-.06,.26-.09,.52-.28,.73-1.71,1.82-3.1,3.87-4.66,5.79-.72,.89-.66,1.74-.14,2.77,.67,1.33,1.53,2.58,2.49,3.76,6.21,7.68,13.33,14.57,21.53,20.48,1.41,1.01,2.91,1.9,4.57,2.5,.91,.33,1.56,.22,2.07-.46,1.33-1.75,2.92-3.24,5.05-4.2,.25-.11,.45-.14,.76-.04,.98,.33,1.87,.84,2.78,1.32,3.14,1.65,6.45,2.65,9.82,3.44,.43,.1,.54,.2,.56,.56,.13,1.48,.18,2.96,.2,4.43,0,.53,.02,1.06,.15,1.6,.12,.52,.4,.87,1.02,1.04,1.21,.33,2.42,.66,3.65,.88,8.51,1.53,16.93,1.97,25.3,1.69,2.65-.09,5.26-.32,7.76-.91,.59-.14,.8-.38,.78-.97-.07-2.91-.09-5.81-.13-8.72,0-.3,.03-.57,.2-.81,1.69-2.41,3.25-4.91,4.58-7.11h0Z"/><path class="cls-1" d="M460.59,205.95c-1.32,2.2-2.89,4.7-4.58,7.11-.17,.25-.21,.52-.2,.81,.04,2.91,.06,5.81,.13,8.72,.01,.59-.19,.83-.78,.97-2.51,.59-5.11,.83-7.76,.91-8.36,.27-16.79-.16-25.3-1.69-1.23-.22-2.44-.55-3.65-.88-.62-.17-.89-.53-1.02-1.04-.13-.54-.14-1.07-.15-1.6-.02-1.47-.08-2.95-.2-4.43-.03-.36-.14-.46-.56-.56-3.37-.79-6.68-1.79-9.82-3.44-.91-.48-1.8-.99-2.78-1.32-.31-.1-.5-.08-.76,.04-2.13,.96-3.72,2.46-5.05,4.2-.52,.68-1.16,.78-2.07,.46-1.66-.6-3.16-1.49-4.57-2.5-8.21-5.91-15.33-12.8-21.53-20.48-.96-1.19-1.81-2.44-2.49-3.76-.52-1.03-.59-1.88,.14-2.77,1.56-1.93,2.95-3.98,4.66-5.79,.2-.21,.23-.47,.28-.73,1.34-6.34,3.09-12.53,5.57-18.44,3.26-7.76,7.72-14.74,13.99-20.53,.54-.5,.53-.5,1.15,.07,2.03,1.84,4.3,3.38,6.63,4.84,5.87,3.68,12.09,6.65,18.44,9.34,7.88,3.34,15.88,6.28,24.03,8.66,7.22,2.11,14.47,3.85,21.81,4.85,2.05,.28,4.09,.5,6.11,.42,.43-.02,.49,.11,.51,.47,.32,6.62-.28,13.04-1.94,19.23-1.16,4.34-2.79,8.47-4.77,12.45-1.03,2.06-2.12,4.09-3.48,6.4h0Zm-48.54-30.73c1.09-1.95,1.9-4,2.12-6.29,.16-1.56,.05-3.13-.76-4.69-.83-1.58-2.25-2.44-4.05-2.46-.98-.01-1.86,.23-2.67,.61-1.95,.9-3.41,2.28-4.57,3.94-1.91,2.73-3.16,5.75-3.07,9.28,.03,1.24,.32,2.46,1.08,3.61,.7,1.06,1.69,1.73,2.97,1.91,1.33,.18,2.5-.13,3.58-.67,2.41-1.21,4.05-3.09,5.38-5.24h0Zm27.24,14.32c1.64-2.82,2.4-6.72,1.97-10.14-.18-1.42-.56-2.81-1.34-4.14-1.53-2.61-4.03-3.41-6.48-2.06-1.35,.75-2.29,1.86-3.04,3.12-1.76,3-2.37,6.37-2.1,9.99,.12,1.56,.5,3.09,1.36,4.56,.61,1.04,1.38,1.95,2.6,2.43,1.68,.66,3.03,.19,4.23-.62s2.07-1.91,2.78-3.13h0Z"/><path class="cls-1" d="M283.34,40.74c3.11-2.09,5.28-3.47,7.5-4.77,.28-.16,.44-.41,.57-.69,1.05-2.3,2.1-4.61,3.16-6.91,.21-.44,.42-.89,.7-1.28,.62-.85,1.4-1.35,2.61-1.15,2.81,.45,5.55,1.4,8.26,2.53,8.33,3.49,16.35,7.82,23.94,13.29,1.1,.79,2.16,1.65,3.16,2.59,1.63,1.54,2.19,3.37,1.67,5.38-.27,1.04-.75,1.96-1.16,2.92-.36,.85-.37,.84,.42,1.56,2.1,1.91,4.07,3.95,5.73,6.31,.22,.32,.42,.42,.76,.38,1.25-.16,2.36-.65,3.46-1.15,.24-.11,.48-.22,.73-.32,1.74-.69,3.4-.34,5.01,1.19,1.88,1.78,3.34,3.9,4.56,6.16,5.09,9.47,8.81,19.33,11.07,29.58,.34,1.53,.51,3.06,.42,4.58-.11,2.01-.85,3.5-2.54,4.38-2.08,1.08-4.15,2.18-6.32,3.1-.32,.14-.57,.34-.79,.62-4.2,5.4-8.71,10.46-13.82,14.9-7.13,6.2-15.22,10.74-24.51,13.18-.44,.12-.78,.19-1.38-.12-3.81-1.95-7.08-4.81-10.33-7.68-8.23-7.27-15.92-15.18-23.52-23.2-5.12-5.41-10.14-10.91-15.05-16.53-3.83-4.38-7.61-8.8-11.12-13.47-.36-.48-.41-.8-.21-1.3,1.77-4.41,3.66-8.72,6.08-12.7,3.18-5.23,7.02-9.84,11.42-13.89,3.28-3.02,6.81-5.7,9.52-7.51h0Zm3,2.43c-2.22,1.51-4.08,2.87-5.89,4.29-3.49,2.75-6.74,5.79-9.65,9.21-4.15,4.88-7.45,10.43-10,16.55-.14,.33-.14,.47,.26,.64,1.86,.79,3.61,1.87,5.34,3,6.2,4.05,12.01,8.73,17.63,13.73,6.34,5.64,12.31,11.73,18,18.12,4.58,5.15,8.93,10.49,12.66,16.34,1.48,2.32,2.87,4.69,3.92,7.22,.32,.78,.31,.77,1.01,.55,8.15-2.55,15.17-6.95,21.44-12.56,4.78-4.27,9.01-9.11,12.94-14.27,.16-.21,.3-.43,.57-.54,2.32-.91,4.46-2.16,6.69-3.24,1.04-.5,1.35-1.29,1.31-2.44-.04-1.49-.28-2.98-.63-4.46-2.32-9.6-5.8-18.88-10.68-27.74-.84-1.52-1.82-2.97-3.06-4.22-.68-.69-1.31-.87-2.07-.48-1.95,1.01-4.03,1.68-6.36,1.64-.27,0-.47-.07-.7-.29-.74-.72-1.33-1.56-1.94-2.38-2.13-2.84-4.69-5.16-7.4-7.31-.34-.27-.4-.41-.27-.75,.52-1.39,1.1-2.75,1.72-4.09,.22-.48,.44-.97,.55-1.51,.11-.52,.02-.96-.47-1.38-.95-.82-1.91-1.64-2.92-2.36-7.03-5.03-14.46-9.03-22.13-12.37-2.43-1.06-4.89-1.96-7.41-2.5-.59-.13-.88,0-1.12,.54-1.18,2.66-2.41,5.29-3.62,7.94-.12,.27-.27,.5-.53,.65-2.56,1.46-5.04,3.04-7.18,4.46h0Z"/><path class="cls-1" d="M286.34,43.17c2.14-1.42,4.62-3.01,7.18-4.46,.26-.15,.41-.38,.53-.65,1.21-2.64,2.43-5.28,3.62-7.94,.24-.54,.53-.67,1.12-.54,2.52,.54,4.98,1.44,7.41,2.5,7.67,3.34,15.1,7.34,22.13,12.37,1.01,.73,1.97,1.54,2.92,2.36,.49,.42,.58,.86,.47,1.38-.11,.54-.33,1.03-.55,1.51-.62,1.34-1.2,2.7-1.72,4.09-.13,.34-.07,.48,.27,.75,2.7,2.15,5.27,4.48,7.4,7.31,.62,.82,1.2,1.66,1.94,2.38,.23,.22,.42,.28,.7,.29,2.33,.04,4.41-.63,6.36-1.64,.76-.39,1.39-.21,2.07,.48,1.24,1.25,2.22,2.7,3.06,4.22,4.88,8.86,8.36,18.13,10.68,27.74,.36,1.48,.59,2.98,.63,4.46,.03,1.15-.28,1.95-1.31,2.44-2.23,1.07-4.37,2.33-6.69,3.24-.27,.1-.41,.33-.57,.54-3.93,5.16-8.16,10-12.94,14.27-6.27,5.61-13.29,10.01-21.44,12.56-.7,.22-.69,.22-1.01-.55-1.05-2.53-2.44-4.9-3.92-7.22-3.73-5.85-8.07-11.19-12.66-16.34-5.69-6.39-11.65-12.48-18-18.12-5.62-5-11.43-9.68-17.63-13.73-1.73-1.13-3.48-2.21-5.34-3-.4-.17-.4-.31-.26-.64,2.55-6.12,5.84-11.66,10-16.55,2.91-3.42,6.15-6.46,9.65-9.21,1.81-1.43,3.67-2.78,5.89-4.29h0Zm30.69,48.56c-1.82,1.29-3.43,2.81-4.61,4.77-.81,1.34-1.39,2.81-1.32,4.56,.07,1.79,.98,3.17,2.6,3.96,.88,.43,1.78,.59,2.68,.59,2.15,.02,4.06-.6,5.82-1.6,2.9-1.65,5.32-3.84,6.75-7.07,.5-1.13,.77-2.36,.57-3.72-.18-1.25-.78-2.29-1.86-3-1.13-.73-2.31-.95-3.52-.93-2.7,.06-4.99,1.06-7.11,2.43h0Zm-18.47-24.61c-2.69,1.84-5.05,5.05-6.12,8.32-.44,1.36-.7,2.78-.56,4.31,.27,3.02,2.18,4.81,4.97,4.64,1.54-.09,2.87-.7,4.08-1.52,2.88-1.95,4.87-4.74,6.17-8.13,.56-1.46,.87-3.01,.72-4.7-.1-1.2-.41-2.35-1.31-3.31-1.24-1.32-2.65-1.47-4.09-1.25s-2.69,.84-3.85,1.63h0Z"/><path class="cls-1" d="M585.32,511.69c-1.92,3.23-3.28,5.4-4.73,7.52-.18,.27-.22,.55-.22,.87,.04,2.53,.08,5.06,.1,7.59,0,.49,0,.99-.08,1.45-.2,1.04-.69,1.82-1.87,2.16-2.73,.8-5.62,1.12-8.55,1.25-9.02,.42-18.12-.06-27.32-1.75-1.33-.24-2.66-.56-3.96-.99-2.13-.69-3.43-2.11-3.82-4.14-.2-1.06-.16-2.09-.2-3.13-.04-.93-.03-.92-1.05-1.23-2.71-.83-5.37-1.82-7.88-3.24-.34-.19-.56-.2-.85-.01-1.06,.68-1.85,1.6-2.64,2.53-.17,.2-.34,.4-.53,.6-1.28,1.37-2.92,1.76-5.03,1.07-2.47-.81-4.69-2.09-6.76-3.61-8.66-6.38-16.24-13.69-22.67-21.99-.96-1.24-1.77-2.55-2.34-3.95-.76-1.86-.73-3.52,.42-5.05,1.42-1.87,2.82-3.75,4.38-5.51,.23-.26,.37-.55,.45-.9,1.48-6.67,3.39-13.18,6.1-19.39,3.78-8.66,9.15-16.22,16.5-22.41,.35-.29,.63-.51,1.3-.49,4.28,.13,8.46,1.31,12.63,2.51,10.55,3.04,20.89,6.89,31.19,10.88,6.94,2.69,13.84,5.52,20.69,8.49,5.33,2.32,10.65,4.69,15.82,7.4,.53,.28,.71,.55,.75,1.09,.29,4.74,.43,9.45-.06,14.08-.63,6.09-2.12,11.89-4.37,17.44-1.67,4.13-3.71,8.07-5.38,10.87h0Zm-3.75-.91c1.36-2.31,2.45-4.34,3.48-6.4,1.98-3.98,3.61-8.12,4.77-12.45,1.66-6.19,2.26-12.61,1.94-19.23-.02-.36-.08-.48-.51-.47-2.02,.08-4.06-.14-6.11-.42-7.34-1-14.59-2.75-21.81-4.85-8.15-2.38-16.15-5.33-24.03-8.66-6.35-2.69-12.56-5.66-18.44-9.34-2.33-1.46-4.6-3.01-6.63-4.84-.62-.56-.61-.56-1.15-.07-6.27,5.8-10.73,12.78-13.99,20.53-2.48,5.91-4.24,12.09-5.57,18.44-.06,.26-.09,.52-.28,.73-1.71,1.82-3.1,3.87-4.66,5.79-.72,.89-.66,1.74-.14,2.77,.67,1.33,1.53,2.58,2.49,3.76,6.21,7.68,13.33,14.57,21.53,20.48,1.41,1.01,2.91,1.9,4.57,2.5,.91,.33,1.56,.22,2.07-.46,1.33-1.75,2.92-3.24,5.05-4.2,.25-.11,.45-.14,.76-.04,.98,.33,1.87,.84,2.78,1.32,3.14,1.65,6.45,2.65,9.82,3.44,.43,.1,.54,.2,.56,.56,.13,1.48,.18,2.96,.2,4.43,0,.53,.02,1.06,.15,1.6,.12,.52,.4,.87,1.02,1.04,1.21,.33,2.42,.66,3.65,.88,8.51,1.53,16.93,1.97,25.3,1.69,2.65-.09,5.26-.32,7.76-.91,.59-.14,.8-.38,.78-.97-.07-2.91-.09-5.81-.13-8.72,0-.3,.03-.57,.2-.81,1.69-2.41,3.25-4.91,4.58-7.11h0Z"/><path class="cls-1" d="M581.57,510.78c-1.32,2.2-2.89,4.7-4.58,7.11-.17,.25-.21,.52-.2,.81,.04,2.91,.06,5.81,.13,8.72,.01,.59-.19,.83-.78,.97-2.51,.59-5.11,.83-7.76,.91-8.36,.27-16.79-.16-25.3-1.69-1.23-.22-2.44-.55-3.65-.88-.62-.17-.89-.53-1.02-1.04-.13-.54-.14-1.07-.15-1.6-.02-1.47-.08-2.95-.2-4.43-.03-.36-.14-.46-.56-.56-3.37-.79-6.68-1.79-9.82-3.44-.91-.48-1.8-.99-2.78-1.32-.31-.1-.5-.08-.76,.04-2.13,.96-3.72,2.46-5.05,4.2-.52,.68-1.16,.78-2.07,.46-1.66-.6-3.16-1.49-4.57-2.5-8.21-5.91-15.33-12.8-21.53-20.48-.96-1.19-1.81-2.44-2.49-3.76-.52-1.03-.59-1.88,.14-2.77,1.56-1.93,2.95-3.98,4.66-5.79,.2-.21,.23-.47,.28-.73,1.34-6.34,3.09-12.53,5.57-18.44,3.26-7.76,7.72-14.74,13.99-20.53,.54-.5,.53-.5,1.15,.07,2.03,1.84,4.3,3.38,6.63,4.84,5.87,3.68,12.09,6.65,18.44,9.34,7.88,3.34,15.88,6.28,24.03,8.66,7.22,2.11,14.47,3.85,21.81,4.85,2.05,.28,4.09,.5,6.11,.42,.43-.02,.49,.11,.51,.47,.32,6.62-.28,13.04-1.94,19.23-1.16,4.34-2.79,8.47-4.77,12.45-1.03,2.06-2.12,4.09-3.48,6.4h0Zm-48.54-30.73c1.09-1.95,1.9-4,2.12-6.29,.16-1.56,.05-3.13-.76-4.69-.83-1.58-2.25-2.44-4.05-2.46-.98-.01-1.86,.23-2.67,.61-1.95,.9-3.41,2.28-4.57,3.94-1.91,2.73-3.16,5.75-3.07,9.28,.03,1.24,.32,2.46,1.08,3.61,.7,1.06,1.69,1.73,2.97,1.91,1.33,.18,2.5-.13,3.58-.67,2.41-1.21,4.05-3.09,5.38-5.24h0Zm27.24,14.32c1.64-2.82,2.4-6.72,1.97-10.14-.18-1.42-.56-2.81-1.34-4.14-1.53-2.61-4.03-3.41-6.48-2.06-1.35,.75-2.29,1.86-3.04,3.12-1.76,3-2.37,6.37-2.1,9.99,.12,1.56,.5,3.09,1.36,4.56,.61,1.04,1.38,1.95,2.6,2.43,1.68,.66,3.03,.19,4.23-.62s2.07-1.91,2.78-3.13h0Z"/><path class="cls-1" d="M189.32,581.69c-1.92,3.23-3.28,5.4-4.73,7.52-.18,.27-.22,.55-.22,.87,.04,2.53,.08,5.06,.1,7.59,0,.49,0,.99-.08,1.45-.2,1.04-.69,1.82-1.87,2.16-2.73,.8-5.62,1.12-8.55,1.25-9.02,.42-18.12-.06-27.32-1.75-1.33-.24-2.66-.56-3.96-.99-2.13-.69-3.43-2.11-3.82-4.14-.2-1.06-.16-2.09-.2-3.13-.04-.93-.03-.92-1.05-1.23-2.71-.83-5.37-1.82-7.88-3.24-.34-.19-.56-.2-.85-.01-1.06,.68-1.85,1.6-2.64,2.53-.17,.2-.34,.4-.53,.6-1.28,1.37-2.92,1.76-5.03,1.07-2.47-.81-4.69-2.09-6.76-3.61-8.66-6.38-16.24-13.69-22.67-21.99-.96-1.24-1.77-2.55-2.34-3.95-.76-1.86-.73-3.52,.42-5.05,1.42-1.87,2.82-3.75,4.38-5.51,.23-.26,.37-.55,.45-.9,1.48-6.67,3.39-13.18,6.1-19.39,3.78-8.66,9.15-16.22,16.5-22.41,.35-.29,.63-.51,1.3-.49,4.28,.13,8.46,1.31,12.63,2.51,10.55,3.04,20.89,6.89,31.19,10.88,6.94,2.69,13.84,5.52,20.69,8.49,5.33,2.32,10.65,4.69,15.82,7.4,.53,.28,.71,.55,.75,1.09,.29,4.74,.43,9.45-.06,14.08-.63,6.09-2.12,11.89-4.37,17.44-1.67,4.13-3.71,8.07-5.38,10.87h0Zm-3.75-.91c1.36-2.31,2.45-4.34,3.48-6.4,1.98-3.98,3.61-8.12,4.77-12.45,1.66-6.19,2.26-12.61,1.94-19.23-.02-.36-.08-.48-.51-.47-2.02,.08-4.06-.14-6.11-.42-7.34-1-14.59-2.75-21.81-4.85-8.15-2.38-16.15-5.33-24.03-8.66-6.35-2.69-12.56-5.66-18.44-9.34-2.33-1.46-4.6-3.01-6.63-4.84-.62-.56-.61-.56-1.15-.07-6.27,5.8-10.73,12.78-13.99,20.53-2.48,5.91-4.24,12.09-5.57,18.44-.06,.26-.09,.52-.28,.73-1.71,1.82-3.1,3.87-4.66,5.79-.72,.89-.66,1.74-.14,2.77,.67,1.33,1.53,2.58,2.49,3.76,6.21,7.68,13.33,14.57,21.53,20.48,1.41,1.01,2.91,1.9,4.57,2.5,.91,.33,1.56,.22,2.07-.46,1.33-1.75,2.92-3.24,5.05-4.2,.25-.11,.45-.14,.76-.04,.98,.33,1.87,.84,2.78,1.32,3.14,1.65,6.45,2.65,9.82,3.44,.43,.1,.54,.2,.56,.56,.13,1.48,.18,2.96,.2,4.43,0,.53,.02,1.06,.15,1.6,.12,.52,.4,.87,1.02,1.04,1.21,.33,2.42,.66,3.65,.88,8.51,1.53,16.93,1.97,25.3,1.69,2.65-.09,5.26-.32,7.76-.91,.59-.14,.8-.38,.78-.97-.07-2.91-.09-5.81-.13-8.72,0-.3,.03-.57,.2-.81,1.69-2.41,3.25-4.91,4.58-7.11h0Z"/><path class="cls-1" d="M185.57,580.78c-1.32,2.2-2.89,4.7-4.58,7.11-.17,.25-.21,.52-.2,.81,.04,2.91,.06,5.81,.13,8.72,.01,.59-.19,.83-.78,.97-2.51,.59-5.11,.83-7.76,.91-8.36,.27-16.79-.16-25.3-1.69-1.23-.22-2.44-.55-3.65-.88-.62-.17-.89-.53-1.02-1.04-.13-.54-.14-1.07-.15-1.6-.02-1.47-.08-2.95-.2-4.43-.03-.36-.14-.46-.56-.56-3.37-.79-6.68-1.79-9.82-3.44-.91-.48-1.8-.99-2.78-1.32-.31-.1-.5-.08-.76,.04-2.13,.96-3.72,2.46-5.05,4.2-.52,.68-1.16,.78-2.07,.46-1.66-.6-3.16-1.49-4.57-2.5-8.21-5.91-15.33-12.8-21.53-20.48-.96-1.19-1.81-2.44-2.49-3.76-.52-1.03-.59-1.88,.14-2.77,1.56-1.93,2.95-3.98,4.66-5.79,.2-.21,.23-.47,.28-.73,1.34-6.34,3.09-12.53,5.57-18.44,3.26-7.76,7.72-14.74,13.99-20.53,.54-.5,.53-.5,1.15,.07,2.03,1.84,4.3,3.38,6.63,4.84,5.87,3.68,12.09,6.65,18.44,9.34,7.88,3.34,15.88,6.28,24.03,8.66,7.22,2.11,14.47,3.85,21.81,4.85,2.05,.28,4.09,.5,6.11,.42,.43-.02,.49,.11,.51,.47,.32,6.62-.28,13.04-1.94,19.23-1.16,4.34-2.79,8.47-4.77,12.45-1.03,2.06-2.12,4.09-3.48,6.4h0Zm-48.54-30.73c1.09-1.95,1.9-4,2.12-6.29,.16-1.56,.05-3.13-.76-4.69-.83-1.58-2.25-2.44-4.05-2.46-.98-.01-1.86,.23-2.67,.61-1.95,.9-3.41,2.28-4.57,3.94-1.91,2.73-3.16,5.75-3.07,9.28,.03,1.24,.32,2.46,1.08,3.61,.7,1.06,1.69,1.73,2.97,1.91,1.33,.18,2.5-.13,3.58-.67,2.41-1.21,4.05-3.09,5.38-5.24h0Zm27.24,14.32c1.64-2.82,2.4-6.72,1.97-10.14-.18-1.42-.56-2.81-1.34-4.14-1.53-2.61-4.03-3.41-6.48-2.06-1.35,.75-2.29,1.86-3.04,3.12-1.76,3-2.37,6.37-2.1,9.99,.12,1.56,.5,3.09,1.36,4.56,.61,1.04,1.38,1.95,2.6,2.43,1.68,.66,3.03,.19,4.23-.62s2.07-1.91,2.78-3.13h0Z"/><path class="cls-1" d="M404.89,539.3c2.6,2.7,4.34,4.59,6,6.55,.21,.25,.48,.36,.78,.44,2.45,.63,4.9,1.26,7.35,1.91,.47,.12,.95,.26,1.38,.47,.95,.46,1.57,1.14,1.59,2.37,.05,2.85-.41,5.71-1.05,8.58-1.98,8.81-4.85,17.46-8.91,25.89-.59,1.22-1.25,2.41-2,3.56-1.23,1.88-2.94,2.75-5,2.59-1.07-.09-2.06-.4-3.08-.63-.9-.21-.89-.22-1.46,.69-1.51,2.4-3.18,4.7-5.21,6.74-.28,.28-.34,.49-.24,.82,.37,1.21,1.05,2.21,1.74,3.21,.15,.22,.3,.44,.44,.66,.98,1.59,.92,3.29-.3,5.14-1.43,2.16-3.25,3.97-5.27,5.56-8.44,6.66-17.5,12.04-27.2,16.05-1.45,.6-2.93,1.03-4.43,1.21-2,.24-3.59-.23-4.76-1.74-1.43-1.86-2.87-3.71-4.16-5.68-.19-.29-.43-.5-.75-.67-6.05-3.19-11.82-6.75-17.09-11.01-7.35-5.94-13.22-13.11-17.25-21.84-.19-.41-.32-.74-.12-1.38,1.26-4.09,3.5-7.81,5.76-11.51,5.72-9.37,12.17-18.32,18.74-27.2,4.43-5.98,8.98-11.89,13.66-17.71,3.64-4.53,7.33-9.03,11.32-13.29,.41-.44,.72-.54,1.24-.43,4.65,.97,9.23,2.09,13.57,3.78,5.71,2.22,10.91,5.19,15.67,8.83,3.54,2.71,6.8,5.71,9.06,8.06h0Zm-1.87,3.38c-1.87-1.92-3.53-3.51-5.25-5.05-3.32-2.96-6.87-5.62-10.75-7.89-5.53-3.24-11.57-5.51-18.04-6.96-.35-.08-.48-.05-.58,.37-.46,1.97-1.21,3.88-2.02,5.78-2.9,6.81-6.51,13.35-10.45,19.75-4.45,7.23-9.41,14.16-14.71,20.88-4.27,5.41-8.78,10.62-13.88,15.31-2.03,1.86-4.11,3.64-6.42,5.12-.71,.45-.71,.44-.37,1.09,3.93,7.58,9.49,13.73,16.1,18.92,5.04,3.96,10.54,7.28,16.31,10.25,.24,.12,.48,.22,.63,.47,1.3,2.13,2.91,4.02,4.35,6.03,.67,.93,1.5,1.1,2.64,.87,1.46-.3,2.89-.79,4.29-1.4,9.05-3.96,17.58-9,25.45-15.35,1.35-1.09,2.61-2.31,3.62-3.75,.56-.79,.63-1.44,.11-2.12-1.33-1.74-2.36-3.67-2.72-5.98-.04-.27-.02-.47,.16-.74,.58-.85,1.3-1.58,2-2.33,2.42-2.59,4.26-5.52,5.91-8.56,.21-.38,.34-.46,.69-.4,1.46,.27,2.9,.61,4.33,.98,.51,.13,1.03,.26,1.58,.28,.53,.02,.95-.15,1.27-.7,.64-1.08,1.28-2.16,1.82-3.29,3.73-7.8,6.37-15.81,8.32-23.95,.62-2.58,1.08-5.16,1.17-7.73,.02-.6-.16-.87-.73-1.01-2.83-.7-5.63-1.45-8.45-2.18-.29-.08-.54-.18-.73-.41-1.88-2.27-3.88-4.44-5.65-6.29h0Z"/><path class="cls-1" d="M403.02,542.68c1.77,1.86,3.77,4.03,5.65,6.29,.19,.23,.44,.33,.73,.41,2.81,.73,5.62,1.48,8.45,2.18,.57,.14,.75,.41,.73,1.01-.09,2.57-.56,5.15-1.17,7.73-1.95,8.14-4.59,16.15-8.32,23.95-.54,1.12-1.18,2.2-1.82,3.29-.33,.55-.74,.72-1.27,.7-.55-.02-1.07-.15-1.58-.28-1.43-.37-2.86-.71-4.33-.98-.35-.07-.48,.01-.69,.4-1.65,3.04-3.49,5.97-5.91,8.56-.7,.75-1.43,1.48-2,2.33-.18,.27-.21,.47-.16,.74,.37,2.31,1.39,4.23,2.72,5.98,.52,.68,.45,1.33-.11,2.12-1.01,1.44-2.27,2.66-3.62,3.75-7.87,6.35-16.4,11.4-25.45,15.35-1.4,.61-2.83,1.1-4.29,1.4-1.13,.23-1.97,.07-2.64-.87-1.45-2.01-3.06-3.9-4.35-6.03-.15-.24-.39-.35-.63-.47-5.76-2.97-11.27-6.29-16.31-10.25-6.62-5.2-12.17-11.35-16.1-18.92-.34-.65-.34-.64,.37-1.09,2.31-1.47,4.4-3.25,6.42-5.12,5.11-4.69,9.61-9.9,13.88-15.31,5.3-6.72,10.26-13.65,14.71-20.88,3.94-6.4,7.54-12.94,10.45-19.75,.81-1.9,1.57-3.81,2.02-5.78,.1-.42,.23-.44,.58-.37,6.47,1.44,12.5,3.72,18.04,6.96,3.88,2.27,7.43,4.93,10.75,7.89,1.72,1.54,3.38,3.13,5.25,5.05h0Zm-42.47,38.68c-1.59-1.57-3.36-2.89-5.5-3.71-1.46-.56-3.01-.88-4.72-.51-1.75,.38-2.95,1.52-3.44,3.25-.27,.94-.27,1.85-.12,2.74,.36,2.12,1.3,3.9,2.59,5.45,2.13,2.57,4.71,4.57,8.14,5.42,1.2,.3,2.46,.34,3.77-.09,1.2-.4,2.12-1.17,2.62-2.36,.52-1.24,.54-2.45,.3-3.63-.53-2.64-1.91-4.73-3.63-6.58h0Zm21.01-22.48c-2.28-2.33-5.85-4.1-9.26-4.58-1.41-.2-2.85-.21-4.35,.2-2.92,.79-4.35,2.98-3.7,5.7,.36,1.5,1.19,2.71,2.21,3.75,2.43,2.49,5.51,3.97,9.08,4.66,1.53,.3,3.11,.33,4.75-.11,1.16-.31,2.24-.82,3.03-1.87,1.08-1.45,.98-2.87,.52-4.25s-1.3-2.5-2.28-3.51h0Z"/><path class="cls-1" d="M237.04,162.85c2.6,2.7,4.34,4.59,6,6.55,.21,.25,.48,.36,.78,.44,2.45,.63,4.9,1.26,7.35,1.91,.47,.12,.95,.26,1.38,.47,.95,.46,1.57,1.14,1.59,2.37,.05,2.85-.41,5.71-1.05,8.58-1.98,8.81-4.85,17.46-8.91,25.89-.59,1.22-1.25,2.41-2,3.56-1.23,1.88-2.94,2.75-5,2.59-1.07-.09-2.06-.4-3.08-.63-.9-.21-.89-.22-1.46,.69-1.51,2.4-3.18,4.7-5.21,6.74-.28,.28-.34,.49-.24,.82,.37,1.21,1.05,2.21,1.74,3.21,.15,.22,.3,.44,.44,.66,.98,1.59,.92,3.29-.3,5.14-1.43,2.16-3.25,3.97-5.27,5.56-8.44,6.66-17.5,12.04-27.2,16.05-1.45,.6-2.93,1.03-4.43,1.21-2,.24-3.59-.23-4.76-1.74-1.43-1.86-2.87-3.71-4.16-5.68-.19-.29-.43-.5-.75-.67-6.05-3.19-11.82-6.75-17.09-11.01-7.35-5.94-13.22-13.11-17.25-21.84-.19-.41-.32-.74-.12-1.38,1.26-4.09,3.5-7.81,5.76-11.51,5.72-9.37,12.17-18.32,18.74-27.2,4.43-5.98,8.98-11.89,13.66-17.71,3.64-4.53,7.33-9.03,11.32-13.29,.41-.44,.72-.54,1.24-.43,4.65,.97,9.23,2.09,13.57,3.78,5.71,2.22,10.91,5.19,15.67,8.83,3.54,2.71,6.8,5.71,9.06,8.06h0Zm-1.87,3.38c-1.87-1.92-3.53-3.51-5.25-5.05-3.32-2.96-6.87-5.62-10.75-7.89-5.53-3.24-11.57-5.51-18.04-6.96-.35-.08-.48-.05-.58,.37-.46,1.97-1.21,3.88-2.02,5.78-2.9,6.81-6.51,13.35-10.45,19.75-4.45,7.23-9.41,14.16-14.71,20.88-4.27,5.41-8.78,10.62-13.88,15.31-2.03,1.86-4.11,3.64-6.42,5.12-.71,.45-.71,.44-.37,1.09,3.93,7.58,9.49,13.73,16.1,18.92,5.04,3.96,10.54,7.28,16.31,10.25,.24,.12,.48,.22,.63,.47,1.3,2.13,2.91,4.02,4.35,6.03,.67,.93,1.5,1.1,2.64,.87,1.46-.3,2.89-.79,4.29-1.4,9.05-3.96,17.58-9,25.45-15.35,1.35-1.09,2.61-2.31,3.62-3.75,.56-.79,.63-1.44,.11-2.12-1.33-1.74-2.36-3.67-2.72-5.98-.04-.27-.02-.47,.16-.74,.58-.85,1.3-1.58,2-2.33,2.42-2.59,4.26-5.52,5.91-8.56,.21-.38,.34-.46,.69-.4,1.46,.27,2.9,.61,4.33,.98,.51,.13,1.03,.26,1.58,.28,.53,.02,.95-.15,1.27-.7,.64-1.08,1.28-2.16,1.82-3.29,3.73-7.8,6.37-15.81,8.32-23.95,.62-2.58,1.08-5.16,1.17-7.73,.02-.6-.16-.87-.73-1.01-2.83-.7-5.63-1.45-8.45-2.18-.29-.08-.54-.18-.73-.41-1.88-2.27-3.88-4.44-5.65-6.29h0Z"/><path class="cls-1" d="M235.17,166.23c1.77,1.86,3.77,4.03,5.65,6.29,.19,.23,.44,.33,.73,.41,2.81,.73,5.62,1.48,8.45,2.18,.57,.14,.75,.41,.73,1.01-.09,2.57-.56,5.15-1.17,7.73-1.95,8.14-4.59,16.15-8.32,23.95-.54,1.12-1.18,2.2-1.82,3.29-.33,.55-.74,.72-1.27,.7-.55-.02-1.07-.15-1.58-.28-1.43-.37-2.86-.71-4.33-.98-.35-.07-.48,.01-.69,.4-1.65,3.04-3.49,5.97-5.91,8.56-.7,.75-1.43,1.48-2,2.33-.18,.27-.21,.47-.16,.74,.37,2.31,1.39,4.23,2.72,5.98,.52,.68,.45,1.33-.11,2.12-1.01,1.44-2.27,2.66-3.62,3.75-7.87,6.35-16.4,11.4-25.45,15.35-1.4,.61-2.83,1.1-4.29,1.4-1.13,.23-1.97,.07-2.64-.87-1.45-2.01-3.06-3.9-4.35-6.03-.15-.24-.39-.35-.63-.47-5.76-2.97-11.27-6.29-16.31-10.25-6.62-5.2-12.17-11.35-16.1-18.92-.34-.65-.34-.64,.37-1.09,2.31-1.47,4.4-3.25,6.42-5.12,5.11-4.69,9.61-9.9,13.88-15.31,5.3-6.72,10.26-13.65,14.71-20.88,3.94-6.4,7.54-12.94,10.45-19.75,.81-1.9,1.57-3.81,2.02-5.78,.1-.42,.23-.44,.58-.37,6.47,1.44,12.5,3.72,18.04,6.96,3.88,2.27,7.43,4.93,10.75,7.89,1.72,1.54,3.38,3.13,5.25,5.05h0Zm-42.47,38.68c-1.59-1.57-3.36-2.89-5.5-3.71-1.46-.56-3.01-.88-4.72-.51-1.75,.38-2.95,1.52-3.44,3.25-.27,.94-.27,1.85-.12,2.74,.36,2.12,1.3,3.9,2.59,5.45,2.13,2.57,4.71,4.57,8.14,5.42,1.2,.3,2.46,.34,3.77-.09,1.2-.4,2.12-1.17,2.62-2.36,.52-1.24,.54-2.45,.3-3.63-.53-2.64-1.91-4.73-3.63-6.58h0Zm21.01-22.48c-2.28-2.33-5.85-4.1-9.26-4.58-1.41-.2-2.85-.21-4.35,.2-2.92,.79-4.35,2.98-3.7,5.7,.36,1.5,1.19,2.71,2.21,3.75,2.43,2.49,5.51,3.97,9.08,4.66,1.53,.3,3.11,.33,4.75-.11,1.16-.31,2.24-.82,3.03-1.87,1.08-1.45,.98-2.87,.52-4.25s-1.3-2.5-2.28-3.51h0Z"/><path class="cls-1" d="M223.14,414.14c3.11-2.09,5.28-3.47,7.5-4.77,.28-.16,.44-.41,.57-.69,1.05-2.3,2.1-4.61,3.16-6.91,.21-.44,.42-.89,.7-1.28,.62-.85,1.4-1.35,2.61-1.15,2.81,.45,5.55,1.4,8.26,2.53,8.33,3.49,16.35,7.82,23.94,13.29,1.1,.79,2.16,1.65,3.16,2.59,1.63,1.54,2.19,3.37,1.67,5.38-.27,1.04-.75,1.96-1.16,2.92-.36,.85-.37,.84,.42,1.56,2.1,1.91,4.07,3.95,5.73,6.31,.22,.32,.42,.42,.76,.38,1.25-.16,2.36-.65,3.46-1.15,.24-.11,.48-.22,.73-.32,1.74-.69,3.4-.34,5.01,1.19,1.88,1.78,3.34,3.9,4.56,6.16,5.09,9.47,8.81,19.33,11.07,29.58,.34,1.53,.51,3.06,.42,4.58-.11,2.01-.85,3.5-2.54,4.38-2.08,1.08-4.15,2.18-6.32,3.1-.32,.14-.57,.34-.79,.62-4.2,5.4-8.71,10.46-13.82,14.9-7.13,6.2-15.22,10.74-24.51,13.18-.44,.12-.78,.19-1.38-.12-3.81-1.95-7.08-4.81-10.33-7.68-8.23-7.27-15.92-15.18-23.52-23.2-5.12-5.41-10.14-10.91-15.05-16.53-3.83-4.38-7.61-8.8-11.12-13.47-.36-.48-.41-.8-.21-1.3,1.77-4.41,3.66-8.72,6.08-12.7,3.18-5.23,7.02-9.84,11.42-13.89,3.28-3.02,6.81-5.7,9.52-7.51h0Zm3,2.43c-2.22,1.51-4.08,2.87-5.89,4.29-3.49,2.75-6.74,5.79-9.65,9.21-4.15,4.88-7.45,10.43-10,16.55-.14,.33-.14,.47,.26,.64,1.86,.79,3.61,1.87,5.34,3,6.2,4.05,12.01,8.73,17.63,13.73,6.34,5.64,12.31,11.73,18,18.12,4.58,5.15,8.93,10.49,12.66,16.34,1.48,2.32,2.87,4.69,3.92,7.22,.32,.78,.31,.77,1.01,.55,8.15-2.55,15.17-6.95,21.44-12.56,4.78-4.27,9.01-9.11,12.94-14.27,.16-.21,.3-.43,.57-.54,2.32-.91,4.46-2.16,6.69-3.24,1.04-.5,1.35-1.29,1.31-2.44-.04-1.49-.28-2.98-.63-4.46-2.32-9.6-5.8-18.88-10.68-27.74-.84-1.52-1.82-2.97-3.06-4.22-.68-.69-1.31-.87-2.07-.48-1.95,1.01-4.03,1.68-6.36,1.64-.27,0-.47-.07-.7-.29-.74-.72-1.33-1.56-1.94-2.38-2.13-2.84-4.69-5.16-7.4-7.31-.34-.27-.4-.41-.27-.75,.52-1.39,1.1-2.75,1.72-4.09,.22-.48,.44-.97,.55-1.51,.11-.52,.02-.96-.47-1.38-.95-.82-1.91-1.64-2.92-2.36-7.03-5.03-14.46-9.03-22.13-12.37-2.43-1.06-4.89-1.96-7.41-2.5-.59-.13-.88,0-1.12,.54-1.18,2.66-2.41,5.29-3.62,7.94-.12,.27-.27,.5-.53,.65-2.56,1.46-5.04,3.04-7.18,4.46h0Z"/><path class="cls-1" d="M226.14,416.57c2.14-1.42,4.62-3.01,7.18-4.46,.26-.15,.41-.38,.53-.65,1.21-2.64,2.43-5.28,3.62-7.94,.24-.54,.53-.67,1.12-.54,2.52,.54,4.98,1.44,7.41,2.5,7.67,3.34,15.1,7.34,22.13,12.37,1.01,.73,1.97,1.54,2.92,2.36,.49,.42,.58,.86,.47,1.38-.11,.54-.33,1.03-.55,1.51-.62,1.34-1.2,2.7-1.72,4.09-.13,.34-.07,.48,.27,.75,2.7,2.15,5.27,4.48,7.4,7.31,.62,.82,1.2,1.66,1.94,2.38,.23,.22,.42,.28,.7,.29,2.33,.04,4.41-.63,6.36-1.64,.76-.39,1.39-.21,2.07,.48,1.24,1.25,2.22,2.7,3.06,4.22,4.88,8.86,8.36,18.13,10.68,27.74,.36,1.48,.59,2.98,.63,4.46,.03,1.15-.28,1.95-1.31,2.44-2.23,1.07-4.37,2.33-6.69,3.24-.27,.1-.41,.33-.57,.54-3.93,5.16-8.16,10-12.94,14.27-6.27,5.61-13.29,10.01-21.44,12.56-.7,.22-.69,.22-1.01-.55-1.05-2.53-2.44-4.9-3.92-7.22-3.73-5.85-8.07-11.19-12.66-16.34-5.69-6.39-11.65-12.48-18-18.12-5.62-5-11.43-9.68-17.63-13.73-1.73-1.13-3.48-2.21-5.34-3-.4-.17-.4-.31-.26-.64,2.55-6.12,5.84-11.66,10-16.55,2.91-3.42,6.15-6.46,9.65-9.21,1.81-1.43,3.67-2.78,5.89-4.29h0Zm30.69,48.56c-1.82,1.29-3.43,2.81-4.61,4.77-.81,1.34-1.39,2.81-1.32,4.56,.07,1.79,.98,3.17,2.6,3.96,.88,.43,1.78,.59,2.68,.59,2.15,.02,4.06-.6,5.82-1.6,2.9-1.65,5.32-3.84,6.75-7.07,.5-1.13,.77-2.36,.57-3.72-.18-1.25-.78-2.29-1.86-3-1.13-.73-2.31-.95-3.52-.93-2.7,.06-4.99,1.06-7.11,2.43h0Zm-18.47-24.61c-2.69,1.84-5.05,5.05-6.12,8.32-.44,1.36-.7,2.78-.56,4.31,.27,3.02,2.18,4.81,4.97,4.64,1.54-.09,2.87-.7,4.08-1.52,2.88-1.95,4.87-4.74,6.17-8.13,.56-1.46,.87-3.01,.72-4.7-.1-1.2-.41-2.35-1.31-3.31-1.24-1.32-2.65-1.47-4.09-1.25s-2.69,.84-3.85,1.63h0Z"/><path class="cls-1" d="M543.89,49.3c2.6,2.7,4.34,4.59,6,6.55,.21,.25,.48,.36,.78,.44,2.45,.63,4.9,1.26,7.35,1.91,.47,.12,.95,.26,1.38,.47,.95,.46,1.57,1.14,1.59,2.37,.05,2.85-.41,5.71-1.05,8.58-1.98,8.81-4.85,17.46-8.91,25.89-.59,1.22-1.25,2.41-2,3.56-1.23,1.88-2.94,2.75-5,2.59-1.07-.09-2.06-.4-3.08-.63-.9-.21-.89-.22-1.46,.69-1.51,2.4-3.18,4.7-5.21,6.74-.28,.28-.34,.49-.24,.82,.37,1.21,1.05,2.21,1.74,3.21,.15,.22,.3,.44,.44,.66,.98,1.59,.92,3.29-.3,5.14-1.43,2.16-3.25,3.97-5.27,5.56-8.44,6.66-17.5,12.04-27.2,16.05-1.45,.6-2.93,1.03-4.43,1.21-2,.24-3.59-.23-4.76-1.74-1.43-1.86-2.87-3.71-4.16-5.68-.19-.29-.43-.5-.75-.67-6.05-3.19-11.82-6.75-17.09-11.01-7.35-5.94-13.22-13.11-17.25-21.84-.19-.41-.32-.74-.12-1.38,1.26-4.09,3.5-7.81,5.76-11.51,5.72-9.37,12.17-18.32,18.74-27.2,4.43-5.98,8.98-11.89,13.66-17.71,3.64-4.53,7.33-9.03,11.32-13.29,.41-.44,.72-.54,1.24-.43,4.65,.97,9.23,2.09,13.57,3.78,5.71,2.22,10.91,5.19,15.67,8.83,3.54,2.71,6.8,5.71,9.06,8.06h0Zm-1.87,3.38c-1.87-1.92-3.53-3.51-5.25-5.05-3.32-2.96-6.87-5.62-10.75-7.89-5.53-3.24-11.57-5.51-18.04-6.96-.35-.08-.48-.05-.58,.37-.46,1.97-1.21,3.88-2.02,5.78-2.9,6.81-6.51,13.35-10.45,19.75-4.45,7.23-9.41,14.16-14.71,20.88-4.27,5.41-8.78,10.62-13.88,15.31-2.03,1.86-4.11,3.64-6.42,5.12-.71,.45-.71,.44-.37,1.09,3.93,7.58,9.49,13.73,16.1,18.92,5.04,3.96,10.54,7.28,16.31,10.25,.24,.12,.48,.22,.63,.47,1.3,2.13,2.91,4.02,4.35,6.03,.67,.93,1.5,1.1,2.64,.87,1.46-.3,2.89-.79,4.29-1.4,9.05-3.96,17.58-9,25.45-15.35,1.35-1.09,2.61-2.31,3.62-3.75,.56-.79,.63-1.44,.11-2.12-1.33-1.74-2.36-3.67-2.72-5.98-.04-.27-.02-.47,.16-.74,.58-.85,1.3-1.58,2-2.33,2.42-2.59,4.26-5.52,5.91-8.56,.21-.38,.34-.46,.69-.4,1.46,.27,2.9,.61,4.33,.98,.51,.13,1.03,.26,1.58,.28,.53,.02,.95-.15,1.27-.7,.64-1.08,1.28-2.16,1.82-3.29,3.73-7.8,6.37-15.81,8.32-23.95,.62-2.58,1.08-5.16,1.17-7.73,.02-.6-.16-.87-.73-1.01-2.83-.7-5.63-1.45-8.45-2.18-.29-.08-.54-.18-.73-.41-1.88-2.27-3.88-4.44-5.65-6.29h0Z"/><path class="cls-1" d="M542.02,52.68c1.77,1.86,3.77,4.03,5.65,6.29,.19,.23,.44,.33,.73,.41,2.81,.73,5.62,1.48,8.45,2.18,.57,.14,.75,.41,.73,1.01-.09,2.57-.56,5.15-1.17,7.73-1.95,8.14-4.59,16.15-8.32,23.95-.54,1.12-1.18,2.2-1.82,3.29-.33,.55-.74,.72-1.27,.7-.55-.02-1.07-.15-1.58-.28-1.43-.37-2.86-.71-4.33-.98-.35-.07-.48,.01-.69,.4-1.65,3.04-3.49,5.97-5.91,8.56-.7,.75-1.43,1.48-2,2.33-.18,.27-.21,.47-.16,.74,.37,2.31,1.39,4.23,2.72,5.98,.52,.68,.45,1.33-.11,2.12-1.01,1.44-2.27,2.66-3.62,3.75-7.87,6.35-16.4,11.4-25.45,15.35-1.4,.61-2.83,1.1-4.29,1.4-1.13,.23-1.97,.07-2.64-.87-1.45-2.01-3.06-3.9-4.35-6.03-.15-.24-.39-.35-.63-.47-5.76-2.97-11.27-6.29-16.31-10.25-6.62-5.2-12.17-11.35-16.1-18.92-.34-.65-.34-.64,.37-1.09,2.31-1.47,4.4-3.25,6.42-5.12,5.11-4.69,9.61-9.9,13.88-15.31,5.3-6.72,10.26-13.65,14.71-20.88,3.94-6.4,7.54-12.94,10.45-19.75,.81-1.9,1.57-3.81,2.02-5.78,.1-.42,.23-.44,.58-.37,6.47,1.44,12.5,3.72,18.04,6.96,3.88,2.27,7.43,4.93,10.75,7.89,1.72,1.54,3.38,3.13,5.25,5.05h0Zm-42.47,38.68c-1.59-1.57-3.36-2.89-5.5-3.71-1.46-.56-3.01-.88-4.72-.51-1.75,.38-2.95,1.52-3.44,3.25-.27,.94-.27,1.85-.12,2.74,.36,2.12,1.3,3.9,2.59,5.45,2.13,2.57,4.71,4.57,8.14,5.42,1.2,.3,2.46,.34,3.77-.09,1.2-.4,2.12-1.17,2.62-2.36,.52-1.24,.54-2.45,.3-3.63-.53-2.64-1.91-4.73-3.63-6.58h0Zm21.01-22.48c-2.28-2.33-5.85-4.1-9.26-4.58-1.41-.2-2.85-.21-4.35,.2-2.92,.79-4.35,2.98-3.7,5.7,.36,1.5,1.19,2.71,2.21,3.75,2.43,2.49,5.51,3.97,9.08,4.66,1.53,.3,3.11,.33,4.75-.11,1.16-.31,2.24-.82,3.03-1.87,1.08-1.45,.98-2.87,.52-4.25s-1.3-2.5-2.28-3.51h0Z"/><path class="cls-1" d="M549.76,209.19c-2.61-2.69-4.36-4.58-6.02-6.53-.21-.25-.48-.36-.78-.44-2.45-.63-4.91-1.25-7.36-1.88-.47-.12-.95-.25-1.38-.46-.95-.46-1.57-1.14-1.6-2.37-.06-2.85,.39-5.71,1.03-8.58,1.96-8.82,4.8-17.48,8.83-25.91,.58-1.22,1.24-2.42,1.99-3.57,1.23-1.88,2.93-2.76,5-2.6,1.07,.08,2.06,.39,3.08,.62,.9,.21,.89,.21,1.46-.69,1.51-2.4,3.16-4.71,5.19-6.75,.27-.28,.34-.49,.24-.82-.38-1.21-1.06-2.2-1.75-3.2-.15-.22-.3-.44-.44-.66-.98-1.59-.93-3.28,.28-5.14,1.42-2.17,3.24-3.98,5.25-5.58,8.42-6.69,17.46-12.1,27.15-16.14,1.45-.6,2.93-1.04,4.43-1.23,2-.25,3.59,.22,4.76,1.73,1.44,1.86,2.88,3.7,4.17,5.67,.19,.29,.43,.5,.75,.67,6.06,3.17,11.84,6.71,17.12,10.95,7.37,5.92,13.27,13.07,17.32,21.78,.19,.41,.33,.74,.13,1.38-1.25,4.09-3.47,7.82-5.72,11.53-5.69,9.39-12.11,18.36-18.66,27.26-4.41,6-8.94,11.92-13.6,17.75-3.63,4.54-7.31,9.05-11.28,13.33-.41,.44-.72,.54-1.24,.44-4.65-.96-9.23-2.06-13.58-3.73-5.71-2.2-10.92-5.16-15.69-8.78-3.55-2.69-6.82-5.69-9.08-8.03h0Zm1.86-3.38c1.88,1.91,3.55,3.5,5.27,5.03,3.33,2.95,6.89,5.6,10.77,7.86,5.54,3.22,11.58,5.48,18.06,6.9,.35,.08,.48,.05,.58-.37,.45-1.97,1.2-3.88,2-5.78,2.88-6.82,6.46-13.37,10.39-19.78,4.43-7.25,9.36-14.19,14.64-20.93,4.25-5.42,8.74-10.65,13.83-15.36,2.02-1.87,4.1-3.66,6.41-5.14,.71-.46,.71-.44,.36-1.09-3.96-7.57-9.53-13.7-16.16-18.87-5.05-3.94-10.57-7.25-16.34-10.2-.24-.12-.48-.22-.63-.46-1.3-2.13-2.92-4.01-4.37-6.01-.67-.93-1.51-1.1-2.64-.86-1.46,.3-2.88,.8-4.28,1.42-9.04,3.99-17.55,9.05-25.4,15.43-1.34,1.09-2.6,2.31-3.61,3.76-.56,.8-.62,1.45-.1,2.12,1.34,1.74,2.37,3.66,2.74,5.97,.04,.27,.02,.47-.16,.74-.57,.86-1.3,1.59-2,2.34-2.41,2.6-4.24,5.54-5.88,8.58-.21,.38-.34,.46-.69,.4-1.46-.27-2.9-.6-4.33-.96-.51-.13-1.03-.26-1.58-.27-.53-.02-.95,.15-1.27,.71-.64,1.08-1.27,2.17-1.81,3.29-3.7,7.82-6.32,15.83-8.25,23.98-.61,2.58-1.06,5.16-1.15,7.73-.02,.6,.16,.87,.74,1.01,2.83,.69,5.64,1.43,8.45,2.15,.29,.07,.54,.18,.73,.41,1.89,2.26,3.89,4.42,5.67,6.28h0Z"/><path class="cls-1" d="M551.61,205.81c-1.78-1.85-3.78-4.01-5.67-6.28-.19-.23-.44-.33-.73-.41-2.82-.72-5.62-1.46-8.45-2.15-.57-.14-.75-.41-.74-1.01,.08-2.57,.54-5.15,1.15-7.73,1.92-8.15,4.54-16.16,8.25-23.98,.53-1.13,1.17-2.21,1.81-3.29,.33-.55,.74-.72,1.27-.71,.55,.02,1.07,.14,1.58,.27,1.43,.37,2.87,.7,4.33,.96,.35,.06,.48-.02,.69-.4,1.64-3.04,3.47-5.98,5.88-8.58,.7-.75,1.42-1.48,2-2.34,.18-.27,.2-.47,.16-.74-.37-2.31-1.4-4.23-2.74-5.97-.52-.68-.45-1.33,.1-2.12,1.01-1.44,2.26-2.66,3.61-3.76,7.85-6.38,16.36-11.45,25.4-15.43,1.4-.62,2.82-1.11,4.28-1.42,1.13-.24,1.97-.07,2.64,.86,1.45,2.01,3.07,3.89,4.37,6.01,.15,.24,.39,.35,.63,.46,5.77,2.95,11.29,6.26,16.34,10.2,6.63,5.18,12.21,11.31,16.16,18.87,.34,.65,.34,.64-.36,1.09-2.31,1.48-4.39,3.27-6.41,5.14-5.09,4.71-9.58,9.93-13.83,15.36-5.28,6.74-10.21,13.68-14.64,20.93-3.92,6.41-7.5,12.96-10.39,19.78-.8,1.9-1.55,3.82-2,5.78-.1,.42-.23,.44-.58,.37-6.47-1.42-12.52-3.68-18.06-6.9-3.88-2.26-7.45-4.91-10.77-7.86-1.72-1.53-3.39-3.12-5.27-5.03h0Zm42.35-38.81c1.6,1.56,3.37,2.88,5.51,3.69,1.46,.56,3.01,.87,4.73,.49,1.74-.38,2.94-1.53,3.43-3.26,.27-.94,.26-1.85,.11-2.74-.36-2.11-1.31-3.89-2.61-5.44-2.14-2.56-4.72-4.55-8.15-5.39-1.2-.29-2.46-.34-3.76,.1-1.2,.4-2.12,1.18-2.62,2.37-.52,1.24-.53,2.45-.29,3.63,.53,2.64,1.92,4.72,3.65,6.57h0Zm-20.94,22.54c2.29,2.32,5.86,4.08,9.27,4.55,1.41,.2,2.86,.2,4.34-.21,2.92-.8,4.35-3,3.68-5.71-.37-1.5-1.2-2.7-2.22-3.75-2.43-2.49-5.53-3.95-9.09-4.63-1.53-.29-3.12-.32-4.75,.12-1.16,.31-2.24,.82-3.02,1.88-1.08,1.45-.98,2.87-.51,4.25s1.31,2.5,2.29,3.5h0Z"/><path class="cls-1" d="M432.32,444.69c-1.92,3.23-3.28,5.4-4.73,7.52-.18,.27-.22,.55-.22,.87,.04,2.53,.08,5.06,.1,7.59,0,.49,0,.99-.08,1.45-.2,1.04-.69,1.82-1.87,2.16-2.73,.8-5.62,1.12-8.55,1.25-9.02,.42-18.12-.06-27.32-1.75-1.33-.24-2.66-.56-3.96-.99-2.13-.69-3.43-2.11-3.82-4.14-.2-1.06-.16-2.09-.2-3.13-.04-.93-.03-.92-1.05-1.23-2.71-.83-5.37-1.82-7.88-3.24-.34-.19-.56-.2-.85-.01-1.06,.68-1.85,1.6-2.64,2.53-.17,.2-.34,.4-.53,.6-1.28,1.37-2.92,1.76-5.03,1.07-2.47-.81-4.69-2.09-6.76-3.61-8.66-6.38-16.24-13.69-22.67-21.99-.96-1.24-1.77-2.55-2.34-3.95-.76-1.86-.73-3.52,.42-5.05,1.42-1.87,2.82-3.75,4.38-5.51,.23-.26,.37-.55,.45-.9,1.48-6.67,3.39-13.18,6.1-19.39,3.78-8.66,9.15-16.22,16.5-22.41,.35-.29,.63-.51,1.3-.49,4.28,.13,8.46,1.31,12.63,2.51,10.55,3.04,20.89,6.89,31.19,10.88,6.94,2.69,13.84,5.52,20.69,8.49,5.33,2.32,10.65,4.69,15.82,7.4,.53,.28,.71,.55,.75,1.09,.29,4.74,.43,9.45-.06,14.08-.63,6.09-2.12,11.89-4.37,17.44-1.67,4.13-3.71,8.07-5.38,10.87h0Zm-3.75-.91c1.36-2.31,2.45-4.34,3.48-6.4,1.98-3.98,3.61-8.12,4.77-12.45,1.66-6.19,2.26-12.61,1.94-19.23-.02-.36-.08-.48-.51-.47-2.02,.08-4.06-.14-6.11-.42-7.34-1-14.59-2.75-21.81-4.85-8.15-2.38-16.15-5.33-24.03-8.66-6.35-2.69-12.56-5.66-18.44-9.34-2.33-1.46-4.6-3.01-6.63-4.84-.62-.56-.61-.56-1.15-.07-6.27,5.8-10.73,12.78-13.99,20.53-2.48,5.91-4.24,12.09-5.57,18.44-.06,.26-.09,.52-.28,.73-1.71,1.82-3.1,3.87-4.66,5.79-.72,.89-.66,1.74-.14,2.77,.67,1.33,1.53,2.58,2.49,3.76,6.21,7.68,13.33,14.57,21.53,20.48,1.41,1.01,2.91,1.9,4.57,2.5,.91,.33,1.56,.22,2.07-.46,1.33-1.75,2.92-3.24,5.05-4.2,.25-.11,.45-.14,.76-.04,.98,.33,1.87,.84,2.78,1.32,3.14,1.65,6.45,2.65,9.82,3.44,.43,.1,.54,.2,.56,.56,.13,1.48,.18,2.96,.2,4.43,0,.53,.02,1.06,.15,1.6,.12,.52,.4,.87,1.02,1.04,1.21,.33,2.42,.66,3.65,.88,8.51,1.53,16.93,1.97,25.3,1.69,2.65-.09,5.26-.32,7.76-.91,.59-.14,.8-.38,.78-.97-.07-2.91-.09-5.81-.13-8.72,0-.3,.03-.57,.2-.81,1.69-2.41,3.25-4.91,4.58-7.11h0Z"/><path class="cls-1" d="M428.57,443.78c-1.32,2.2-2.89,4.7-4.58,7.11-.17,.25-.21,.52-.2,.81,.04,2.91,.06,5.81,.13,8.72,.01,.59-.19,.83-.78,.97-2.51,.59-5.11,.83-7.76,.91-8.36,.27-16.79-.16-25.3-1.69-1.23-.22-2.44-.55-3.65-.88-.62-.17-.89-.53-1.02-1.04-.13-.54-.14-1.07-.15-1.6-.02-1.47-.08-2.95-.2-4.43-.03-.36-.14-.46-.56-.56-3.37-.79-6.68-1.79-9.82-3.44-.91-.48-1.8-.99-2.78-1.32-.31-.1-.5-.08-.76,.04-2.13,.96-3.72,2.46-5.05,4.2-.52,.68-1.16,.78-2.07,.46-1.66-.6-3.16-1.49-4.57-2.5-8.21-5.91-15.33-12.8-21.53-20.48-.96-1.19-1.81-2.44-2.49-3.76-.52-1.03-.59-1.88,.14-2.77,1.56-1.93,2.95-3.98,4.66-5.79,.2-.21,.23-.47,.28-.73,1.34-6.34,3.09-12.53,5.57-18.44,3.26-7.76,7.72-14.74,13.99-20.53,.54-.5,.53-.5,1.15,.07,2.03,1.84,4.3,3.38,6.63,4.84,5.87,3.68,12.09,6.65,18.44,9.34,7.88,3.34,15.88,6.28,24.03,8.66,7.22,2.11,14.47,3.85,21.81,4.85,2.05,.28,4.09,.5,6.11,.42,.43-.02,.49,.11,.51,.47,.32,6.62-.28,13.04-1.94,19.23-1.16,4.34-2.79,8.47-4.77,12.45-1.03,2.06-2.12,4.09-3.48,6.4h0Zm-48.54-30.73c1.09-1.95,1.9-4,2.12-6.29,.16-1.56,.05-3.13-.76-4.69-.83-1.58-2.25-2.44-4.05-2.46-.98-.01-1.86,.23-2.67,.61-1.95,.9-3.41,2.28-4.57,3.94-1.91,2.73-3.16,5.75-3.07,9.28,.03,1.24,.32,2.46,1.08,3.61,.7,1.06,1.69,1.73,2.97,1.91,1.33,.18,2.5-.13,3.58-.67,2.41-1.21,4.05-3.09,5.38-5.24h0Zm27.24,14.32c1.64-2.82,2.4-6.72,1.97-10.14-.18-1.42-.56-2.81-1.34-4.14-1.53-2.61-4.03-3.41-6.48-2.06-1.35,.75-2.29,1.86-3.04,3.12-1.76,3-2.37,6.37-2.1,9.99,.12,1.56,.5,3.09,1.36,4.56,.61,1.04,1.38,1.95,2.6,2.43,1.68,.66,3.03,.19,4.23-.62s2.07-1.91,2.78-3.13h0Z"/><path class="cls-1" d="M157.32,435.69c-1.92,3.23-3.28,5.4-4.73,7.52-.18,.27-.22,.55-.22,.87,.04,2.53,.08,5.06,.1,7.59,0,.49,0,.99-.08,1.45-.2,1.04-.69,1.82-1.87,2.16-2.73,.8-5.62,1.12-8.55,1.25-9.02,.42-18.12-.06-27.32-1.75-1.33-.24-2.66-.56-3.96-.99-2.13-.69-3.43-2.11-3.82-4.14-.2-1.06-.16-2.09-.2-3.13-.04-.93-.03-.92-1.05-1.23-2.71-.83-5.37-1.82-7.88-3.24-.34-.19-.56-.2-.85-.01-1.06,.68-1.85,1.6-2.64,2.53-.17,.2-.34,.4-.53,.6-1.28,1.37-2.92,1.76-5.03,1.07-2.47-.81-4.69-2.09-6.76-3.61-8.66-6.38-16.24-13.69-22.67-21.99-.96-1.24-1.77-2.55-2.34-3.95-.76-1.86-.73-3.52,.42-5.05,1.42-1.87,2.82-3.75,4.38-5.51,.23-.26,.37-.55,.45-.9,1.48-6.67,3.39-13.18,6.1-19.39,3.78-8.66,9.15-16.22,16.5-22.41,.35-.29,.63-.51,1.3-.49,4.28,.13,8.46,1.31,12.63,2.51,10.55,3.04,20.89,6.89,31.19,10.88,6.94,2.69,13.84,5.52,20.69,8.49,5.33,2.32,10.65,4.69,15.82,7.4,.53,.28,.71,.55,.75,1.09,.29,4.74,.43,9.45-.06,14.08-.63,6.09-2.12,11.89-4.37,17.44-1.67,4.13-3.71,8.07-5.38,10.87h0Zm-3.75-.91c1.36-2.31,2.45-4.34,3.48-6.4,1.98-3.98,3.61-8.12,4.77-12.45,1.66-6.19,2.26-12.61,1.94-19.23-.02-.36-.08-.48-.51-.47-2.02,.08-4.06-.14-6.11-.42-7.34-1-14.59-2.75-21.81-4.85-8.15-2.38-16.15-5.33-24.03-8.66-6.35-2.69-12.56-5.66-18.44-9.34-2.33-1.46-4.6-3.01-6.63-4.84-.62-.56-.61-.56-1.15-.07-6.27,5.8-10.73,12.78-13.99,20.53-2.48,5.91-4.24,12.09-5.57,18.44-.06,.26-.09,.52-.28,.73-1.71,1.82-3.1,3.87-4.66,5.79-.72,.89-.66,1.74-.14,2.77,.67,1.33,1.53,2.58,2.49,3.76,6.21,7.68,13.33,14.57,21.53,20.48,1.41,1.01,2.91,1.9,4.57,2.5,.91,.33,1.56,.22,2.07-.46,1.33-1.75,2.92-3.24,5.05-4.2,.25-.11,.45-.14,.76-.04,.98,.33,1.87,.84,2.78,1.32,3.14,1.65,6.45,2.65,9.82,3.44,.43,.1,.54,.2,.56,.56,.13,1.48,.18,2.96,.2,4.43,0,.53,.02,1.06,.15,1.6,.12,.52,.4,.87,1.02,1.04,1.21,.33,2.42,.66,3.65,.88,8.51,1.53,16.93,1.97,25.3,1.69,2.65-.09,5.26-.32,7.76-.91,.59-.14,.8-.38,.78-.97-.07-2.91-.09-5.81-.13-8.72,0-.3,.03-.57,.2-.81,1.69-2.41,3.25-4.91,4.58-7.11h0Z"/><path class="cls-1" d="M153.57,434.78c-1.32,2.2-2.89,4.7-4.58,7.11-.17,.25-.21,.52-.2,.81,.04,2.91,.06,5.81,.13,8.72,.01,.59-.19,.83-.78,.97-2.51,.59-5.11,.83-7.76,.91-8.36,.27-16.79-.16-25.3-1.69-1.23-.22-2.44-.55-3.65-.88-.62-.17-.89-.53-1.02-1.04-.13-.54-.14-1.07-.15-1.6-.02-1.47-.08-2.95-.2-4.43-.03-.36-.14-.46-.56-.56-3.37-.79-6.68-1.79-9.82-3.44-.91-.48-1.8-.99-2.78-1.32-.31-.1-.5-.08-.76,.04-2.13,.96-3.72,2.46-5.05,4.2-.52,.68-1.16,.78-2.07,.46-1.66-.6-3.16-1.49-4.57-2.5-8.21-5.91-15.33-12.8-21.53-20.48-.96-1.19-1.81-2.44-2.49-3.76-.52-1.03-.59-1.88,.14-2.77,1.56-1.93,2.95-3.98,4.66-5.79,.2-.21,.23-.47,.28-.73,1.34-6.34,3.09-12.53,5.57-18.44,3.26-7.76,7.72-14.74,13.99-20.53,.54-.5,.53-.5,1.15,.07,2.03,1.84,4.3,3.38,6.63,4.84,5.87,3.68,12.09,6.65,18.44,9.34,7.88,3.34,15.88,6.28,24.03,8.66,7.22,2.11,14.47,3.85,21.81,4.85,2.05,.28,4.09,.5,6.11,.42,.43-.02,.49,.11,.51,.47,.32,6.62-.28,13.04-1.94,19.23-1.16,4.34-2.79,8.47-4.77,12.45-1.03,2.06-2.12,4.09-3.48,6.4h0Zm-48.54-30.73c1.09-1.95,1.9-4,2.12-6.29,.16-1.56,.05-3.13-.76-4.69-.83-1.58-2.25-2.44-4.05-2.46-.98-.01-1.86,.23-2.67,.61-1.95,.9-3.41,2.28-4.57,3.94-1.91,2.73-3.16,5.75-3.07,9.28,.03,1.24,.32,2.46,1.08,3.61,.7,1.06,1.69,1.73,2.97,1.91,1.33,.18,2.5-.13,3.58-.67,2.41-1.21,4.05-3.09,5.38-5.24h0Zm27.24,14.32c1.64-2.82,2.4-6.72,1.97-10.14-.18-1.42-.56-2.81-1.34-4.14-1.53-2.61-4.03-3.41-6.48-2.06-1.35,.75-2.29,1.86-3.04,3.12-1.76,3-2.37,6.37-2.1,9.99,.12,1.56,.5,3.09,1.36,4.56,.61,1.04,1.38,1.95,2.6,2.43,1.68,.66,3.03,.19,4.23-.62s2.07-1.91,2.78-3.13h0Z"/><path class="cls-1" d="M642.37,578.75c.05,3.75,.02,6.32-.11,8.89-.02,.32,.1,.59,.27,.85,1.35,2.14,2.71,4.28,4.05,6.42,.26,.42,.52,.84,.69,1.28,.37,.99,.36,1.91-.47,2.82-1.92,2.11-4.21,3.88-6.64,5.53-7.48,5.06-15.49,9.4-24.22,12.77-1.26,.49-2.56,.9-3.9,1.22-2.18,.52-4.02,0-5.42-1.54-.72-.8-1.23-1.7-1.81-2.57-.51-.77-.5-.77-1.54-.5-2.75,.71-5.53,1.25-8.41,1.34-.39,.01-.58,.13-.74,.43-.55,1.14-.75,2.33-.93,3.53-.04,.26-.08,.52-.14,.78-.38,1.83-1.58,3.03-3.74,3.54-2.52,.6-5.09,.66-7.65,.45-10.72-.92-21-3.2-30.82-6.92-1.47-.56-2.84-1.25-4.06-2.15-1.62-1.19-2.46-2.62-2.27-4.53,.23-2.33,.44-4.67,.86-6.99,.06-.34,.03-.66-.09-1-2.22-6.47-3.99-13.01-4.92-19.72-1.29-9.36-.66-18.61,2.37-27.73,.14-.43,.27-.76,.86-1.09,3.72-2.12,7.9-3.3,12.08-4.45,10.59-2.92,21.42-5.02,32.28-6.99,7.33-1.33,14.69-2.52,22.08-3.56,5.76-.81,11.53-1.56,17.35-1.94,.6-.04,.89,.1,1.2,.54,2.72,3.89,5.3,7.84,7.3,12.04,2.64,5.53,4.4,11.25,5.37,17.16,.73,4.4,1.04,8.82,1.08,12.08h0Zm-3.68,1.18c-.05-2.68-.17-4.98-.37-7.28-.39-4.43-1.16-8.81-2.43-13.11-1.82-6.15-4.66-11.94-8.38-17.42-.2-.3-.32-.37-.68-.13-1.68,1.12-3.54,2-5.43,2.83-6.78,2.98-13.88,5.27-21.14,7.24-8.2,2.22-16.55,3.88-25.02,5.15-6.82,1.02-13.67,1.73-20.6,1.66-2.75-.03-5.49-.16-8.18-.67-.83-.15-.82-.16-1.02,.54-2.32,8.22-2.48,16.5-1.22,24.82,.96,6.34,2.7,12.53,4.87,18.64,.09,.25,.2,.49,.14,.77-.51,2.44-.63,4.92-.95,7.37-.15,1.14,.34,1.83,1.33,2.44,1.27,.78,2.65,1.4,4.08,1.91,9.31,3.31,18.97,5.47,29.06,6.23,1.73,.13,3.48,.1,5.2-.25,.95-.2,1.45-.62,1.53-1.47,.22-2.18,.8-4.29,2.11-6.22,.16-.23,.31-.35,.62-.43,1-.23,2.03-.26,3.06-.33,3.54-.23,6.89-1.11,10.17-2.19,.42-.14,.56-.11,.77,.18,.88,1.2,1.7,2.43,2.49,3.68,.28,.45,.57,.89,.96,1.29,.37,.38,.79,.54,1.41,.36,1.21-.35,2.41-.7,3.58-1.15,8.06-3.14,15.47-7.16,22.46-11.76,2.21-1.46,4.32-3.02,6.15-4.83,.43-.42,.48-.74,.16-1.24-1.58-2.44-3.11-4.91-4.67-7.37-.16-.25-.27-.5-.25-.8,.18-2.94,.21-5.89,.19-8.45h0Z"/><path class="cls-1" d="M638.7,579.93c.02,2.57-.01,5.51-.19,8.45-.02,.3,.09,.55,.25,.8,1.55,2.46,3.09,4.92,4.67,7.37,.32,.5,.27,.81-.16,1.24-1.83,1.81-3.93,3.37-6.15,4.83-6.99,4.6-14.4,8.63-22.46,11.76-1.16,.45-2.37,.8-3.58,1.15-.62,.18-1.04,.02-1.41-.36-.39-.39-.68-.84-.96-1.29-.78-1.25-1.6-2.48-2.49-3.68-.21-.29-.36-.32-.77-.18-3.28,1.09-6.63,1.96-10.17,2.19-1.02,.07-2.05,.1-3.06,.33-.31,.07-.47,.2-.62,.43-1.31,1.93-1.89,4.04-2.11,6.22-.09,.85-.58,1.27-1.53,1.47-1.72,.36-3.47,.38-5.2,.25-10.09-.76-19.75-2.92-29.06-6.23-1.44-.51-2.82-1.13-4.08-1.91-.98-.61-1.48-1.3-1.33-2.44,.32-2.46,.44-4.93,.95-7.37,.06-.28-.05-.52-.14-.77-2.17-6.11-3.91-12.3-4.87-18.64-1.27-8.32-1.1-16.6,1.22-24.82,.2-.71,.19-.7,1.02-.54,2.69,.51,5.43,.64,8.18,.67,6.93,.08,13.78-.64,20.6-1.66,8.46-1.27,16.82-2.93,25.02-5.15,7.25-1.97,14.36-4.27,21.14-7.24,1.89-.83,3.75-1.71,5.43-2.83,.36-.24,.47-.16,.68,.13,3.73,5.48,6.57,11.27,8.38,17.42,1.27,4.31,2.04,8.68,2.43,13.11,.2,2.3,.32,4.6,.37,7.28h0Zm-57.44-.88c-.08-2.23-.47-4.41-1.47-6.47-.68-1.41-1.59-2.7-3.1-3.6-1.53-.92-3.19-.91-4.73,.01-.84,.5-1.46,1.17-1.96,1.92-1.19,1.79-1.72,3.73-1.84,5.75-.21,3.33,.3,6.55,2.22,9.52,.67,1.04,1.55,1.93,2.8,2.51,1.15,.54,2.35,.6,3.53,.08,1.23-.54,2.06-1.42,2.7-2.44,1.43-2.29,1.85-4.75,1.86-7.28h0Zm30.7-2c-.07-3.26-1.46-6.99-3.61-9.68-.89-1.11-1.94-2.11-3.3-2.83-2.67-1.43-5.22-.81-6.6,1.62-.76,1.34-.99,2.79-.96,4.25,.06,3.48,1.3,6.67,3.43,9.61,.91,1.27,2.04,2.37,3.54,3.18,1.06,.57,2.2,.94,3.48,.71,1.78-.32,2.68-1.42,3.29-2.74s.77-2.71,.74-4.12h0Z"/></g></svg>