<?xml version="1.0" encoding="utf-8"?>
<!-- Generator: Adobe Illustrator 26.3.1, SVG Export Plug-In . SVG Version: 6.00 Build 0)  -->
<svg version="1.1" id="Layer_1" xmlns="http://www.w3.org/2000/svg" xmlns:xlink="http://www.w3.org/1999/xlink" x="0px" y="0px"
	 viewBox="0 0 24 24" style="enable-background:new 0 0 24 24;" xml:space="preserve">
<style type="text/css">
	.st0{fill-rule:evenodd;clip-rule:evenodd;fill:#ED9700;}
</style>
<path class="st0" d="M20.5,8.1c0.3-0.2,0.8-0.2,1.1,0.1c0.3,0.2,0.5,0.7,0.4,1l-2,8c-0.1,0.4-0.5,0.8-1,0.8H5c-0.5,0-0.9-0.3-1-0.8
	l-2-8c-0.1-0.4,0.1-0.8,0.4-1C2.7,8,3.2,7.9,3.5,8.1l4.2,2.5l3.5-5.2c0,0,0.1-0.1,0.1-0.1c0,0,0,0,0.1,0l-1-1
	c-0.2-0.2-0.2-0.5,0-0.7l1.3-1.3c0.2-0.2,0.5-0.2,0.7,0l1.3,1.3c0.2,0.2,0.2,0.5,0,0.7l-1,1c0,0,0,0,0.1,0c0,0,0.1,0,0.1,0.1
	l3.5,5.2L20.5,8.1z M4,19h16v2H4V19z"/>
</svg>
