<?xml version="1.0" encoding="UTF-8"?><svg id="Layer_2" xmlns="http://www.w3.org/2000/svg" viewBox="0 0 495.97 102.33"><defs><style>.cls-1{fill:#f6f6f6;}.cls-2{fill:#020101;}.cls-3{fill:#f40004;}</style></defs><g id="Layer_1-2"><g><path class="cls-1" d="M131.14,59.87c.8-4.09,1.55-9.72,1.77-15.42,.3-7.66-.42-15.29-2.3-22.9-1.43-5.79-3.64-11.4-6.04-16.98-.27-.63-.61-.88-1.37-.98-7.4-1.03-14.83-1.58-22.26-2.06-9.53-.61-19.07-1.02-28.59-1.25C58.21-.07,44.09-.23,30.06,.69c-5.54,.36-11.09,.76-16.3,2.45-.82,.27-1.06,.65-1.36,1.15C6.25,14.94,3.06,26.37,2.26,38.44c-.58,8.65-.05,17.31,1.06,26,.06,.45,.02,.86-.15,1.27-1.12,2.8-1.99,5.67-2.89,8.53-.73,2.33-.05,4.35,1.68,6.26,1.3,1.44,2.84,2.67,4.54,3.75,11.34,7.2,23.65,12.72,36.84,16.65,3.16,.94,6.39,1.52,9.71,1.42,2.84-.08,4.65-1.27,5.6-3.47,.13-.31,.26-.63,.37-.95,.54-1.46,1.09-2.91,2.08-4.19,.27-.35,.54-.44,1.03-.35,3.63,.63,7.27,.67,10.89,.49,1.36-.07,1.35-.07,1.8,1.02,.5,1.24,.9,2.5,1.6,3.69,1.35,2.28,3.52,3.43,6.39,3.33,1.76-.06,3.49-.24,5.2-.53,11.81-1.96,22.98-5.33,33.66-9.74,3.48-1.44,6.81-3.07,9.76-5.22,1.27-.93,1.53-2.08,1.31-3.41-.1-.6-.31-1.2-.53-1.79-1.13-3.04-2.28-6.07-3.42-9.1-.14-.38-.22-.74-.12-1.14,.83-3.18,1.53-6.4,2.44-11.11Z"/><path class="cls-2" d="M131.14,59.87c-.91,4.72-1.61,7.93-2.44,11.11-.1,.4-.02,.76,.12,1.14,1.14,3.03,2.29,6.07,3.42,9.1,.22,.59,.43,1.19,.53,1.79,.21,1.33-.04,2.48-1.31,3.41-2.95,2.15-6.28,3.78-9.76,5.22-10.68,4.41-21.85,7.78-33.66,9.74-1.71,.28-3.44,.47-5.2,.53-2.87,.09-5.04-1.05-6.39-3.33-.7-1.18-1.1-2.45-1.6-3.69-.45-1.1-.43-1.09-1.8-1.02-3.63,.18-7.26,.14-10.89-.49-.49-.09-.77,0-1.03,.35-.99,1.28-1.54,2.73-2.08,4.19-.12,.32-.24,.64-.37,.95-.95,2.2-2.76,3.39-5.6,3.47-3.32,.1-6.55-.48-9.71-1.42-13.19-3.93-25.5-9.45-36.84-16.65-1.69-1.08-3.24-2.31-4.54-3.75-1.73-1.92-2.41-3.93-1.68-6.26,.89-2.87,1.76-5.74,2.89-8.53,.17-.42,.21-.82,.15-1.27-1.11-8.68-1.64-17.35-1.06-26C3.06,26.37,6.25,14.94,12.41,4.29c.29-.5,.53-.88,1.36-1.15C18.98,1.45,24.52,1.05,30.06,.69,44.09-.23,58.21-.07,72.34,.27c9.53,.23,19.06,.64,28.59,1.25,7.43,.47,14.86,1.03,22.26,2.06,.76,.11,1.1,.35,1.37,.98,2.4,5.58,4.61,11.2,6.04,16.98,1.88,7.61,2.6,15.24,2.3,22.9-.22,5.7-.97,11.33-1.77,15.42Zm-4.91,.53c.63-3.37,1.07-6.29,1.41-9.22,.66-5.65,.82-11.34,.34-17.07-.69-8.18-2.75-16.17-6-24.01-.17-.42-.3-.55-.81-.34-2.39,.97-4.95,1.59-7.54,2.14-9.27,1.98-18.77,3.02-28.37,3.61-10.85,.67-21.76,.59-32.7-.01-8.81-.48-17.58-1.36-26.25-3.25-3.44-.75-6.84-1.62-10.09-2.96-.99-.41-.98-.41-1.42,.42-5.04,9.7-7.38,20.04-7.95,30.8-.43,8.19,.14,16.41,1.28,24.62,.05,.34,.12,.67-.03,1-1.28,2.93-2.06,6-3.1,9-.48,1.39-.04,2.38,1.03,3.4,1.39,1.31,2.95,2.44,4.63,3.45,10.81,6.56,22.37,11.77,34.82,15.33,2.13,.61,4.34,1.03,6.59,1.03,1.24,0,1.97-.41,2.3-1.45,.84-2.68,2.11-5.17,4.25-7.25,.25-.25,.48-.36,.89-.37,1.32-.03,2.62,.2,3.92,.38,4.5,.63,8.92,.39,13.32-.12,.55-.06,.73,.01,.92,.43,.79,1.73,1.51,3.49,2.17,5.25,.24,.64,.49,1.27,.87,1.86,.37,.57,.86,.88,1.68,.82,1.6-.13,3.21-.25,4.78-.52,10.92-1.85,21.25-4.98,31.2-8.94,3.15-1.25,6.19-2.67,8.95-4.47,.65-.42,.79-.81,.52-1.51-1.35-3.47-2.63-6.96-3.95-10.44-.14-.36-.21-.7-.11-1.07,.99-3.64,1.79-7.33,2.43-10.55Z"/><path class="cls-3" d="M126.22,60.4c-.64,3.22-1.44,6.91-2.43,10.55-.1,.37-.02,.71,.11,1.07,1.31,3.48,2.59,6.97,3.95,10.44,.27,.7,.13,1.09-.52,1.51-2.76,1.8-5.8,3.22-8.95,4.47-9.95,3.96-20.29,7.09-31.2,8.94-1.57,.27-3.17,.39-4.78,.52-.82,.06-1.3-.25-1.68-.82-.39-.59-.63-1.23-.87-1.86-.66-1.77-1.37-3.52-2.17-5.25-.19-.42-.37-.5-.92-.43-4.4,.51-8.82,.75-13.32,.12-1.3-.18-2.6-.41-3.92-.38-.41,0-.64,.13-.89,.37-2.15,2.08-3.41,4.57-4.25,7.25-.33,1.04-1.06,1.45-2.3,1.45-2.25,0-4.45-.42-6.59-1.03-12.45-3.56-24.01-8.77-34.82-15.33-1.67-1.01-3.24-2.15-4.63-3.45-1.08-1.01-1.52-2.01-1.03-3.4,1.04-3,1.83-6.07,3.1-9,.15-.34,.07-.67,.03-1-1.14-8.22-1.71-16.43-1.28-24.62,.57-10.76,2.91-21.1,7.95-30.8,.43-.83,.42-.83,1.42-.42,3.25,1.33,6.65,2.21,10.09,2.96,8.67,1.89,17.45,2.77,26.25,3.25,10.94,.6,21.85,.68,32.7,.01,9.6-.59,19.1-1.64,28.37-3.61,2.58-.55,5.14-1.17,7.54-2.14,.51-.21,.64-.08,.81,.34,3.25,7.84,5.31,15.83,6,24.01,.48,5.73,.31,11.41-.34,17.07-.34,2.93-.79,5.84-1.41,9.22Zm-71.78-15.96c.47-2.82,.55-5.64-.17-8.49-.49-1.94-1.29-3.79-2.95-5.32-1.68-1.55-3.76-1.96-5.94-1.21-1.18,.41-2.14,1.08-2.96,1.9-1.95,1.93-3.12,4.23-3.8,6.73-1.12,4.12-1.31,8.29,.32,12.51,.57,1.48,1.45,2.82,2.86,3.88,1.3,.97,2.79,1.36,4.4,1.01,1.68-.36,2.96-1.24,4.02-2.35,2.38-2.5,3.54-5.48,4.21-8.65Zm39.01,5.43c.75-4.1-.02-9.14-2.03-13.07-.83-1.63-1.89-3.14-3.41-4.41-2.98-2.48-6.33-2.36-8.69,.33-1.3,1.49-1.96,3.24-2.3,5.07-.82,4.38-.09,8.69,1.81,12.94,.82,1.82,1.95,3.5,3.62,4.9,1.18,.98,2.51,1.75,4.18,1.79,2.31,.06,3.73-1.08,4.83-2.58,1.1-1.5,1.66-3.2,1.99-4.97Z"/><path class="cls-1" d="M54.44,44.44c-.67,3.17-1.83,6.15-4.21,8.65-1.06,1.11-2.34,1.99-4.02,2.35-1.62,.35-3.1-.04-4.4-1.01-1.41-1.05-2.29-2.4-2.86-3.88-1.64-4.22-1.44-8.39-.32-12.51,.68-2.5,1.85-4.8,3.8-6.73,.82-.81,1.77-1.48,2.96-1.9,2.18-.76,4.26-.34,5.94,1.21,1.66,1.52,2.46,3.37,2.95,5.32,.71,2.85,.64,5.67,.17,8.49Z"/><path class="cls-1" d="M93.46,49.87c-.33,1.77-.89,3.47-1.99,4.97-1.1,1.5-2.52,2.65-4.83,2.58-1.67-.05-3-.81-4.18-1.79-1.67-1.39-2.8-3.07-3.62-4.9-1.9-4.24-2.63-8.56-1.81-12.94,.35-1.84,1-3.59,2.3-5.07,2.36-2.69,5.71-2.81,8.69-.33,1.52,1.26,2.57,2.78,3.41,4.41,2.01,3.93,2.78,8.96,2.03,13.07Z"/></g></g><g id="Layer_2-2"><g><path d="M188.43,74.73h-17.23c-5.88,0-10.25-1.18-13.1-3.53-2.85-2.35-4.27-5.98-4.27-10.87v-21.96c0-4.89,1.42-8.53,4.27-10.91,2.85-2.38,7.21-3.56,13.1-3.56h17.23c.89,0,1.54,.2,1.94,.6,.4,.4,.6,1.05,.6,1.94v8.54c0,.89-.2,1.54-.6,1.94-.4,.4-1.05,.6-1.94,.6h-14.19c-1.46,0-2.54,.29-3.25,.88-.71,.59-1.06,1.47-1.06,2.65v16.8c0,1.18,.35,2.04,1.06,2.58,.71,.54,1.79,.81,3.25,.81h14.19c.89,0,1.54,.2,1.94,.6,.4,.4,.6,1.05,.6,1.94v8.4c0,.89-.2,1.54-.6,1.94-.4,.4-1.05,.6-1.94,.6Z"/><path d="M241.67,61.38c0,2.17-.32,4.13-.95,5.9-.64,1.76-1.77,3.27-3.39,4.52-1.62,1.25-3.86,2.22-6.71,2.93-2.85,.71-6.46,1.06-10.84,1.06s-8-.35-10.87-1.06c-2.87-.71-5.12-1.68-6.74-2.93-1.62-1.25-2.75-2.75-3.39-4.52s-.95-3.73-.95-5.9v-24.07c0-2.17,.32-4.13,.95-5.9s1.77-3.28,3.39-4.55c1.62-1.27,3.87-2.26,6.74-2.96,2.87-.71,6.5-1.06,10.87-1.06s7.99,.35,10.84,1.06c2.85,.71,5.08,1.69,6.71,2.96,1.62,1.27,2.75,2.79,3.39,4.55,.64,1.76,.95,3.73,.95,5.9v24.07Zm-27.82-2.54c0,.94,.35,1.73,1.06,2.37,.71,.63,2.33,.95,4.87,.95s4.17-.32,4.87-.95c.71-.64,1.06-1.42,1.06-2.37v-18.99c0-.89-.35-1.66-1.06-2.29-.71-.64-2.33-.95-4.87-.95s-4.17,.32-4.87,.95c-.71,.63-1.06,1.4-1.06,2.29v18.99Z"/><path d="M263.77,74.73h-10.59c-.89,0-1.54-.2-1.94-.6-.4-.4-.6-1.05-.6-1.94V26.43c0-.89,.2-1.54,.6-1.94s1.05-.6,1.94-.6h7.34c.89,0,1.66,.14,2.29,.42,.64,.28,1.26,.78,1.87,1.48l13.7,15.67v-15.04c0-.89,.2-1.54,.6-1.94s1.05-.6,1.94-.6h10.59c.89,0,1.54,.2,1.94,.6,.4,.4,.6,1.05,.6,1.94v45.75c0,.89-.2,1.54-.6,1.94-.4,.4-1.05,.6-1.94,.6h-10.59c-.89,0-1.54-.2-1.94-.6-.4-.4-.6-1.05-.6-1.94v-8.68l-12.07-14.61v23.3c0,.89-.2,1.54-.6,1.94-.4,.4-1.05,.6-1.94,.6Z"/><path d="M337.61,74.73h-17.23c-5.88,0-10.25-1.18-13.1-3.53-2.85-2.35-4.27-5.98-4.27-10.87v-21.96c0-4.89,1.42-8.53,4.27-10.91,2.85-2.38,7.21-3.56,13.1-3.56h17.23c.89,0,1.54,.2,1.94,.6,.4,.4,.6,1.05,.6,1.94v8.54c0,.89-.2,1.54-.6,1.94s-1.05,.6-1.94,.6h-14.19c-1.46,0-2.54,.29-3.25,.88-.71,.59-1.06,1.47-1.06,2.65v16.8c0,1.18,.35,2.04,1.06,2.58,.71,.54,1.79,.81,3.25,.81h14.19c.89,0,1.54,.2,1.94,.6,.4,.4,.6,1.05,.6,1.94v8.4c0,.89-.2,1.54-.6,1.94-.4,.4-1.05,.6-1.94,.6Z"/><path d="M390.85,61.38c0,2.17-.32,4.13-.95,5.9-.63,1.76-1.76,3.27-3.39,4.52s-3.86,2.22-6.71,2.93c-2.85,.71-6.46,1.06-10.84,1.06s-8-.35-10.87-1.06-5.12-1.68-6.74-2.93-2.75-2.75-3.39-4.52-.95-3.73-.95-5.9v-24.07c0-2.17,.32-4.13,.95-5.9s1.76-3.28,3.39-4.55,3.87-2.26,6.74-2.96,6.5-1.06,10.87-1.06,7.99,.35,10.84,1.06c2.85,.71,5.08,1.69,6.71,2.96s2.75,2.79,3.39,4.55c.64,1.76,.95,3.73,.95,5.9v24.07Zm-27.82-2.54c0,.94,.35,1.73,1.06,2.37,.71,.63,2.33,.95,4.87,.95s4.17-.32,4.87-.95c.71-.64,1.06-1.42,1.06-2.37v-18.99c0-.89-.35-1.66-1.06-2.29-.71-.64-2.33-.95-4.87-.95s-4.17,.32-4.87,.95c-.71,.63-1.06,1.4-1.06,2.29v18.99Z"/><path d="M413.23,74.73h-10.87c-.89,0-1.54-.2-1.94-.6-.4-.4-.6-1.05-.6-1.94V26.43c0-.89,.2-1.54,.6-1.94s1.05-.6,1.94-.6h23.51c5.27,0,8.91,1.09,10.91,3.28,2,2.19,3,5.03,3,8.51v3.25c0,1.98-.29,3.66-.88,5.05-.59,1.39-1.61,2.39-3.07,3,2.54,.28,4.6,1.32,6.18,3.11,1.58,1.79,2.37,4.17,2.37,7.13v14.97c0,.89-.2,1.54-.6,1.94-.4,.4-1.05,.6-1.94,.6h-10.94c-.89,0-1.54-.2-1.94-.6-.4-.4-.6-1.05-.6-1.94v-10.8c0-1.03-.2-1.8-.6-2.29-.4-.49-1.09-.74-2.08-.74h-9.88v13.84c0,.89-.2,1.54-.6,1.94s-1.05,.6-1.94,.6Zm2.54-38.12v9.04h5.29c1.22,0,2.05-.32,2.47-.95,.42-.63,.64-1.42,.64-2.36v-2.4c0-.94-.21-1.73-.64-2.37-.42-.64-1.25-.95-2.47-.95h-5.29Z"/><path d="M478.6,74.73h-23.79c-.89,0-1.54-.2-1.94-.6-.4-.4-.6-1.05-.6-1.94V26.43c0-.89,.2-1.54,.6-1.94s1.05-.6,1.94-.6h23.79c5.88,0,10.25,1.18,13.1,3.53,2.85,2.35,4.27,5.98,4.27,10.87v22.03c0,4.9-1.42,8.52-4.27,10.87-2.85,2.35-7.21,3.53-13.1,3.53Zm-10.31-37.35v24h8.4c1.13,0,1.96-.28,2.51-.85,.54-.57,.81-1.44,.81-2.61v-17.16c0-1.18-.27-2.04-.81-2.58-.54-.54-1.38-.81-2.51-.81h-8.4Z"/></g></g></svg>