<?xml version="1.0" encoding="UTF-8"?><svg id="Layer_1" xmlns="http://www.w3.org/2000/svg" viewBox="0 0 456.77 351.53"><defs><style>.cls-1{fill:#ffffff;}.cls-2{fill:#ffffff;}</style></defs><path class="cls-1" d="M450.48,205.65c-3.12,16.2-5.52,27.23-8.37,38.17-.36,1.38-.09,2.62,.4,3.92,3.92,10.42,7.86,20.83,11.74,31.26,.75,2.02,1.49,4.07,1.82,6.14,.73,4.59-.13,8.53-4.51,11.72-10.12,7.37-21.57,12.98-33.52,17.92-36.7,15.16-75.07,26.73-115.64,33.46-5.87,.97-11.83,1.62-17.87,1.81-9.86,.32-17.32-3.61-21.96-11.45-2.4-4.07-3.79-8.41-5.51-12.66-1.53-3.78-1.49-3.76-6.17-3.52-12.46,.63-24.94,.47-37.42-1.69-1.69-.29-2.63,.02-3.55,1.21-3.39,4.4-5.28,9.37-7.14,14.38-.4,1.09-.82,2.18-1.28,3.26-3.25,7.55-9.48,11.63-19.23,11.92-11.4,.34-22.51-1.66-33.34-4.88-45.33-13.49-87.6-32.45-126.57-57.19-5.82-3.7-11.13-7.92-15.59-12.87-5.93-6.58-8.27-13.49-5.77-21.51,3.07-9.85,6.06-19.71,9.91-29.32,.57-1.43,.71-2.83,.51-4.38-3.82-29.82-5.63-59.59-3.65-89.3C10.52,90.58,21.46,51.31,42.63,14.74c1-1.73,1.83-3.03,4.66-3.95,17.9-5.82,36.94-7.18,55.98-8.43C151.45-.79,199.96-.25,248.51,.92c32.73,.79,65.48,2.2,98.23,4.3,25.52,1.63,51.04,3.52,76.46,7.07,2.6,.36,3.76,1.22,4.7,3.38,8.26,19.17,15.85,38.46,20.75,58.34,6.45,26.15,8.93,52.37,7.9,78.68-.76,19.59-3.34,38.91-6.08,52.97Zm-16.88,1.83c2.16-11.59,3.69-21.6,4.86-31.67,2.25-19.42,2.83-38.95,1.18-58.63-2.36-28.09-9.44-55.55-20.61-82.47-.6-1.45-1.03-1.88-2.79-1.17-8.23,3.33-17.01,5.45-25.89,7.35-31.84,6.79-64.46,10.38-97.46,12.41-37.27,2.29-74.74,2.01-112.31-.05-30.26-1.66-60.4-4.68-90.19-11.17-11.83-2.58-23.51-5.58-34.65-10.15-3.42-1.4-3.38-1.42-4.86,1.44-17.3,33.32-25.36,68.85-27.3,105.8-1.48,28.14,.49,56.35,4.41,84.58,.16,1.16,.41,2.29-.09,3.44-4.38,10.06-7.08,20.62-10.66,30.91-1.66,4.77-.15,8.19,3.55,11.67,4.77,4.49,10.15,8.38,15.89,11.86,37.13,22.53,76.84,40.43,119.61,52.66,7.33,2.09,14.89,3.54,22.63,3.54,4.27,0,6.78-1.4,7.9-4.98,2.9-9.2,7.24-17.76,14.61-24.91,.87-.84,1.65-1.25,3.07-1.28,4.53-.09,8.99,.68,13.45,1.31,15.44,2.15,30.64,1.35,45.74-.41,1.91-.22,2.52,.04,3.17,1.48,2.73,5.95,5.17,11.97,7.44,18.04,.82,2.18,1.67,4.36,3,6.4,1.28,1.95,2.94,3.02,5.76,2.8,5.51-.43,11.02-.87,16.42-1.78,37.5-6.34,72.99-17.1,107.19-30.69,10.83-4.3,21.27-9.17,30.76-15.35,2.22-1.44,2.72-2.77,1.78-5.19-4.64-11.93-9.04-23.92-13.55-35.88-.46-1.23-.73-2.39-.38-3.67,3.4-12.51,6.14-25.17,8.34-36.24Z"/><path class="cls-2" d="M433.6,207.48c-2.2,11.07-4.95,23.73-8.34,36.24-.35,1.28-.08,2.44,.38,3.67,4.51,11.96,8.91,23.95,13.55,35.88,.94,2.42,.44,3.74-1.78,5.19-9.49,6.18-19.93,11.04-30.76,15.35-34.2,13.59-69.69,24.35-107.19,30.69-5.4,.91-10.9,1.35-16.42,1.78-2.81,.22-4.48-.85-5.76-2.8-1.33-2.03-2.18-4.21-3-6.4-2.27-6.07-4.71-12.09-7.44-18.04-.66-1.44-1.27-1.7-3.17-1.48-15.1,1.76-30.3,2.56-45.74,.41-4.47-.62-8.92-1.4-13.45-1.31-1.42,.03-2.2,.44-3.07,1.28-7.37,7.15-11.71,15.71-14.61,24.91-1.13,3.58-3.64,4.97-7.9,4.98-7.74,0-15.3-1.45-22.63-3.54-42.77-12.23-82.48-30.13-119.61-52.66-5.74-3.48-11.12-7.38-15.89-11.86-3.7-3.48-5.22-6.9-3.55-11.67,3.58-10.29,6.28-20.85,10.66-30.91,.5-1.15,.26-2.29,.09-3.44-3.92-28.23-5.89-56.44-4.41-84.58,1.94-36.95,10-72.48,27.3-105.8,1.48-2.86,1.44-2.84,4.86-1.44,11.15,4.58,22.83,7.58,34.65,10.15,29.79,6.49,59.93,9.51,90.19,11.17,37.58,2.06,75.04,2.34,112.31,.05,32.99-2.03,65.62-5.62,97.46-12.41,8.88-1.89,17.67-4.02,25.89-7.35,1.76-.71,2.19-.28,2.79,1.17,11.18,26.92,18.26,54.38,20.61,82.47,1.65,19.68,1.08,39.21-1.18,58.63-1.17,10.07-2.7,20.08-4.86,31.67Zm-246.58-54.82c1.62-9.69,1.88-19.39-.58-29.17-1.68-6.68-4.45-13.03-10.13-18.27-5.78-5.32-12.93-6.75-20.4-4.15-4.07,1.41-7.34,3.72-10.15,6.51-6.7,6.64-10.72,14.53-13.05,23.11-3.85,14.16-4.52,28.49,1.11,42.97,1.97,5.07,4.98,9.7,9.84,13.32,4.47,3.33,9.57,4.66,15.12,3.47,5.77-1.24,10.15-4.26,13.8-8.09,8.18-8.58,12.17-18.83,14.46-29.71Zm134.01,18.66c2.59-14.09-.07-31.4-6.96-44.89-2.86-5.59-6.48-10.79-11.7-15.13-10.23-8.52-21.75-8.11-29.86,1.12-4.48,5.1-6.72,11.12-7.91,17.43-2.83,15.04-.31,29.87,6.21,44.44,2.8,6.26,6.69,12.04,12.42,16.82,4.05,3.38,8.62,6,14.37,6.16,7.94,.22,12.81-3.72,16.59-8.88,3.78-5.16,5.71-11,6.85-17.08Z"/></svg>