<?xml version="1.0" encoding="utf-8"?>
<!-- Generator: Adobe Illustrator 26.3.1, SVG Export Plug-In . SVG Version: 6.00 Build 0)  -->
<svg version="1.1" id="Layer_1" xmlns="http://www.w3.org/2000/svg" xmlns:xlink="http://www.w3.org/1999/xlink" x="0px" y="0px"
	 viewBox="0 0 615 360" style="enable-background:new 0 0 615 360;" xml:space="preserve">
<style type="text/css">
	.st0{fill:#4F4F4F;}
	.st1{fill:#FEA004;}
	.st2{fill:#D37D00;}
	.st3{fill:#3543DE;}
	.st4{fill:#FFF4B3;}
	.st5{fill:#29CC7A;}
	.st6{fill:#8CD9FF;}
	.st7{fill:#BAE8FF;}
	.st8{fill:#EB459F;}
	.st9{fill:none;stroke:#D11583;stroke-width:2;stroke-linecap:round;stroke-miterlimit:10;}
	.st10{fill:none;stroke:#FFFFFF;stroke-width:2;stroke-miterlimit:10;}
	.st11{fill:#912869;}
	.st12{fill:#611B46;}
	.st13{fill:none;stroke:#000000;stroke-width:2;stroke-linecap:round;stroke-linejoin:round;}
	.st14{fill:none;stroke:#FFFFFF;stroke-width:2;stroke-linecap:round;stroke-miterlimit:10;}
	.st15{fill:none;stroke:#000000;stroke-width:2;stroke-linecap:round;stroke-miterlimit:10;}
	.st16{fill:#FFFFFF;}
	.st17{fill:none;stroke:#2835BD;stroke-width:8;stroke-linecap:round;stroke-linejoin:round;}
	.st18{fill:#D11583;}
	.st19{fill:none;stroke:#FFC619;stroke-width:2;stroke-linecap:round;stroke-miterlimit:10;}
	.st20{fill:#2A39D4;}
	.st21{fill:#FFCA3A;}
	.st22{fill:#3442D9;}
	.st23{fill:#FF78B9;}
	.st24{fill:none;stroke:#3442D9;stroke-width:2;stroke-miterlimit:10;}
	.st25{fill:none;stroke:#66BCFF;stroke-width:4;stroke-linecap:round;stroke-miterlimit:10;}
	.st26{fill:#FFE75C;}
	.st27{fill:#45AAF7;}
	.st28{fill:#5865F2;}
	.st29{fill:#3F99F2;}
	.st30{fill:#DE3A93;}
	.st31{fill:#66BCFF;}
	.st32{fill:none;stroke:#2330BF;stroke-width:2;stroke-miterlimit:10;}
	.st33{fill:none;stroke:#2467D4;stroke-width:2;stroke-linecap:round;stroke-linejoin:round;}
	.st34{fill:#2331B5;}
	.st35{fill:none;stroke:#A3D7FF;stroke-width:2;stroke-linecap:round;stroke-linejoin:round;}
	.st36{fill:#ADB4FF;}
	.st37{fill:#15AD75;}
	.st38{fill:none;stroke:#15AD75;stroke-width:2;stroke-linecap:round;stroke-linejoin:round;}
	.st39{fill:#FE662B;}
	.st40{fill:#FFC619;}
	.st41{fill:none;stroke:#FFC619;stroke-width:2;stroke-linecap:round;stroke-linejoin:round;}
	.st42{fill:none;stroke:#BAE8FF;stroke-width:2;stroke-linecap:round;stroke-linejoin:round;}
	.st43{fill:none;stroke:#5865F2;stroke-width:2;stroke-miterlimit:10;}
</style>
<path class="st0" d="M614.2,359.4H449.3v-51.5c38.4-36.6,82.2-11.4,85.1,15.8C578.1,295.3,619.2,318,614.2,359.4z"/>
<path class="st1" d="M449.3,223.5H13.7v135.9h435.6V223.5z"/>
<path class="st2" d="M13.7,265.5l435.6-35.1v-6.9H13.7V265.5z"/>
<path class="st3" d="M449.3,223.5h-3.2v135.9h3.2V223.5z"/>
<path class="st3" d="M410,223.5h-3.2v135.9h3.2V223.5z"/>
<path class="st3" d="M370.7,223.5h-3.2v135.9h3.2V223.5z"/>
<path class="st3" d="M331.4,223.5h-3.2v135.9h3.2V223.5z"/>
<path class="st3" d="M292,223.5h-3.2v135.9h3.2V223.5z"/>
<path class="st3" d="M252.7,223.5h-3.2v135.9h3.2V223.5z"/>
<path class="st3" d="M213.4,223.5h-3.2v135.9h3.2V223.5z"/>
<path class="st3" d="M174.1,223.5h-3.2v135.9h3.2V223.5z"/>
<path class="st3" d="M134.8,223.5h-3.2v135.9h3.2V223.5z"/>
<path class="st3" d="M95.5,223.5h-3.2v135.9h3.2V223.5z"/>
<path class="st3" d="M56.2,223.5H53v135.9h3.2V223.5z"/>
<path class="st3" d="M16.9,223.5h-3.2v135.9h3.2V223.5z"/>
<path class="st4" d="M131.9,97.8c-4.1-13.6-6.3-20.1,1.1-24.1c7.4-4,29.9-1.3,40.4,1.2s12,5.1,5.1,15.4L131.9,97.8z"/>
<path class="st5" d="M127.1,220.1c-1.6-40.4-0.6-74,0.7-91.9c-6.7-4.4-9.8-7.8-11.1-9.7c-0.3-0.4-0.4-0.8-0.4-1.3
	c0-0.5,0.2-0.9,0.5-1.2c10.6-13.3,19.7-24.9,29.2-30.3c9.5-5.4,22.5-6.8,43.2,13.8c0.2,0.3,0.3,0.6,0.3,0.9c0,0.3-0.2,0.6-0.4,0.9
	c-1.6,1.6-3.4,3.2-5.2,4.6c4.2,7.5,10.3,18.9,10.3,18.9h4.8c3.1,0,6,1.2,8.2,3.4c2.2,2.2,3.4,5.1,3.4,8.2c0.1,9.3-2.1,20.5-6.4,34.9
	c19.2,15.6,14.5,48.7,14.5,48.7L127.1,220.1z"/>
<path class="st6" d="M204.2,171.3c0.6-2.1,1.2-4,1.7-6l-15.1,8.4c0,0-23.9-16.1-64-26.1c-0.7,18.6-0.8,43.8,0.3,72.5h91.6
	C218.7,220.1,223.4,186.9,204.2,171.3z"/>
<path class="st7" d="M208,175c-1.2-1.3-2.4-2.6-3.8-3.7c0.6-2.1,1.2-4,1.7-6l-15.1,8.4c0,0-23.9-16.1-64-26.1
	c-0.1,2.3-0.2,4.8-0.2,7.3c30.7,12.7,47.2,34.5,49.1,65.2h22.7C202.4,202.5,205.6,187.1,208,175z"/>
<path d="M138.9,135.9h0.4c0.2-0.2,0.4-0.3,0.5-0.6l8.7-28.1c0.1-0.1,0.1-0.2,0.1-0.4c0-0.1,0-0.3-0.1-0.4c-0.1-0.1-0.1-0.2-0.2-0.3
	c-0.1-0.1-0.2-0.2-0.3-0.2c-0.1,0-0.3,0-0.4,0c-0.1,0-0.3,0.1-0.4,0.1c-0.1,0.1-0.2,0.2-0.3,0.3c-0.1,0.1-0.1,0.2-0.1,0.4l-8.4,27.2
	c-3.6-1.5-7.1-3.4-10.4-5.6h-0.2c0,0.6-0.1,1.3-0.1,1.9c3.5,2.2,7.1,4.1,10.9,5.7H138.9z"/>
<path d="M176.1,90.7l-35.8,2.6C180.3,100.9,182,102,176.1,90.7z"/>
<path class="st8" d="M195.9,195.5l-3.8-35.5c-0.1-0.6-0.4-1.2-0.9-1.6c-0.5-0.4-1.1-0.6-1.7-0.6h-3.8l-1.7-3.3
	c-0.5-0.9-1.4-1.6-2.3-1.9c-1-0.3-2.1-0.3-3.1,0c-1,0.4-1.8,1.2-2.3,2.2c-7.5,16.1-11.2,42.6-11.9,47.6c0,0.2,0,0.5,0.2,0.7
	c0.1,0.2,0.3,0.3,0.5,0.4l21.6,6.9c0.1,0.1,0.3,0.1,0.4,0.1c0.1,0,0.3-0.1,0.4-0.1c0.1-0.1,0.2-0.2,0.2-0.3c0-0.1,0-0.3,0-0.4
	l-0.8-10.1l8-2.5c0.3-0.1,0.6-0.3,0.8-0.6C195.9,196.2,195.9,195.8,195.9,195.5z"/>
<path class="st9" d="M177.4,167.2l-3.3,34.5"/>
<path d="M167.2,116.7c1.4-0.6,1.6-3.2,0.6-5.8c-1.1-2.7-3.1-4.4-4.5-3.8c-1.4,0.6-1.6,3.2-0.6,5.8
	C163.8,115.6,165.8,117.3,167.2,116.7z"/>
<path class="st10" d="M177.5,122.2c1.8-3.4,1.6-7-0.5-8.1c-2.1-1.1-5.2,0.8-6.9,4.1c-1.8,3.4-1.6,7,0.5,8.1
	C172.6,127.5,175.7,125.6,177.5,122.2z"/>
<path class="st10" d="M192.2,122.3c1.8-3.4,1.6-7-0.5-8.1c-2.1-1.1-5.2,0.8-6.9,4.1c-1.8,3.4-1.6,7,0.5,8.1S190.4,125.6,192.2,122.3
	z"/>
<path d="M182.1,116.2c0.9-0.4,0.8-2.7-0.2-5.3c-1-2.6-2.6-4.3-3.5-4c-0.9,0.4-0.8,2.7,0.2,5.3C179.6,114.8,181.2,116.6,182.1,116.2z
	"/>
<path class="st11" d="M191.6,142.4c-7.7,0-15.2-2.6-21.2-7.5c-6.2-5.1-3.7-5.7,0.2-5.8c3.9-0.1,22.6,0.6,28,1.4
	C204,131.3,205,142,191.6,142.4z"/>
<path class="st12" d="M191.6,142.4c-7.7,0-15.2-2.6-21.2-7.5c-6.2-5.1-3.7-5.7,0.2-5.8c3.9-0.1,22.6,0.6,28,1.4
	C204,131.3,205,142,191.6,142.4z"/>
<path class="st13" d="M191.2,153.6l-0.4-3.7c2.8-0.2,5.6-1,8.1-2.3"/>
<path class="st8" d="M195.3,141.9c-5.4-5.2-12.7-9.1-26.2-8.2C180.7,144.4,192.8,142.6,195.3,141.9z"/>
<path class="st10" d="M178.1,118.7h6.1"/>
<path class="st14" d="M168.9,119.9l-25.8-10.5c-0.5-0.2-1.1-0.3-1.7-0.2c-0.6,0.1-1.1,0.3-1.6,0.6c-0.5,0.3-0.9,0.8-1.2,1.3
	c-0.3,0.5-0.4,1.1-0.4,1.7l0,0c0,0.7,0.2,1.4,0.6,1.9c0.4,0.6,0.9,1,1.5,1.3l1.7,0.8"/>
<path class="st15" d="M163.5,106.8c2,0.1,4.1-0.2,6-0.8"/>
<path class="st15" d="M178.5,106.8c1.3,0,2.5-0.2,3.7-0.8"/>
<path class="st4" d="M135.3,94.3c35.7-0.5,47.8-4.5,58-8.2c10.2-3.7,9.2-6.6,1.4-6.3C186.9,80.1,160.2,90.3,135.3,94.3z"/>
<path class="st5" d="M126.5,158.1l-0.2,9.8l4.9-1.9c0,0,26.1-10.9,32.3-12.4c6.2-1.5,12.1,1.4,21,4.8c8.9,3.4,6.6,6.5,3.8,9.5
	c-2.8,3-2.7,2.8-17.4,2.8c-28.1,20.3-36.7,32.2-48.2,32.2c-6.9,0-12.8-3.1-17.2-16.7C101.1,172.6,109.3,166.4,126.5,158.1z"/>
<path class="st16" d="M224.4,169.3l-15-18.1l-25.6,25.5l18.1,15.1c-0.2,1.7,0,3,0.9,3.9c2.7,2.7,10.6-0.8,17.7-7.8
	c7.1-7,10.5-15,7.8-17.7C227.4,169.3,226.1,169.1,224.4,169.3z"/>
<path class="st16" d="M200,167.4c7-7,11.2-14.2,9.3-16.1c-1.9-1.9-9.1,2.3-16.1,9.3c-7,7-11.2,14.2-9.3,16.1
	C185.7,178.6,192.9,174.4,200,167.4z"/>
<path class="st7" d="M198.2,165.7c6.4-6.4,10.6-12.4,9.5-13.5c-1.1-1.1-7.1,3.2-13.5,9.5c-6.4,6.4-10.6,12.4-9.5,13.5
	C185.8,176.3,191.9,172,198.2,165.7z"/>
<path class="st5" d="M223,161.7c4.3,0.6,6,4.5,4.3,9.7c-0.2,0.6-0.5,1-1,1.4c-0.4,0.4-1,0.7-1.5,0.8c-0.6,0.1-1.2,0.1-1.7-0.1
	c-0.6-0.2-1.1-0.5-1.5-0.9c-1-1-1.6-2.4-1.7-3.8c-0.1-1.4,0.3-2.9,1.1-4.1L223,161.7z"/>
<path class="st5" d="M215.5,158.7c-0.2,3.7-2.4,7.4-4,9.8c-0.4,0.7-0.6,1.5-0.6,2.3c0.1,0.8,0.4,1.5,1,2.1l0.8,0.7
	c0.3,0.3,0.6,0.5,0.9,0.6c0.3,0.1,0.7,0.2,1.1,0.2c0.4,0,0.7-0.1,1.1-0.2c0.3-0.1,0.7-0.4,0.9-0.6c3-2.8,5.1-6.3,6.1-10.3
	c1.2-5.4-2.7-9.2-9.5-7.4L215.5,158.7z"/>
<path class="st4" d="M135.3,94.3l12.2-1l29.3-5.8l-7.3-7.2h-34.9L135.3,94.3z"/>
<path class="st16" d="M194.4,131.2l-7-0.4c0.8,4.2,2.8,6.4,4.5,5.7S194.2,132.1,194.4,131.2z"/>
<path class="st16" d="M172.8,130.3c0.9,4.8,2.7,7.3,4.4,6.5s2.1-4.8,2.4-6.4L172.8,130.3z"/>
<path class="st17" d="M465.4,223.5H4.3"/>
<path class="st8" d="M184.4,174.7c0.1,0.2,0.2,0.4,0.4,0.5c0.1,0,0.1,0,0.1,0.1c0,0.1,7.2-3.5,13.4-9.7v-0.2l-3.9-3.8l-3.2-3.3
	l-4.2,0.2l-8.2-3.1l-0.3,0.7C182,157.3,182.7,169.9,184.4,174.7z"/>
<path class="st18" d="M185.7,157.9c1.7,3.4,3.2,6.9,4.5,10.5c0.1,0.2,0.2,0.3,0.3,0.4c0.1,0.1,0.3,0.2,0.5,0.2h0.3
	c0.2-0.1,0.4-0.2,0.5-0.4c0.1-0.2,0.1-0.4,0.1-0.7c-0.1-0.3-2.3-6.1-4.3-10H185.7z"/>
<path class="st18" d="M186.9,199.7h-0.2L179,202c-0.1,0-0.3,0.1-0.4,0.2c-0.1,0.1-0.2,0.2-0.2,0.4c0,0.2,0,0.3,0,0.5
	c0.1,0.2,0.1,0.3,0.3,0.4l6.8,5.9c0,0.1,0.1,0.2,0.2,0.2c0.1,0.1,0.2,0.1,0.3,0.1c0.1,0,0.3,0,0.4-0.1c0.1-0.1,0.2-0.1,0.3-0.2
	c0.1-0.1,0.1-0.2,0.2-0.3c0-0.1,0.1-0.2,0-0.4c0-0.1,0-0.2-0.1-0.3c-0.1-0.1-0.1-0.2-0.2-0.3l-5.6-4.9l6-1.8L186.9,199.7z"/>
<path class="st13" d="M126,167.6l-14.1,6.7"/>
<path class="st19" d="M180.9,82.8c-15.4,4.1-31,7.4-46.8,9.9"/>
<path class="st7" d="M193.4,178.6l10.8,9.9c0.3,0.3,0.8,0.5,1.2,0.5c0.4,0,0.9-0.1,1.3-0.3c0.2-0.2,0.4-0.4,0.6-0.7
	c0.1-0.3,0.2-0.5,0.2-0.8s0-0.6-0.1-0.9c-0.1-0.3-0.3-0.5-0.5-0.7l-10.5-10.1c-0.3-0.3-0.7-0.5-1.2-0.5c-0.4-0.1-0.9,0-1.2,0.2
	l-0.3,0.2c-0.3,0.2-0.5,0.4-0.7,0.6c-0.2,0.3-0.3,0.6-0.3,0.9c0,0.3,0,0.6,0.1,0.9C193,178.1,193.2,178.4,193.4,178.6z"/>
<path class="st13" d="M220.5,170.5c1.8-2.4,3-5.3,3.3-8.3"/>
<path class="st20" d="M309.2,32.2c0.9-4.3-1.9-8.6-6.4-9.5c-4.4-0.9-8.8,1.8-9.7,6.1c-0.9,4.3,1.9,8.6,6.4,9.5
	C303.9,39.3,308.3,36.6,309.2,32.2z"/>
<path class="st21" d="M362.7,106.5c7.3,0.4,16.1,3.4,27.1,15.6c6.2-6.2,9.2-4.5,17.5,2.6c8.3,7.1,26.1,20.6,30.5,25.1
	c4.4,4.5,7.7,14.2-4.3,21.5s-33.3-6.1-44.5-13.9c-11.2-7.8-26.3-16.9-26.3-16.9V106.5z"/>
<path class="st22" d="M404,121.9c2.9,4.8,5.4,9.8,7.3,15.1c2.3,7.2-0.6,11.4-6.5,16.3c-5.9,4.9-8.3,3.8-11.4,1.3
	c-0.2-0.1-0.4-0.1-0.6-0.1c-0.2,0-0.4,0.2-0.5,0.3c-0.1,0.2-0.2,0.4-0.2,0.6c0,0.2,0.1,0.4,0.2,0.6c1.6,1.4,3.6,2.2,5.7,2.3
	c2.5,0,5-1.2,8-3.7c5.1-4.3,9.9-9.2,6.9-18.2c-1.1-3.2-2.5-6.4-4.1-9.4c-0.6-1.2-1.5-2.3-2.5-3.2L404,121.9z"/>
<path class="st15" d="M388.9,151.8c5.4,5.2,18.3,14.4,18.3,14.4"/>
<path class="st23" d="M335.9,105.2c25.9-7.4,41.5-32.2,34.8-55.6c-6.6-23.3-33-36.2-58.9-28.9C286,28.2,270.4,53,277,76.3
	C283.7,99.7,310,112.6,335.9,105.2z"/>
<path class="st16" d="M289.8,58.2c0,9.6,4.6,18.1,10.3,19c5.7,0.9,7.1-4.1,7.3-13.4c0-2.4,0.1-4.8,0.3-7.3
	c0.6-8.6-2.5-13.3-7.6-14.1S289.8,48.6,289.8,58.2z"/>
<path class="st18" d="M332.2,58.8c-1-1.3-1.6-2.8-1.7-4.5c-0.1-1.6,0.3-3.2,1.1-4.6c8-13.6,15.3-14.1,20.5-13.8s9.2,5.2,4.9,17.6
	c6.1,6.6,3.6,12.7-5.1,13.5C343.2,67.8,338.5,67.1,332.2,58.8z"/>
<path class="st21" d="M389.4,192.1c1.2-32.8-9.3-37-10.3-46.8s-2-23-12.8-37.2c0,0,1.3-13.3,2-22.2c0-0.4,0-0.7-0.2-1
	c-0.1-0.3-0.3-0.6-0.6-0.9c-0.3-0.2-0.6-0.4-0.9-0.5c-0.3-0.1-0.7-0.1-1-0.1c-7,1.1-14.1,1.6-21.2,1.3c-12.2-0.4-28.7-1.6-46.3,15.5
	l5.7,8l-0.4,0.7c-0.3,0.5-0.5,1-0.5,1.6c-0.1,0.6,0,1.1,0.2,1.6c0.2,0.5,0.5,1,0.9,1.4c0.4,0.4,0.9,0.7,1.4,0.9l1.1,0.4
	c0,0-16.1,9.7-11.3,31.6c4.8,21.9-0.3,43.1,7.8,49.6c1.6,1.3,3.6,2.2,5.7,2.5c2.1,0.3,4.2,0.1,6.1-0.6l37.1,19.8
	c13.5,14.9,32.7,31.6,32.7,31.6l-14.8,35.3l15.6,39.3c13.3-32.6,30.8-64.6,33.9-79.4C422.4,229.7,412.4,221,389.4,192.1z"/>
<path class="st24" d="M374.8,303.8c7.4-22.9,15.7-43.6,18.2-49.6c0.2-0.5,0.3-1.1,0.1-1.7c-0.1-0.6-0.4-1.1-0.8-1.4
	c-21.6-20.7-26.7-27.8-26.7-27.8"/>
<path d="M317.7,178l-13.4-9.1c0,0,8.1-11.1,12.6-17.8l1.1-1.7c0-0.1,0.1-0.2,0.2-0.3c0.1-0.1,0.2-0.1,0.3-0.2c0.1,0,0.2-0.1,0.3,0
	c0.1,0,0.2,0,0.3,0.1c0.2,0.1,0.3,0.2,0.4,0.4c0.1,0.2,0.1,0.4,0.1,0.6C316.7,167.7,317.7,178,317.7,178z"/>
<path class="st22" d="M368.1,87.6c-7.1,2.4-16.5,2.3-27.7,2c-11.2-0.3-22.5-0.6-41,12.4l3,4.3c17.1-12.1,26.3-11.8,37.9-11.5
	c11.6,0.3,19.8,0.4,27.4-1.6C367.8,91.3,368,89.4,368.1,87.6z"/>
<path d="M362.7,190.5c0.2,0,0.4-0.1,0.6-0.2c0.2-0.1,0.3-0.4,0.3-0.6c0.2-16.1-5.9-32.5-8.5-38.8c-2.7-6.5-4.4-13.4-4.9-20.4
	c-0.8-9.1-2.7-16.2-3.9-19l3.4-26.8h-1.8l-3.4,27.1v0.2c1.1,2.4,3.1,9.5,3.9,18.7c0.5,7.2,2.2,14.2,4.9,20.9
	c2.7,6.2,8.7,22.3,8.5,38c0,0.2,0.1,0.5,0.3,0.6C362.2,190.4,362.5,190.5,362.7,190.5z"/>
<path class="st21" d="M420.5,346.5c-0.4-0.5-0.8-1-1.4-1.3c-0.6-0.3-1.2-0.5-1.8-0.5c0.6-3.6-0.1-6.6-4.8-7.7
	c-5.4-1.2-11.1-1-16.4,0.5c-9.2-23.6-27.4-85.8-40.1-131.2l-41.2-8.4c-0.4,11.3,7,36.2,12.4,57.6s17.3,66.2,20.6,82.4
	c2,9.8,4.9,21.5,4.9,21.5h38.2c11.2,0,25.6-4.4,28.4-6.6C422.1,350.6,421.5,348.3,420.5,346.5z"/>
<path class="st24" d="M359.2,336.3c-11.8-37.2-29-87.2-39.5-138"/>
<path class="st21" d="M339.6,192.1c0.2-2.9-3.8-13.8-8.6-21.7c-4.8-7.9-7.2-13.5-11.7-10.9s-15,9.4-15,9.4s8.1-11.1,12.6-17.8
	c9.7-14.6,6.3-34.7-10.4-36.3c-13.7,7.6-15.8,14.1-28.8,37s-20.7,47.3-6.7,57.4c14,10.1,27.5,3.1,52.7-8
	C334.6,196.5,339.5,195.1,339.6,192.1z"/>
<path class="st22" d="M323.9,199.7c-2.8-1.3-5.3-5.5-8.3-14.1c-5-14.5-6.3-18.9-3.2-21.9l-1.9,1.2c-0.4,0.3-0.8,0.7-1.1,1.1
	c-0.3,0.5-0.4,1-0.4,1.5c-0.1,3.8,1.8,9.4,5,18.7c2,5.8,3.8,9.7,5.7,12.1c0.7,1,1.8,1.8,3,2.1c1.2,0.3,2.5,0.2,3.6-0.3
	C325.5,200.2,324.6,200,323.9,199.7z"/>
<path class="st15" d="M331,170.4c-4.7-7.9-7.2-13.5-11.7-10.9s-27.5,17.1-27.5,17.1"/>
<path class="st25" d="M382.7,112.9c-3.1-20.8-4.3-41.8-3.5-62.8c0-0.7-0.1-1.3-0.4-1.9c-0.3-0.6-0.7-1.1-1.2-1.6
	c-0.5-0.4-1.1-0.7-1.8-0.8c-0.7-0.1-1.3-0.1-2,0.1l-24.9,7"/>
<path class="st16" d="M366.7,114.6c2.4,4.6,6.7,12.8,7.6,15.5c0.3,4.2,0.1,11.4,0.1,13.6c0,0.2,0.1,0.4,0.2,0.6
	c0.1,0.2,0.3,0.3,0.5,0.3c6.8,1,9.7,1.1,12.5,0.8c2.8-0.3,6.7-1.6,9.4-2.4c0.3-0.1,0.5-0.3,0.6-0.6c0.1-0.3,0.1-0.6,0.1-0.9
	c-2.5-8.2-4.2-14.1-4.2-14.1c-0.5-10.2-0.6-18.3-0.6-21c0-0.3-0.1-0.5-0.3-0.7c-0.2-0.2-0.4-0.3-0.7-0.3c-9.3-0.6-12.5-0.6-15.9-0.4
	s-4.5,2.2-9.2,7.8c-0.2,0.2-0.3,0.6-0.4,0.9C366.4,114,366.5,114.3,366.7,114.6z"/>
<path class="st26" d="M396.7,142.2c0,0,1.1,0.4,0.3,0.8c0.3-0.1,0.5-0.3,0.6-0.6c0.1-0.3,0.1-0.6,0.1-0.9
	c-2.5-8.2-4.2-14.1-4.2-14.1c-0.5-10.2-0.6-18.3-0.6-21c0-0.3-0.1-0.5-0.3-0.7c-0.2-0.2-0.4-0.3-0.7-0.3c-9.3-0.6-12.5-0.6-15.9-0.4
	c-0.7,0-1.4,0.2-2.1,0.5l8.8,18.6l-0.6,17.1L396.7,142.2z"/>
<path class="st23" d="M383.2,141.7c1.7,6.1,3.2,10.4,7,11.2c3.8,0.8,8.3-3.1,14.1-8.9c5.8-5.8,3.8-10.7,1.3-15.3
	c-2.5-4.6-2.9-10.4-6-12.8c-3.8-2.8-8-5.2-12.3-7.2c-3.5-1.5-5.6-1.5-10.9,4.5c-5.3,6-8.4,9.5-7.5,11.9c0.9,2.4,2.4,5,2.4,5
	c-2.4,2.4-2.4,4.4-1.4,6.9s1.4,4.8,6.5,4.8L383.2,141.7z"/>
<path class="st15" d="M371.5,129l14-13.2"/>
<path class="st16" d="M384.3,134.2c-3.1,2-6.4,3.8-9.8,5.3c-0.1,1.9-0.1,3.4-0.1,4.2c0,0.2,0.1,0.4,0.2,0.6c0.1,0.2,0.3,0.3,0.5,0.3
	c6.8,1,9.7,1.1,12.5,0.8c2.8-0.3,6.7-1.6,9.4-2.4c0.3-0.1,0.5-0.3,0.6-0.6c0.1-0.3,0.1-0.6,0.1-0.9l-0.6-2
	C392.6,138.3,388.3,136.5,384.3,134.2z"/>
<path class="st26" d="M397.1,139.5c-4.5-1.2-8.8-3-12.8-5.3l-2,1.3l-0.2,5.5c0,0.1,0.1,0.1,0.1,0.2c0.1,0.1,0.1,0.1,0.2,0.1
	l14.3,0.9c0,0,1.1,0.4,0.3,0.8c0.3-0.1,0.5-0.3,0.7-0.6c0-0.1,0.1-0.3,0.1-0.4c0-0.2,0-0.3-0.1-0.5l-0.6-1.9V139.5z"/>
<path class="st23" d="M322.8,162c3.1-3.7,5.5-8,6.8-12.6c1-3,2.1-7.3,2.5-8.9s2.3-2.5,4.6-2c2.3,0.5,3.3,0.9,2.9,5
	s-1.3,13.8-1.3,13.8L322.8,162z"/>
<path class="st23" d="M368.8,164.4c-1.5-4.1-2.2-6.2-3.5-7.9c-1.3-1.7-2.5-2-8.3-2.3c-2.3-0.1-6.7,0-9.6,0.1
	c5.7-1.5,11.8-2.8,13.1-3.2c1.3-0.4,3.9-0.8,3-3.3s-1.7-3.1-3.1-3.1c-3.6-0.1-7.2,0.2-10.7,0.9c-5.1,1-10.2,2.4-15.1,4.3
	c-2.9,1.2-6.6,6.6-11.8,12.1c2.3,8.1,7.8,20.5,13.4,26.4c7.4-2.9,11.8-9.3,13.6-11.7c9.3-1.6,12.5-0.6,17.7,0.1
	c3.2,0.4,3.5-1.9,3.7-3C371.4,172.7,370.1,168.2,368.8,164.4z"/>
<path d="M292.8,58.3c-0.3,4.2,1.1,7.7,3.1,7.9c2,0.2,3-1.4,3.1-5.3c0-1.6,0.2-3.3,0.6-4.9c0.7-3.5-0.8-4.8-2.5-4.9
	C295.4,51,293.1,54.2,292.8,58.3z"/>
<path class="st20" d="M327.1,8.9c2.1-0.4,4.2-0.1,6.1,1c1.8,1,3.2,2.7,3.9,4.7c1.5,4.7,2.8,11.8-5.2,13.1c-3.4,0.5-6.9-1-12.3-5.2
	c-3.9-3.1-8.1-4.2-17.2,0.5c-4.9-3.4-2.5-12.1,10.8-7.7c-5.8-7.5-4.1-12.7,0.1-14.2C317.5-0.4,323.8,0.4,327.1,8.9z"/>
<path d="M327.1,23.3c-2.9-3.6-5.3-8.4-7.3-12.5c-2-4.1-4-8.4-6.2-9.7h-0.3c-0.8,0.3-1.5,0.7-2.1,1.3l0.7-0.2c1.9,0.2,4,4.6,6.3,9.3
	c2.3,4.7,4.5,9.1,7.5,12.9c1,1.2,2.1,2.3,3.4,3.2c0.9,0.2,1.9,0.2,2.8,0.1h0.1C330.2,26.5,328.5,25,327.1,23.3z"/>
<path d="M337.2,24.7c-0.4,0.6-1,1.2-1.6,1.6c-0.5-6.6-3.4-12.9-8.3-17.4c0.8-0.2,1.5-0.2,2.3-0.1C333.8,13.1,336.5,18.7,337.2,24.7z
	"/>
<path class="st27" d="M347.4,335.7c0.1,0.8,0.3,1.5,0.4,2.2c2,9.8,4.9,21.5,4.9,21.5h38.2c11.2,0,25.6-4.4,28.4-6.6
	c2.8-2.2,2.2-4.5,1.2-6.3c-0.4-0.5-0.8-1-1.4-1.3c-0.6-0.3-1.2-0.5-1.8-0.5c0.6-3.6-0.1-6.6-4.8-7.7c-5.4-1.2-11.1-1-16.4,0.5
	c-1.4-3.7-3.1-8.3-4.9-13.6C374.4,323.6,357.3,322.2,347.4,335.7z"/>
<path class="st27" d="M347.4,335.7c0.1,0.8,0.3,1.5,0.4,2.2c2,9.8,4.9,21.5,4.9,21.5h38.2c11.2,0,25.6-4.4,28.4-6.6
	c2.8-2.2,2.2-4.5,1.2-6.3c-0.4-0.5-0.8-1-1.4-1.3c-0.6-0.3-1.2-0.5-1.8-0.5c0.6-3.6-0.1-6.6-4.8-7.7c-5.4-1.2-11.1-1-16.4,0.5
	c-1.4-3.7-3.1-8.3-4.9-13.6C374.4,323.6,357.3,322.2,347.4,335.7z"/>
<path class="st6" d="M396.1,337.5l-1.3,0.3h-0.2l-10.9,2.2c-0.2-0.2-0.3-0.5-0.3-0.8c-0.8-2.8-1.3-5.8-1.3-8.7
	c-0.1-6.1-3.3-6.7-8.8-6.6l0.3-0.7c0.7-1.9,2.1-3.6,3.8-4.8c1.7-1.2,3.8-1.8,5.8-1.7h9.1c0.5,0,1.1,0.1,1.5,0.4
	c0.5,0.2,0.9,0.6,1.2,1c0.3,0.4,0.6,0.9,0.7,1.4c0.1,0.5,0.2,1.1,0.1,1.6c-1.1,4.7-1.4,10.5-0.3,14.8
	C395.7,336.4,395.9,337,396.1,337.5z"/>
<path class="st28" d="M357.5,343.6c-1.4-0.5-2.8-0.6-4.2-0.5c-1.4,0.1-2.8,0.5-4.1,1.2c0.1,0.6,0.2,1.2,0.4,1.8
	c1.1-0.7,2.3-1.1,3.6-1.3c1.3-0.2,2.5,0,3.7,0.4c5.6,1.9,9.7,9.2,11.8,14.2h1.9C368.4,354.2,364,345.8,357.5,343.6z"/>
<path d="M420.2,351.9l-0.9,0.9c-2.8,2.2-17.2,6.6-28.4,6.6h-22.8V359c26.2-0.4,44-11.3,50.1-11.3
	C420.2,347.7,421.4,350.7,420.2,351.9z"/>
<path class="st15" d="M395.1,138.1c1.4,1.9,3.5,3.3,5.8,3.8"/>
<path class="st26" d="M351.2,130.4c-1,0-2-0.4-2.7-1c-0.7-0.7-1.2-1.6-1.3-2.6l-0.8-9.1h1.8l5.3,8.7c0.2,0.4,0.3,0.9,0.3,1.3
	c0,0.5-0.1,0.9-0.4,1.3c-0.2,0.4-0.6,0.7-1,1C352.1,130.3,351.7,130.4,351.2,130.4z"/>
<path class="st15" d="M306.5,114.8h9.8"/>
<path d="M362.2,228.4c-1.2-4.3-3-10.4-3-10.4c8-5.2,15.7-11.1,22.9-17.4c0,0-8.3,18.4-12,35.5L362.2,228.4z"/>
<path class="st15" d="M384.6,249.3l9.7-0.4"/>
<path d="M396.1,337.5l-1.3,0.3h-0.2c-4.3,1-8.6,2.3-12.8,3.9h-0.3c-0.2,0-0.3-0.1-0.5-0.2c-0.1-0.1-0.2-0.3-0.3-0.4
	c0-0.1-0.1-0.2-0.1-0.3c0-0.1,0-0.2,0.1-0.3c0-0.1,0.1-0.2,0.2-0.3c0.1-0.1,0.2-0.1,0.3-0.2l2.2-0.9c4-1.4,8.1-2.5,12.2-3.4
	C395.7,336.3,395.9,336.9,396.1,337.5z"/>
<path d="M369.1,165.2l-0.3-0.8l-0.4-1c-8.7-0.9-17.8-1.5-26.7-0.6c-0.1,0-0.2,0.1-0.3,0.1c-0.1,0.1-0.2,0.1-0.3,0.2
	c-0.1,0.1-0.1,0.2-0.2,0.3c0,0.1,0,0.2,0,0.4s0.1,0.2,0.1,0.3c0.1,0.1,0.1,0.2,0.2,0.3c0.1,0.1,0.2,0.1,0.3,0.2c0.1,0,0.2,0,0.4,0
	C350.9,163.6,360.2,164.3,369.1,165.2z"/>
<path class="st16" d="M301.2,53.8l-5.8,2.8l8.1,3.7L301.2,53.8z"/>
<path class="st16" d="M420.2,351.9c0.6-0.8-0.1-1.3-2-1.3c-6.1,0-23.9,8.4-50.1,8.8h-15.4l-1.1-4.4c12,0,25.1-0.2,37.3-4.1
	c12.2-3.9,20.3-7.2,28.4-6.2c0.6,0,1.3,0.2,1.8,0.5c0.6,0.3,1,0.8,1.4,1.3c0.5,0.8,0.8,1.8,0.8,2.8
	C421.2,350.2,420.8,351.2,420.2,351.9z"/>
<path class="st22" d="M388.9,319.9h1.2c2.8,0,4.7,0.1,5.3,0.8c0.6,0.7,0.3,1,0.1,2c0.1-0.6,0.2-1.1,0.4-1.7c0.1-0.6-0.1-1.3-0.4-1.8
	c-0.4-0.5-0.9-0.8-1.6-0.9h-5c-4.6,0-9.8,0-12.5,5.9c0.6,0,1.2,0.1,1.8,0.3C380.5,319.8,384.6,319.9,388.9,319.9z"/>
<path class="st13" d="M351.2,48.3c-1.3,2.1-3.6,4.5-8.7,5.5c7-0.8,10,3.1,10,3.1"/>
<path class="st27" d="M220.9,359.4h-66.5v-14c0-3.6,1.4-7.1,3.9-9.7l6.6-6.4c0.8-0.8,1.5-1.8,2-2.8c0.5-1.1,0.7-2.2,0.7-3.4v-16
	c0-3.2,1.1-6.3,3.1-8.8c2-2.5,4.8-4.3,7.9-5c10.7-2.7,21.8-3.2,30.9-1.4c3.2,0.7,6.1,2.4,8.2,5c2.1,2.6,3.2,5.7,3.2,9V359.4z"/>
<path class="st7" d="M171.5,332.6h0.4c0.2,0,0.3,0,0.5-0.1c0.1-0.1,0.3-0.2,0.3-0.3c3-5.8,3-14.8,3-24.4c0-9.6,0.9-13.2,7.3-15.6
	l-3.4,0.7c-0.9,0.2-1.7,0.6-2.4,1.1c-0.7,0.6-1.3,1.3-1.7,2.1c-1.4,2.8-1.6,6.5-1.6,11.7c0,9.4,0,18.2-2.8,23.6
	c-0.1,0.1-0.1,0.2-0.1,0.3c0,0.1,0,0.2,0,0.4c0,0.1,0.1,0.2,0.2,0.3C171.3,332.5,171.4,332.6,171.5,332.6z"/>
<path class="st29" d="M220.9,305.9c0-3.3-1.2-6.5-3.2-9.1c-2.1-2.6-5-4.3-8.2-4.9c-5.3-0.9-10.8-1.2-16.2-0.9
	c-12.8,0.9-10.9,9-10.9,20.8v10.1c0,3.4-0.9,6.7-2.6,9.6c-1.9,3.1-2.4,6.9-2.4,14.3v13.6h43.6V305.9z"/>
<path class="st3" d="M204.9,343.3c-0.6-17.4-8.5-32.6-16.5-47.1c-0.2-0.3-0.3-0.6-0.3-1c0-0.4,0.1-0.7,0.2-1
	c0.2-0.3,0.4-0.6,0.7-0.7c0.3-0.2,0.7-0.3,1-0.3h2c0.4,0,0.8,0.1,1.2,0.4c0.4,0.2,0.7,0.5,0.9,0.8c8.2,15.1,16.8,30.8,17.4,48.9
	c0.3,9.1-6.6,16.1-15.8,16.1h-6.6C198.3,359.4,205.2,352.4,204.9,343.3z"/>
<path class="st3" d="M223.7,343.3c-0.6-17.4-8.6-32.6-16.5-47.1c-0.2-0.3-0.3-0.6-0.3-1c0-0.4,0.1-0.7,0.2-1
	c0.2-0.3,0.4-0.6,0.7-0.7c0.3-0.2,0.7-0.3,1-0.3h2c0.4,0,0.8,0.1,1.2,0.3c0.4,0.2,0.6,0.5,0.8,0.9c8.3,15.1,16.8,30.8,17.5,48.9
	c0.1,2.1-0.2,4.2-1,6.2c-0.8,2-1.9,3.8-3.4,5.3c-1.5,1.5-3.3,2.7-5.2,3.5c-2,0.8-4.1,1.2-6.2,1.1h-6.6c2.1,0.1,4.2-0.3,6.2-1.1
	c2-0.8,3.7-2,5.2-3.5c1.5-1.5,2.6-3.3,3.4-5.3S223.8,345.4,223.7,343.3z"/>
<path class="st30" d="M207.4,316.3l20.3,3.5c1.6,4.2,2.4,7,2.6,9.7s-2.4,4.2-6.4,5.8c-2.9,1.2-5.5,2.9-7.8,5
	c-5.8,5.1-10.7,8.2-19.2,8.2c-1.7,0-2.9,0.1-3.9-1c-1.1-1.2-1.7-2.7-1.8-4.3c-0.1-1.6,0.4-3.2,1.3-4.5c1-1.4,2.3-2.6,3.7-3.6
	c3-2,5.6-4.6,7.5-7.6c1.9-3.1,3.1-6.5,3.5-10.1C207.3,316.9,207.3,316.6,207.4,316.3z"/>
<path d="M223.9,335.3c1.7-0.6,3.3-1.5,4.7-2.6c1.9-1.8,1.1-3.5-3-3.4c-4.1,0.1-8.4,3.3-17,8.6c-8.6,5.3-21.4,10.6-11.7,10.6
	s13.4-3.1,19.2-8.2C218.4,338.2,221,336.5,223.9,335.3z"/>
<path class="st31" d="M205.2,310.2c-1.5,0.3-1.3,2-0.5,3.7c-1.6,3-0.6,4.2,2.2,5.4c5.7,1.9,11.6,2.7,17.6,2.4
	c6.1-0.6,5.7-2.6,5.1-4.6c2.1-1.8,1.8-3.9-0.3-4.8C227.2,311.4,215.9,307.9,205.2,310.2z"/>
<path class="st16" d="M250.3,205.8h-26.2v14.3h26.2V205.8z"/>
<path class="st31" d="M303.6,206.1c0.5,2,0.5,4.2,0.1,6.2c-0.4,2-1.3,4-2.6,5.6c-1.3,1.6-2.9,3-4.8,3.9s-3.9,1.4-6,1.4h-28.6
	l-13.4,7.5v-0.4c-6.1,0-9.6-2-6.9-24.4c-1.2-6.3-6.8-31.1-9.9-49.6c-2.8-16.9,3.5-23.1,20.9-32.9c7.4-22,26.6-20.7,30.3-7.5
	C286.3,129.1,298.5,185.2,303.6,206.1z"/>
<path class="st0" d="M249.9,237.8l-4.6,0.8c-0.2,0-0.4,0.1-0.6,0.3c-0.2,0.1-0.3,0.3-0.5,0.5c-0.1,0.2-0.2,0.4-0.2,0.6
	c0,0.2,0,0.5,0.1,0.7l1,2.5c-13.9,0.8-26,2-30.8,6.2c-4.8,4.2-4.8,10.6-7,29.7c-2.2,19.1-5.8,30.5,0,33.1c5.9,2.5,12.3,3.5,18.7,2.8
	c6.4-0.6,7-3.9,8.3-13.8c1.3-9.9,4.4-31.9,4.4-31.9h50.5c12.5,0,19.9-8.2,21.6-15.2c1.2-5-0.4-16.8-3.3-30.8h-45.9l-13.4,7.5l1,4.3
	L249.9,237.8z"/>
<path class="st32" d="M292,223.5c5,25,6,43.8-13,52.4"/>
<path class="st33" d="M252.7,210.9c0,0,2.1,12.3,5,26.9c3.3,16.8,2.4,16.2-20.5,17.7c-20.1,1.3-18.3,0.3-22.5,23.2
	c-1.6,9-4.4,25.3-3.6,34.3c0,0-0.9,5.3-0.7,6.4"/>
<path class="st13" d="M238.7,269.3c-11.1-1.7-16.5-11.7-16.5-11.7"/>
<path class="st13" d="M238.7,269.3c-2.3-1.3-4.3-3.1-5.8-5.2c-1.6-2.1-2.7-4.5-3.4-7.1"/>
<path class="st8" d="M303.6,206.1c-2.6-10.8-7.2-30.8-11.5-49.5l-22.4-1.7l-17.3,12.2l-10,13.4l-5.1,6.9c1.8,8.6,3.3,15.6,3.9,18.6
	c-2.7,22.4,0.8,24.4,6.9,24.4l17.7-7.5l41-2.9C305.8,215.5,304.7,210.8,303.6,206.1z"/>
<path d="M257.8,194.8c1.3-7.5,0.6-13.8-1.5-14.1c-2.1-0.3-4.8,5.4-6,12.9c-1.3,7.5-0.6,13.8,1.5,14.1
	C253.8,208.1,256.5,202.3,257.8,194.8z"/>
<path class="st18" d="M244.7,176.3c1-1.8,2.1-3.6,3.2-5.2c11.3-16.3,21.9-20.7,32.1-20.7h12.7c0.2,0,0.4,0.1,0.5,0.1
	c0.2,0.1,0.3,0.2,0.4,0.4c0.1,0.2,0.2,0.3,0.2,0.5c0,0.2,0,0.4-0.1,0.6l-1.7,4.6c-19.5,0-26.4-0.6-42.6,16.4l-7.1,7.5L244.7,176.3z"
	/>
<path d="M306.8,220h-33.1c-7.4,0-16.5-0.4-25.6,10.4l1.1,4.7c5.3-5.1,10.2-7.3,20.8-7.3h38.4L306.8,220z"/>
<path class="st16" d="M249.5,173.6c-6.7,1.2-12,4.7-15,10.9c-0.9,1.7-2.1,3.2-3.6,4.4l-18,13.1c-2,1.4-3.4,3.6-4,6
	c-0.5,2.4-0.1,5,1.2,7.1c0.9,1.5,2.1,2.7,3.6,3.6c1.5,0.9,3.2,1.3,5,1.3h7.5c15.6-8.7,22.8-14.6,26.5-18s7.8-9.5,7.1-16.5
	C259.1,178.5,257.1,172.2,249.5,173.6z"/>
<path class="st31" d="M255.1,121.9c-2.4-4-5.6-9.3-6.8-11.8s-4.1-1.9,0,9.3c-10-3.8-12.1-2.4-12.6-1s1.7,2.1,5.9,4.5
	c4.2,2.4,8.7,5.3,8.7,5.3L255.1,121.9z"/>
<path d="M265.5,122.2c1.7-2.1,2.3-4.4,1.3-5.2s-2.1-0.4-3.6,1.6c-0.6,0.8-1.3,1.6-2.1,2.3c-1.7,1.6-1.3,2.8-0.5,3.5
	C261.4,125.1,263.8,124.3,265.5,122.2z"/>
<path class="st22" d="M282.5,116c0,0-11.9-5.4-17-8.7c-5.1-3.3-7.7-8.2-5.4-9.5c2.3-1.3,6.7,1.8,9.8,5.8c-0.1-7.1,1.1-8.6,3-8.7
	s2.1,2.7,2.2,6.7s0.8,5.6,3.8,8.3C280.7,111.5,282,113.6,282.5,116z"/>
<path class="st16" d="M238.8,149.2c-2.8,0-5.2-2.4-3-6.6c2.2-4.2,9.4-8.4,12.9-10c3.5-1.6,5.1,0,5.2,1.2s-0.4,3-2.9,6.2
	S243.9,149.2,238.8,149.2z"/>
<path class="st6" d="M241,148.9l-1.7,0.3l-2.4-8.2l1.4-1.5L241,148.9z"/>
<path class="st6" d="M247.2,144.5l-1.4,1.4l-2.8-10.1l1.5-1L247.2,144.5z"/>
<path class="st6" d="M252.8,137.5l-1.3,1.8l-2-7l1.7-0.3L252.8,137.5z"/>
<path class="st13" d="M250.6,131.1c1.9,0.9,3.8,1.7,5.7,2.3"/>
<path class="st13" d="M248.1,242.5l11,13.4"/>
<path class="st22" d="M256.7,238.5h-3.9l-1.2-5.5l-1.1-5.1c1-1,2.1-1.9,3.2-2.8l1.3,5.6L256.7,238.5z"/>
<path class="st22" d="M274,233.2h-3.9l-1.2-5.4l-1.6-7.6h3.9l1.6,7.7L274,233.2z"/>
<path class="st22" d="M305.9,233H302l-1.2-5.2l-1.6-7.8h3.9l1.6,7.8L305.9,233z"/>
<path class="st16" d="M295.2,169.8c-1.9-1.5-4.3-2.4-6.7-2.5c-5.2,0-8.1,5.1-9.1,10c-0.2,0.8-0.6,1.5-1.2,2
	c-0.6,0.5-1.4,0.8-2.2,0.8h-0.7c-0.5-0.1-0.9-0.3-1.3-0.5c-0.4-0.3-0.7-0.6-1-1c-0.3-0.4-0.4-0.8-0.5-1.3c-0.1-0.5-0.1-0.9,0-1.4
	c1.9-9.5,8.1-15.6,15.9-15.6c1.3,0,2.5,0.5,3.5,1.3c1,0.8,1.7,1.9,2,3.2L295.2,169.8z"/>
<path class="st34" d="M303.6,206.1c0.2,0.9,0.3,1.8,0.1,2.7c-0.1,0.9-0.5,1.8-1,2.6s-1.1,1.4-1.9,2c-0.8,0.5-1.6,0.9-2.5,1.1
	l-2.5,0.2c-5.7,0-11.6-3.4-16.2-9.3c-0.3-0.4-0.5-0.8-0.6-1.2c-0.1-0.4-0.1-0.9-0.1-1.4s0.2-0.9,0.5-1.3c0.2-0.4,0.5-0.7,0.9-1
	c0.4-0.3,0.8-0.5,1.2-0.6c0.4-0.1,0.9-0.1,1.4-0.1c0.5,0.1,0.9,0.2,1.3,0.5c0.4,0.2,0.7,0.6,1,0.9c3.2,4.1,7.1,6.6,10.6,6.6
	s5.6-2,7.1-4.6C303.1,204.2,303.4,205.2,303.6,206.1z"/>
<path class="st28" d="M296.9,177.5c-0.7,0-1.4,0.2-2,0.6c-0.6,0.4-1,1-1.2,1.7l-4.2,11.3c-0.4,1.1-0.4,2.2,0,3.3
	c0.4,1.1,1.1,1.9,2.1,2.5c0.4,0.3,0.9,0.4,1.4,0.5c0.5,0.1,1,0,1.5-0.2c0.5-0.2,0.9-0.5,1.3-0.8c0.4-0.4,0.6-0.8,0.8-1.3l2.7-7.3
	C298.6,184.5,297.8,181.1,296.9,177.5z"/>
<path class="st26" d="M291.6,196.9c-1-0.6-1.7-1.5-2.1-2.5c-0.4-1.1-0.4-2.2,0-3.3l1.2-3.1c0.2-0.5,0.5-1,0.9-1.4
	c0.4-0.4,0.9-0.7,1.4-0.9c0.5-0.2,1.1-0.3,1.7-0.2c0.6,0,1.1,0.2,1.6,0.5c0.8,0.5,1.5,1.2,1.8,2.1c0.3,0.9,0.3,1.9,0,2.8l-1.6,4.3
	c-0.2,0.5-0.4,0.9-0.8,1.3c-0.4,0.4-0.8,0.6-1.3,0.8c-0.5,0.2-1,0.2-1.5,0.2C292.5,197.3,292,197.2,291.6,196.9z"/>
<path class="st35" d="M238.6,212.9c-3.2,2.2-6.8,3.8-10.6,4.7"/>
<path class="st36" d="M277.3,359.4h-17.5c-10.7,0-20.6-8.6-22.1-19.2c-1.5-10.6,5.3-16.2,16.8-18.7l2-0.5c1.6-0.3,3-1.3,4-2.6
	c0.9-1.4,1.3-3,1.1-4.7c-0.2-1.6-0.9-3.1-2.1-4.2c-1.1-1.1-2.6-1.8-4.2-2l-2.9-0.3c-12.4-1.3-20.6-8.6-22.1-19.2s5.9-18.7,16.3-18.7
	h17.5c10.7,0,20.6,8.6,22.1,19.2l7.4,52.2C295,351,287.7,359.4,277.3,359.4z"/>
<path class="st16" d="M297.6,359.4h-17.5c-10.7,0-20.6-8.6-22.1-19.2c-0.6-3.9,0.2-7.9,2.4-11.2s5.4-5.7,9.2-6.8
	c1.4-0.4,2.6-1.3,3.4-2.5c0.8-1.2,1.1-2.7,0.9-4.1l-0.5-3.8c-0.2-1.2-0.7-2.3-1.6-3.2c-0.8-0.9-1.9-1.5-3.1-1.8
	c-9.1-1.9-16.8-9.6-18.1-18.8c-1.3-9.2,5.9-18.7,16.3-18.7h17.5c10.7,0,20.6,8.6,22.1,19.2l7.4,52.2
	C315.3,351,308,359.4,297.6,359.4z"/>
<path class="st31" d="M293.2,286.9c0.1,0.5,0,1-0.1,1.5c-0.1,0.5-0.4,0.9-0.7,1.3c-0.3,0.4-0.7,0.7-1.2,0.9c-0.5,0.2-1,0.3-1.5,0.3
	h-18.4c-1.1,0-2.2-0.4-3-1.2s-1.4-1.7-1.6-2.8v-0.6c-0.1-0.5-0.1-1,0.1-1.5c0.1-0.5,0.4-0.9,0.7-1.3s0.7-0.7,1.2-0.9
	c0.5-0.2,1-0.3,1.5-0.3h18.5c1.1,0,2.2,0.4,3,1.1c0.8,0.7,1.4,1.7,1.6,2.8V286.9z"/>
<path class="st31" d="M285.2,294.3c0.1,0.5,0.1,1-0.1,1.5c-0.1,0.5-0.4,0.9-0.7,1.3c-0.3,0.4-0.7,0.7-1.2,0.9s-1,0.3-1.5,0.3h-0.5
	c-1.1,0-2.2-0.4-3-1.2c-0.8-0.7-1.4-1.7-1.6-2.8l-2.2-15.4c-0.1-0.5,0-1,0.1-1.5c0.1-0.5,0.4-0.9,0.7-1.3c0.3-0.4,0.7-0.7,1.2-0.9
	c0.5-0.2,1-0.3,1.5-0.3h0.5c1.1,0,2.2,0.4,3,1.1c0.8,0.7,1.4,1.7,1.6,2.8L285.2,294.3z"/>
<path class="st36" d="M287.5,317.5c0,0.2,0,0.4,0,0.6c-0.1,0.2-0.2,0.4-0.3,0.5c-0.1,0.2-0.3,0.3-0.5,0.4c-0.2,0.1-0.4,0.1-0.6,0.2
	h-0.3c-0.5,0-0.9-0.2-1.2-0.5c-0.3-0.3-0.6-0.7-0.7-1.2l-0.9-6.4c0-0.2,0-0.4,0-0.6c0.1-0.2,0.2-0.4,0.3-0.5
	c0.1-0.2,0.3-0.3,0.5-0.3c0.2-0.1,0.4-0.1,0.6-0.1h0.2c0.5,0,0.9,0.2,1.2,0.4c0.3,0.3,0.6,0.7,0.7,1.2L287.5,317.5z"/>
<path class="st31" d="M287.1,337.7c-1.1,0-2.2-0.4-3-1.1c-0.8-0.7-1.4-1.7-1.6-2.8v-0.6c-0.1-0.5-0.1-1,0.1-1.5
	c0.1-0.5,0.4-0.9,0.7-1.3c0.3-0.4,0.7-0.7,1.2-0.9c0.5-0.2,1-0.3,1.5-0.3h0.5c1.1,0,2.1,0.4,3,1.1c0.8,0.7,1.4,1.6,1.6,2.7v0.7
	c0.1,0.5,0,1-0.1,1.5c-0.1,0.5-0.4,0.9-0.7,1.3c-0.3,0.4-0.7,0.7-1.2,0.9c-0.5,0.2-1,0.3-1.5,0.3H287.1z"/>
<path class="st23" d="M289.7,352.6h-0.5c-1.1,0-2.2-0.4-3-1.1c-0.8-0.7-1.4-1.7-1.6-2.8v-0.9c0-0.5,0-1,0.2-1.4
	c0.2-0.5,0.4-0.9,0.7-1.2c0.3-0.3,0.7-0.6,1.2-0.8c0.4-0.2,0.9-0.3,1.4-0.3h0.5c1.1,0,2.1,0.4,3,1.1c0.8,0.7,1.4,1.6,1.6,2.7v0.7
	c0.1,0.5,0.1,1-0.1,1.5c-0.1,0.5-0.4,0.9-0.7,1.3c-0.3,0.4-0.8,0.7-1.2,0.9C290.7,352.5,290.2,352.6,289.7,352.6z"/>
<path class="st28" d="M287.6,337.7h-0.5c-1.1,0-2.2-0.4-3-1.1c-0.8-0.7-1.4-1.7-1.6-2.8v-0.6c-0.1-0.5-0.1-1,0.1-1.5
	c0.1-0.5,0.4-0.9,0.7-1.3c0.3-0.4,0.7-0.7,1.2-0.9c0.5-0.2,1-0.3,1.5-0.3h0.5c1.1,0,2.1,0.4,3,1.1c0.8,0.7,1.4,1.6,1.6,2.7v0.7
	c0.1,0.5,0,1-0.1,1.5c-0.1,0.5-0.4,0.9-0.7,1.3c-0.3,0.4-0.7,0.7-1.2,0.9C288.6,337.6,288.1,337.7,287.6,337.7z"/>
<path class="st31" d="M297.1,345.1c-1.1,0-2.2-0.4-3-1.1c-0.8-0.7-1.4-1.7-1.6-2.8v-0.6c-0.1-0.5-0.1-1,0.1-1.5
	c0.1-0.5,0.4-0.9,0.7-1.3c0.3-0.4,0.7-0.7,1.2-0.9c0.5-0.2,1-0.3,1.5-0.3h0.5c1.1,0,2.1,0.4,3,1.1c0.8,0.7,1.4,1.6,1.6,2.7v0.7
	c0.1,0.5,0.1,1-0.1,1.5s-0.4,0.9-0.7,1.3c-0.3,0.4-0.7,0.7-1.2,0.9c-0.5,0.2-1,0.3-1.5,0.3H297.1z"/>
<path class="st28" d="M297.6,345.1h-0.5c-1.1,0-2.2-0.4-3-1.1c-0.8-0.7-1.4-1.7-1.6-2.8v-0.6c-0.1-0.5-0.1-1,0.1-1.5
	c0.1-0.5,0.4-0.9,0.7-1.3c0.3-0.4,0.7-0.7,1.2-0.9c0.5-0.2,1-0.3,1.5-0.3h0.5c1.1,0,2.1,0.4,3,1.1c0.8,0.7,1.4,1.6,1.6,2.7v0.7
	c0.1,0.5,0.1,1-0.1,1.5s-0.4,0.9-0.7,1.3c-0.3,0.4-0.7,0.7-1.2,0.9C298.6,345,298.1,345.1,297.6,345.1z"/>
<path class="st23" d="M279.7,345.3h-0.6c-1.1,0-2.2-0.5-3-1.2c-0.8-0.7-1.4-1.7-1.5-2.8v-0.9c-0.1-0.5,0-1,0.1-1.4
	c0.1-0.5,0.4-0.9,0.7-1.2c0.3-0.4,0.7-0.6,1.2-0.8c0.4-0.2,0.9-0.3,1.4-0.3h0.6c1.1,0,2.1,0.5,2.9,1.2c0.8,0.7,1.4,1.7,1.6,2.7v0.6
	c0.1,0.5,0.1,1,0,1.5c-0.1,0.5-0.4,1-0.7,1.4c-0.3,0.4-0.7,0.7-1.2,0.9C280.7,345.2,280.2,345.3,279.7,345.3z"/>
<path class="st5" d="M117.4,339.4l-9.7-5.4c7.6-12.5,16-24.6,25.1-36.1c-17.9,6.5-36.7,14.6-57.5,14.6H40.5
	c-2.1-4.3-2.7-8.7-2.7-15.3l42.5-15.5l16.1,3.3l0.5,4.6c15.4-3.9,31.3-8.4,42.8-11.1c14.5-3.4,19.4,3.9,11,16.1
	C134.5,318.2,117.4,339.4,117.4,339.4z"/>
<path class="st37" d="M50.1,293.2c0,8.5,0,14.5,4.1,17.9c1,0.9,2.3,1.4,3.6,1.4H62c-10.2-1.7-10.2-7.2-10.1-19.3v-0.8
	c0-0.1-0.1-0.2-0.1-0.3l-1.7,0.6V293.2z"/>
<path class="st38" d="M117.4,334.9c15.6-20.6,25.6-34.9,29.8-41.6c4.2-6.7,5.6-10.9-15.6-3.7c-21.2,7.2-37.3,13.7-42,11.9
	s-3-6.6-2.7-15.1"/>
<path class="st26" d="M55,237.8c-7.2-11-13.1-22.8-17.6-35.2c-0.6-2.1-0.8-4.2-0.4-6.4c0.4-2.1,1.2-4.1,2.5-5.8
	c7.3-8.8,16.9-13.5,29.7-15.7c1.4-0.2,2.8,0.2,3.9,1.1c15.2,13.3,19.7,28.3,22.3,42.9c0.1,0.8-0.1,1.7-0.4,2.5
	c-0.3,0.8-0.9,1.4-1.6,1.9c-7.5,4.6-11.5,6-11.5,6l1.5,11.1L55,237.8z"/>
<path class="st26" d="M69.5,200.5c7.5,0.7,14.9,1.8,22.3,3.4l4.1,1.1c0.2,0,0.3,0.1,0.4,0.2c0.1,0.1,0.2,0.2,0.2,0.4
	c0,0.2,0,0.3,0,0.5c0,0.2-0.1,0.3-0.2,0.4l-0.9,0.8l1.6,6.2c0.5,1.9,0.4,3.9-0.4,5.7s-2.1,3.3-3.8,4.3l-3.7,2.1L69.5,200.5z"/>
<path class="st23" d="M72.7,207.9c1.9-1.3,1.5-5.2-0.8-8.6c-2.4-3.4-5.8-5.1-7.7-3.7c-1.9,1.3-1.5,5.2,0.8,8.6
	C67.3,207.5,70.8,209.2,72.7,207.9z"/>
<path d="M84.5,194c-1.2-1.1-2.5-1.4-3-0.9s-0.2,1.3,0.9,2.1l1.3,1.3c0.9,1,1.6,0.8,2,0.3S85.7,195,84.5,194z"/>
<path class="st26" d="M44.8,185.1c-1.6-16.1,0-21.5,3.4-26.2c3.4-4.7,5.4-3.3,4.8,2.9c-0.4,4.9-0.3,9.7,0.1,14.6
	c3-7.6,7.3-14.6,12.7-20.6c1.6-2,3.8-3.4,6.2-4.1c2.4-0.6,3.7,0.8,3,3.1c-1.2,3.9-4.1,10.1-11.9,21.2l0.8,4.4L44.8,185.1z"/>
<path class="st39" d="M91.5,247.3c8.5,2.9,2.5,29.5,2.5,29.5l1.2,0.9c1,0.8,1.7,1.8,2,3c0.3,1.2,0.2,2.5-0.4,3.6l-0.4,0.7
	c-5.9,0-9.8,0.5-17.8,6.2c-8,5.7-13.1,6-21.3,6H37.8v-6.6c-7.3-2.9-7.9-6.4-5.1-10.9c1.5-2.6,3.9-6.2,5.7-8.9c0.7-1,1.2-2.2,1.4-3.4
	c0.2-1.2,0.2-2.5,0-3.7c-1.6-8.6-0.3-13.7-0.3-13.7l21.2-5.7l26.9-1.1L91.5,247.3z"/>
<path d="M90.9,271.8c2.6-0.7,3.5-5.7,2-11.2c-1.5-5.5-4.7-9.4-7.3-8.7s-3.5,5.7-2,11.2C85.1,268.6,88.3,272.5,90.9,271.8z"/>
<path class="st16" d="M103.9,334.6c2.4-2.5,7.6-6.7,7.6-6.7c3.3,0,8.3,0.6,10.5,9.7l2.7,10.7c10.3,1.9,10.4,4.8,9,8.6v1.7
	c0,0.2-0.1,0.4-0.2,0.6c-0.2,0.2-0.4,0.2-0.6,0.2h-17.2L103.9,334.6z"/>
<path class="st23" d="M132.9,359.4c0.2,0,0.4-0.1,0.6-0.2c0.1-0.1,0.2-0.4,0.2-0.6v-1.7c-6.8,0-11.8,0.7-14.3-3.7
	c-2.7-5.3-5.1-10.8-7.1-16.4c-0.9-2.6-2.8-5.7-5.7-4.8l-2.7,2.6l11.8,24.8H132.9z"/>
<path d="M125.6,359.4c-1.8,0-3.6-0.4-5.2-1.3c-1.6-0.9-2.9-2.1-3.9-3.6c-3.7-5.6-6-12.3-7.4-16.4s-5.9-5.7-6.3-0.5
	c-0.4,5.2,2.3,9.2,6.5,19.6c0.2,0.7,0.7,1.2,1.2,1.6c0.6,0.4,1.3,0.6,2,0.6H125.6z"/>
<path class="st26" d="M91.5,247.3l15.8,5.4c1.6-22.1,8.3-28.4,16.1-46c5.6-12.5,8.2-18.2,9.3-20.4c0.2-0.4,0.4-0.7,0.8-0.9
	c0.3-0.2,0.7-0.3,1.1-0.3h0.6c0.3,0,0.6,0.1,0.9,0.2c0.3,0.1,0.5,0.3,0.7,0.5s0.4,0.5,0.5,0.8c0.1,0.3,0.1,0.6,0.1,0.9
	c-1,5.9-2.6,11.7-4.7,17.3c4.7-3.2,6.8-3.2,9,0.1c5.4-2.8,7.4-2.9,9.3,1.3s1.6,5,0.6,8.4c-1,3.4-2.5,3.7-4.8,3.7
	c0,23.2-1.5,31.9-12.4,47.5c-9.7,13.9-10.2,12.2-23.4,8c-7.6-2.4-15.1-5.1-20-7c-2.8-1-5.2-3-6.7-5.6c-1.5-2.6-2.1-5.7-1.6-8.7
	C83.6,248.3,86.4,245.6,91.5,247.3z"/>
<path class="st16" d="M91.5,247.3c0.5-0.6,1-1.3,1.5-2c0.3-0.4,0.5-0.8,0.5-1.2c0.1-0.4,0.1-0.9,0-1.4c-0.1-0.4-0.3-0.9-0.6-1.2
	c-0.3-0.4-0.6-0.7-1-0.9c-27.3-15-36.9-16.8-51.9-16.8c-9.7,0-9.2,2.5-8.3,7.1c-6.9,6.4-6.8,8.6-2,14.9s6.3,8.8,10.8,8.8
	s15,0.1,24.2-4.6S78.3,242.9,91.5,247.3z"/>
<path d="M91.1,202c-11.1-1.9-22.4-3.1-22.5-3.1c-0.1,0-0.2,0-0.3,0c-0.1,0-0.2,0.1-0.3,0.2c-0.1,0.1-0.2,0.2-0.2,0.3
	c0,0.1-0.1,0.2-0.1,0.3c0,0.2,0,0.5,0.2,0.6c0.1,0.2,0.3,0.3,0.5,0.4c0.2,0,12,1.2,23.4,3.2C91.6,203.3,91.4,202.7,91.1,202z"/>
<path class="st13" d="M68.8,198.4c-0.6,0.9-1.1,1.8-1.6,2.7"/>
<path class="st13" d="M107.3,252.7l6.6,1.9"/>
<path class="st40" d="M50.4,183.7c-0.1,0.4-0.2,0.7-0.4,1.1c-0.1,0.2-0.2,0.3-0.3,0.4c-0.1,0.1-0.3,0.2-0.5,0.2h-0.3
	c-0.1,0-0.2-0.1-0.3-0.2c-0.1-0.1-0.2-0.2-0.2-0.3c0-0.1-0.1-0.2-0.1-0.3c0-0.1,0-0.2,0.1-0.3c0.1-0.3,2.2-6.5,4.1-10.9
	c0.1-0.2,0.2-0.3,0.4-0.4c0,1.2,0.1,2.3,0.2,3.5C53.2,177.7,51,181.9,50.4,183.7z"/>
<path class="st4" d="M143.8,248c0.4-1.1,0.5-2.2,0.3-3.3c-0.2-1.1-0.6-2.2-1.2-3.1c-0.4-0.5-0.9-1-1.5-1.4c-1.2-0.7-2.7-1.1-4.1-1
	c-1.4,0.1-2.8,0.5-4,1.3c0.6-3.4,1.4-9.6,0.8-14.3c-0.6-4.7-2.4-4.1-3.5-4.3c-3.2-0.6-7.6,2.8-11.5,8.9c-0.7-3.3-1.7-4.9-3.3-5.3
	c-0.4-0.1-0.9,0-1.3,0.2c-0.4,0.2-0.7,0.5-0.9,0.9l-1.5,3.6c2-3,3.1-3,3.4-3s1.6,0.8,2.3,6.2c0,0.2,0.1,0.3,0.2,0.5s0.3,0.2,0.5,0.2
	c0.2,0,0.4,0,0.6-0.1c0.2-0.1,0.3-0.2,0.4-0.3c4.1-7.5,8.5-10.5,10.8-10.1c2.3,0.4,1.9,1.7,2,2.9c0.9,6.1-1.1,15.8-1.1,15.9
	c0,0.2,0,0.4,0.1,0.5c0.1,0.2,0.2,0.3,0.3,0.4c0.2,0.1,0.4,0.1,0.6,0.1c0.2,0,0.4-0.1,0.5-0.2c2.2-2.3,5.6-2.9,7.7-1.5
	c2.1,1.4,3.1,6.5,0.8,12.8C142.3,252.4,143.1,250.2,143.8,248z"/>
<path class="st41" d="M127.2,207.1c3.4-1.9,4.6-3,7.6,0c4-2.1,4.8-2.1,7,1.1"/>
<path d="M148.6,217.9c-0.1-2.8-0.4-7.1-0.5-7.2c0-0.1,0-0.2-0.1-0.3c0-0.1-0.1-0.2-0.2-0.3c-0.1-0.1-0.2-0.1-0.3-0.2
	c-0.1,0-0.2,0-0.3,0c-0.1,0-0.2,0-0.3,0.1c-0.1,0-0.2,0.1-0.3,0.2c-0.1,0.1-0.1,0.2-0.2,0.3c0,0.1,0,0.2,0,0.3
	c0,0.1,0.4,4.4,0.4,7.2c0,0.1,0,0.1,0,0.2c0,0.1,0,0.1,0.1,0.1h1.6L148.6,217.9z"/>
<path d="M149.7,214.5h-2.2c-0.1,0-0.2,0-0.3-0.1c-0.1,0-0.2-0.1-0.3-0.2c-0.1-0.1-0.1-0.2-0.2-0.3c0-0.1-0.1-0.2-0.1-0.3
	c0-0.2,0.1-0.4,0.3-0.6c0.2-0.1,0.4-0.2,0.6-0.2h2.2c0.2,0,0.4,0.1,0.6,0.2c0.2,0.1,0.3,0.4,0.3,0.6c0,0.1,0,0.2-0.1,0.3
	c0,0.1-0.1,0.2-0.2,0.3c-0.1,0.1-0.2,0.2-0.3,0.2C149.9,214.5,149.8,214.5,149.7,214.5z"/>
<path class="st41" d="M118.5,272.4c2.1-0.1,4.2-0.3,6.3-0.6"/>
<path d="M54.5,294.2c-11.4-1.4-16.5-3.5-16.6-3.5h-0.1v1.8c1.7,0.6,6.8,2.2,16.5,3.5h0.1c0.2,0,0.4-0.1,0.6-0.2
	c0.2-0.1,0.3-0.4,0.3-0.6c0-0.1,0-0.2,0-0.4c0-0.1-0.1-0.2-0.2-0.3c-0.1-0.1-0.2-0.2-0.3-0.2C54.7,294.2,54.6,294.2,54.5,294.2z"/>
<path class="st13" d="M96.9,289.6c-2.6,0.8-4.9,2.3-6.7,4.2"/>
<path class="st13" d="M133.7,297.9c4-1.8,8-3.9,11.7-6.2"/>
<path class="st13" d="M135.7,297l5.3,0.2"/>
<path class="st42" d="M32.6,230.4c16.6-1.6,28.4,2.2,44.7,9.5c-16.3-1.1-35.5-1.7-35.5-1.7"/>
<path class="st6" d="M28.1,312.5h66.6c1,0,1.9,0.4,2.5,1.1c0.7,0.7,1.1,1.6,1.1,2.5v43.3H24.5v-43.3c0-1,0.4-1.9,1.1-2.5
	C26.2,312.9,27.1,312.5,28.1,312.5z"/>
<path class="st27" d="M91.7,312.5h3c1,0,1.9,0.4,2.5,1.1c0.7,0.7,1.1,1.6,1.1,2.5v43.3H88.1v-43.3c0-0.5,0.1-0.9,0.3-1.4
	c0.2-0.4,0.4-0.8,0.8-1.2c0.3-0.3,0.7-0.6,1.2-0.8C90.8,312.6,91.2,312.5,91.7,312.5z"/>
<path class="st27" d="M34.3,345.6h44c0.8,0,1.6,0.3,2.1,0.9c0.6,0.6,0.9,1.3,0.9,2.1v10.8H31.4v-10.8c0-0.8,0.3-1.5,0.8-2.1
	C32.8,346,33.5,345.6,34.3,345.6z"/>
<path class="st43" d="M36.3,312.5v46.9"/>
<path class="st43" d="M76.2,312.5v46.9"/>
<path d="M78.7,316.1H33.8c-1.4,0-2.5,1.1-2.5,2.5v16c0,1.4,1.1,2.5,2.5,2.5h44.9c1.4,0,2.5-1.1,2.5-2.5v-16
	C81.2,317.2,80.1,316.1,78.7,316.1z"/>
<path class="st28" d="M87.2,319.5c-0.1,0-0.3,0-0.4,0c-0.1,0-0.2,0.1-0.3,0.2c-0.1,0.1-0.2,0.2-0.2,0.3c0,0.1-0.1,0.3,0,0.4
	c0,0.3,0.1,0.5,0.3,0.7c0.2,0.2,0.4,0.3,0.7,0.3h11.1v-2H87.2z"/>
<path class="st28" d="M86.2,324.8c0,0.1,0,0.3,0,0.4c0,0.1,0.1,0.2,0.2,0.3c0.1,0.1,0.2,0.2,0.3,0.2c0.1,0,0.3,0.1,0.4,0h11.1v-2
	H87.2c-0.3,0-0.5,0.1-0.7,0.3C86.3,324.3,86.2,324.5,86.2,324.8z"/>
<path class="st28" d="M86.2,329.2c0,0.3,0.1,0.5,0.3,0.7c0.2,0.2,0.4,0.3,0.7,0.3h11.1v-2H87.2c-0.1,0-0.3,0-0.4,0
	c-0.1,0-0.2,0.1-0.3,0.2c-0.1,0.1-0.2,0.2-0.2,0.3C86.2,328.9,86.2,329.1,86.2,329.2z"/>
<path class="st28" d="M26.3,320.5c0,0.3-0.1,0.5-0.3,0.7c-0.2,0.2-0.4,0.3-0.7,0.3h-0.8v-2h0.8c0.3,0,0.5,0.1,0.7,0.3
	C26.2,320,26.3,320.2,26.3,320.5z"/>
<path class="st28" d="M26.3,324.8c0,0.3-0.1,0.5-0.3,0.7c-0.2,0.2-0.4,0.3-0.7,0.3h-0.8v-2h0.8c0.3,0,0.5,0.1,0.7,0.3
	C26.2,324.3,26.3,324.5,26.3,324.8z"/>
<path class="st28" d="M26.3,329.2c0,0.3-0.1,0.5-0.3,0.7c-0.2,0.2-0.4,0.3-0.7,0.3h-0.8v-2h0.8c0.3,0,0.5,0.1,0.7,0.3
	C26.2,328.7,26.3,328.9,26.3,329.2z"/>
<path class="st4" d="M65.9,317.6H36.6c-0.7,0-1.3,0.6-1.3,1.3v13.9c0,0.7,0.6,1.3,1.3,1.3h29.3c0.7,0,1.3-0.6,1.3-1.3v-13.9
	C67.2,318.2,66.6,317.6,65.9,317.6z"/>
<path class="st23" d="M78.3,334.1h-8c-0.5,0-0.9,0.4-0.9,0.9v1.2c0,0.5,0.4,0.9,0.9,0.9h8c0.5,0,0.9-0.4,0.9-0.9V335
	C79.2,334.5,78.8,334.1,78.3,334.1z"/>
<path class="st5" d="M47.1,319.5c0,2.4,1,4.8,2.7,6.5c1.7,1.7,4.1,2.7,6.5,2.7c2.4,0,4.8-1,6.5-2.7c1.7-1.7,2.7-4.1,2.7-6.5
	c0-0.6-0.1-1.3-0.2-1.9h-18C47.1,318.2,47.1,318.9,47.1,319.5z"/>
<path class="st5" d="M38,334.1h15c-0.9-1.2-2-2.2-3.3-2.8c-1.3-0.7-2.8-1-4.2-1s-2.9,0.4-4.2,1C40,331.9,38.9,332.9,38,334.1z"/>
</svg>
