<?xml version="1.0" encoding="utf-8"?>
<!-- Generator: Adobe Illustrator 26.3.1, SVG Export Plug-In . SVG Version: 6.00 Build 0)  -->
<svg version="1.1" id="Layer_1" xmlns="http://www.w3.org/2000/svg" xmlns:xlink="http://www.w3.org/1999/xlink" x="0px" y="0px"
	 viewBox="0 0 2560 626" style="enable-background:new 0 0 2560 626;" xml:space="preserve">
<style type="text/css">
	.st0{clip-path:url(#SVGID_00000039845337463239388880000008571338362181956495_);}
	.st1{fill:#BABABA;}
	.st2{fill:#EDEDED;}
	.st3{fill:#91FFAD;}
	.st4{fill:#3F99F2;}
	.st5{fill:#F40004;}
	.st6{fill:#FF78B9;}
	.st7{fill:#FFC619;}
</style>
<g>
	<defs>
		<rect id="SVGID_1_" width="2560" height="626"/>
	</defs>
	<clipPath id="SVGID_00000040547674883669725800000000286405382317258895_">
		<use xlink:href="#SVGID_1_"  style="overflow:visible;"/>
	</clipPath>
	<g style="clip-path:url(#SVGID_00000040547674883669725800000000286405382317258895_);">
		<path class="st1" d="M2560,742c-278.6-220.6-407.3-300-638-159.1c-261.9-168-360.9-111.5-642,63.7
			c-140.5-137.3-194.4-194.3-259.5-108.4C860.2,351.5,772.1,290.4,637.8,453c-14.6,17.6-33.9,30.6-55.6,37.5
			c-21.8,6.9-45,7.4-67.1,1.5C312.9,437.1,118.6,667,0,742H2560z"/>
		<path class="st2" d="M2366.4,595.4c-4-3.5-10.2-5.3-17.6-5.3c-6.3,0.1-12.5,1.1-18.5,3l-4,1.3c0.1-2.9-0.2-5.8-1-8.6
			c-2.2-8.8-8-16-16.7-20.9c-13-7.4-31.3-8.6-48.8-3.3c-3.4,1-6.8,2.3-10,3.8c-1.5-4.9-3.6-9.5-6.2-13.9
			c-15.7-26.4-48.3-41.9-72.7-34.5c-10.4,3.1-18.2,10.2-21.9,19.8c-4.8,12.4-2.7,27.7,5.9,42.1c12.7,21.5,37.1,36.3,59.5,36.4
			c0.2,1.3,0.4,2.6,0.7,3.8c0.6,2.4,1.5,4.7,2.7,6.9h2.3c-1.4-2.3-2.4-4.8-3-7.4c-0.4-1.4-0.6-2.9-0.8-4.4c0-0.2-0.1-0.5-0.3-0.6
			c-0.2-0.2-0.4-0.3-0.7-0.3h-0.7c-21.8,0-45.6-14.5-58-35.4c-8.2-13.9-10.3-28.6-5.8-40.4c3.5-9,10.9-15.6,20.7-18.6
			c23.5-7.1,55.1,8,70.4,33.6c2.7,4.6,4.8,9.5,6.3,14.6c0.1,0.3,0.3,0.5,0.6,0.6c0.3,0.1,0.5,0.1,0.8,0c3.5-1.7,7.1-3.1,10.8-4.2
			c17-5.1,34.6-4,47.2,3.1c8.2,4.7,13.7,11.5,15.8,19.7c0.8,3.1,1.1,6.3,0.8,9.5c0,0.3,0.2,0.7,0.4,0.9c0.1,0.1,0.3,0.2,0.5,0.2
			c0.2,0,0.4,0,0.5-0.1l5.3-1.8c14.6-4.4,27.7-3.7,34.2,1.9c3.5,2.9,4.9,7,4.2,11.8s-4,11.6-9.1,17.3h2.6c4.7-5.6,7.8-11.5,8.5-17
			S2370.4,598.7,2366.4,595.4z"/>
		<path class="st2" d="M41.9,350.3c87.3-44,149-9.9,149-9.9c43.2-13.4,81.2-4,100.9,11.3c12.2,9.6-15.2,7.9-76.7,7.9H44.2
			c-1.3,0-2.5-0.5-3.5-1.4c-0.9-0.9-1.4-2.2-1.4-3.5c0-0.9,0.3-1.8,0.7-2.5C40.5,351.4,41.1,350.7,41.9,350.3z"/>
		<path class="st1" d="M815.5,192.3c22.1-11.2,37.7-2.5,37.7-2.5c10.9-3.4,20.6-1,25.5,2.8c3.1,2.5-3.8,2-19.4,2H816
			c-0.3,0-0.6-0.1-0.8-0.4c-0.2-0.2-0.4-0.5-0.4-0.8c0-0.2,0.1-0.5,0.2-0.7C815.1,192.6,815.3,192.4,815.5,192.3z"/>
		<path class="st1" d="M2422.1,212.5c-0.1-8.7-3.3-17-8.9-23.7c-5.6-6.6-13.4-11.1-21.9-12.6c-8.5-1.5-17.4-0.1-24.9,4.2
			c-7.6,4.2-13.5,11-16.6,19c-2.8-0.6-5.6-0.9-8.5-0.9c-5.7,0-11.4,1.2-16.6,3.6c-5.2,2.4-9.8,6-13.5,10.4H2422.1z"/>
		<path class="st1" d="M413,210.1c-6,0-11.9,1.5-17.2,4.2c-5.3,2.8-9.9,6.8-13.3,11.8c-13.3-6.1-28.2-8.2-42.7-6.1
			c-14.5,2.1-28.1,8.3-39.2,17.9h148.3c-2.1-7.9-6.7-15-13.2-20C429.2,212.9,421.2,210.1,413,210.1z"/>
		<path class="st2" d="M2165.6,283.5c2.5,0,5-0.5,7.3-1.5c2.3-1,4.3-2.6,5.9-4.5c1.6-1.9,2.8-4.2,3.4-6.6c0.6-2.4,0.7-5,0.3-7.4
			c-4.8-25.8-17.9-49.4-37.2-67.2c-19.4-17.8-44-28.7-70.2-31.3c-26.2-2.5-52.4,3.5-74.9,17.2c-22.4,13.7-39.8,34.4-49.4,58.8
			c-8.9-1.9-18.1-2.9-27.2-2.9c-17.6,0-35,3.6-51,10.7c-16.1,7.1-30.5,17.4-42.4,30.4c-0.3,0.4-0.5,0.8-0.6,1.3
			c-0.1,0.5,0,1,0.2,1.4c0.2,0.5,0.5,0.8,0.9,1.1c0.4,0.3,0.9,0.4,1.4,0.4H2165.6z"/>
		<path class="st2" d="M1720.6,625.4h-2c0.8-22.6-3.4-37.3-12.9-44.8s-25.4-8-47.7-1.1c-0.3,0.1-0.6,0-0.8-0.1
			c-0.2-0.2-0.4-0.4-0.5-0.7c-0.6-4-2.3-7.8-4.8-11c-2.5-3.2-5.8-5.7-9.6-7.2c-9.6-3.9-21.5-1.7-31.7,5.8
			c-24.8,18.1-22.1,50.5-22.1,50.8c0,0.2-0.1,0.4-0.2,0.6c-0.1,0.2-0.3,0.3-0.4,0.4c-0.2,0.1-0.4,0.1-0.6,0.1
			c-0.2,0-0.4-0.1-0.5-0.3c-12.9-11.5-21.9-16-29.2-14.7c-7.3,1.3-13.9,9.1-21.4,22.2h-2.3c8.1-14.2,14.7-22.7,23.3-24.2
			c8.6-1.5,16.7,2.9,29.2,13.7c-0.1-8,1.3-34.3,23-50.2c10.8-7.9,23.4-10.2,33.6-6c3.9,1.5,7.4,4,10.1,7.3c2.7,3.2,4.6,7.1,5.4,11.2
			c22.4-6.7,38.2-6.1,48.4,1.9C1717.1,587.1,1721.4,602.1,1720.6,625.4z"/>
		<path class="st3" d="M596.5,275.9c-1.6-1-2.9-2.3-3.9-3.9c-1-1.6-1.7-3.3-1.9-5.1l-1-6.4c0-0.1-0.1-0.3-0.2-0.4
			c-0.1-0.1-0.2-0.1-0.4-0.1c-0.1,0-0.3,0-0.4,0.1c-0.1,0.1-0.2,0.2-0.2,0.4l-1,6.4c-0.3,1.8-0.9,3.6-1.9,5.1
			c-1,1.6-2.3,2.9-3.9,3.9l-0.8,0.5c-0.1,0-0.2,0.1-0.2,0.2s-0.1,0.2-0.1,0.3c0,0.1,0,0.2,0.1,0.3c0.1,0.1,0.1,0.2,0.2,0.2l0.8,0.5
			c1.5,1,2.9,2.4,3.9,3.9c1,1.6,1.7,3.3,1.9,5.2l1,6.3c0,0.1,0.1,0.3,0.2,0.4c0.1,0.1,0.2,0.1,0.4,0.1c0.1,0,0.3,0,0.4-0.1
			c0.1-0.1,0.2-0.2,0.2-0.4l1-6.3c0.3-1.8,0.9-3.6,1.9-5.2c1-1.6,2.3-2.9,3.9-3.9l0.8-0.5c0.1,0,0.2-0.1,0.2-0.2
			c0.1-0.1,0.1-0.2,0.1-0.3c0-0.1,0-0.2-0.1-0.3c-0.1-0.1-0.1-0.2-0.2-0.2L596.5,275.9z"/>
		<path class="st4" d="M1692.1,177.1c-2.7-1.7-4.9-4-6.6-6.6c-1.7-2.7-2.8-5.6-3.3-8.8l-1.6-10.8c-0.1-0.2-0.2-0.5-0.4-0.6
			c-0.2-0.2-0.4-0.3-0.7-0.3c-0.3,0-0.5,0.1-0.7,0.2c-0.2,0.2-0.3,0.4-0.4,0.7l-1.6,10.8c-0.5,3.1-1.6,6.1-3.3,8.8
			c-1.7,2.7-4,4.9-6.7,6.6l-1.4,0.9c-0.2,0.1-0.3,0.2-0.3,0.4c-0.1,0.2-0.1,0.3-0.2,0.5c0,0.2,0,0.4,0.1,0.5
			c0.1,0.2,0.2,0.3,0.4,0.4l1.4,0.9c2.7,1.7,4.9,4,6.7,6.7c1.7,2.7,2.9,5.7,3.3,8.8l1.6,10.8c0,0.3,0.2,0.5,0.4,0.7
			c0.2,0.2,0.5,0.3,0.7,0.2c0.2,0,0.5-0.1,0.7-0.3c0.2-0.2,0.3-0.4,0.4-0.6l1.6-10.8c0.5-3.1,1.6-6.1,3.3-8.8c1.7-2.7,4-5,6.6-6.7
			l1.5-0.9c0.1-0.1,0.2-0.2,0.3-0.4c0.1-0.2,0.1-0.3,0.1-0.5c0-0.2,0-0.3-0.1-0.5c-0.1-0.2-0.2-0.3-0.3-0.4L1692.1,177.1z"/>
		<path class="st5" d="M2183.7,410.1c-2.1-1.4-4-3.2-5.3-5.4c-1.4-2.2-2.3-4.6-2.7-7.1l-1.4-8.7c0-0.2-0.1-0.4-0.2-0.6
			c-0.2-0.2-0.4-0.2-0.6-0.2c-0.2,0-0.4,0.1-0.6,0.2c-0.2,0.1-0.3,0.4-0.3,0.6l-1.3,8.7c-0.4,2.5-1.3,5-2.7,7.1
			c-1.4,2.2-3.2,4-5.4,5.4l-1.1,0.7c-0.1,0.1-0.2,0.2-0.3,0.3c-0.1,0.1-0.1,0.3-0.1,0.4c0,0.1,0,0.3,0.1,0.4
			c0.1,0.1,0.2,0.2,0.3,0.3l1.1,0.7c2.2,1.4,4,3.2,5.4,5.4c1.4,2.2,2.3,4.6,2.7,7.1l1.3,8.7c0,0.2,0.1,0.4,0.3,0.6
			c0.2,0.1,0.4,0.2,0.6,0.2c0.2,0,0.4-0.1,0.6-0.2c0.1-0.1,0.2-0.4,0.2-0.6l1.4-8.7c0.4-2.5,1.3-4.9,2.7-7.1c1.4-2.2,3.2-4,5.3-5.4
			l1.1-0.7c0.1-0.1,0.2-0.2,0.3-0.3c0.1-0.1,0.1-0.3,0.1-0.4c0-0.1,0-0.3-0.1-0.4c-0.1-0.1-0.2-0.2-0.3-0.3L2183.7,410.1z"/>
		<path class="st6" d="M900.9,413.7c-0.8-0.5-1.5-1.2-2-2c-0.5-0.8-0.9-1.7-1-2.7l-0.5-3.2c0-0.1,0-0.2-0.1-0.2
			c-0.1-0.1-0.1-0.1-0.2-0.1c-0.1,0-0.2,0-0.2,0.1c-0.1,0.1-0.1,0.1-0.1,0.2l-0.5,3.2c-0.1,1-0.5,1.9-1,2.7c-0.5,0.8-1.2,1.5-2,2
			l-0.5,0.3c-0.1,0-0.1,0.2-0.1,0.3c0,0.1,0,0.1,0,0.2c0,0.1,0,0.1,0.1,0.1l0.5,0.2c0.8,0.5,1.5,1.2,2,2c0.5,0.8,0.9,1.7,1,2.7
			l0.5,3.3c0,0.1,0,0.2,0.1,0.2c0.1,0.1,0.1,0.1,0.2,0.1c0.1,0,0.2,0,0.2-0.1c0.1-0.1,0.1-0.1,0.1-0.2l0.5-3.3
			c0.2-0.9,0.5-1.8,1-2.7c0.5-0.8,1.2-1.5,2-2l0.5-0.2c0,0,0.1-0.1,0.1-0.1c0-0.1,0-0.1,0-0.2c0-0.1,0-0.3-0.1-0.3L900.9,413.7z"/>
		<path class="st7" d="M943.1,542c-0.4-0.2-0.8-0.6-1-1c-0.3-0.4-0.5-0.8-0.6-1.3l-0.2-1.7H941l-0.3,1.7c-0.1,0.5-0.2,0.9-0.5,1.3
			c-0.3,0.4-0.6,0.7-1,1l-0.2,0.2c0,0-0.1,0-0.1,0c0,0,0,0,0,0.1c0,0,0,0.1,0,0.1c0,0,0,0,0.1,0l0.2,0.2c0.4,0.3,0.7,0.6,1,1
			c0.3,0.4,0.4,0.8,0.5,1.3l0.3,1.7h0.3l0.2-1.7c0.1-0.5,0.3-0.9,0.6-1.3c0.3-0.4,0.6-0.7,1-1l0.2-0.2L943.1,542z"/>
		<path class="st3" d="M1365.8,532.6c-0.9-0.6-1.7-1.4-2.2-2.3c-0.6-0.9-1-1.9-1.2-3l-0.5-3.6c0-0.2-0.2-0.3-0.4-0.3
			c0,0-0.1,0-0.1,0c0,0-0.1,0-0.1,0.1c0,0-0.1,0.1-0.1,0.1c0,0,0,0.1,0,0.1l-0.6,3.6c-0.1,1.1-0.5,2.1-1.1,3
			c-0.6,0.9-1.3,1.7-2.2,2.3l-0.5,0.3c-0.1,0-0.2,0.1-0.2,0.3c0,0.1,0.1,0.2,0.2,0.3l0.5,0.3c0.9,0.6,1.6,1.4,2.2,2.3
			c0.6,0.9,0.9,1.9,1.1,2.9l0.6,3.6c0,0.1,0,0.2,0.1,0.2c0,0.1,0.1,0.1,0.2,0.1c0.2,0,0.4-0.1,0.4-0.3l0.5-3.6c0.2-1,0.6-2,1.2-2.9
			c0.6-0.9,1.3-1.7,2.2-2.3l0.5-0.3c0,0,0.1-0.1,0.1-0.1c0-0.1,0-0.1,0-0.2c0-0.2,0-0.3-0.1-0.3L1365.8,532.6z"/>
		<path class="st6" d="M330.1,509c-1-0.6-1.8-1.5-2.4-2.5c-0.6-1-1-2.1-1.2-3.2l-0.6-4c-0.1-0.2-0.2-0.4-0.4-0.4
			c-0.1,0-0.2,0-0.3,0.1c-0.1,0.1-0.1,0.2-0.1,0.3l-0.6,4c-0.2,1.2-0.6,2.3-1.3,3.2c-0.6,1-1.5,1.8-2.4,2.5l-0.6,0.3
			c-0.1,0.1-0.1,0.2-0.1,0.4c0,0.1,0,0.3,0.1,0.3l0.6,0.4c1,0.6,1.8,1.5,2.5,2.5c0.6,1,1.1,2.1,1.2,3.2l0.6,4c0,0.2,0.2,0.3,0.4,0.3
			s0.3-0.1,0.4-0.3l0.6-4c0.2-1.2,0.6-2.3,1.2-3.2c0.6-1,1.4-1.8,2.4-2.5l0.6-0.4c0.1,0,0.2-0.2,0.2-0.3c0-0.1,0-0.2-0.1-0.2
			c0-0.1-0.1-0.1-0.1-0.2L330.1,509z"/>
	</g>
</g>
</svg>
